<?xml version="1.0" encoding="UTF-8"?>
<svg version="1.1" xmlns="http://www.w3.org/2000/svg" width="149" height="65">
<path d="M0 0 C49.17 0 98.34 0 149 0 C149 21.45 149 42.9 149 65 C99.83 65 50.66 65 0 65 C0 43.55 0 22.1 0 0 Z " fill="#E2E3E0" transform="translate(0,0)"/>
<path d="M0 0 C4.29 0 8.58 0 13 0 C13 13.53 13 27.06 13 41 C8.71 41 4.42 41 0 41 C0 27.47 0 13.94 0 0 Z " fill="#646A6C" transform="translate(13,6)"/>
<path d="M0 0 C3.3 0 6.6 0 10 0 C10 13.53 10 27.06 10 41 C6.7 41 3.4 41 0 41 C0 27.47 0 13.94 0 0 Z " fill="#4B403C" transform="translate(28,6)"/>
<path d="M0 0 C2.97 0 5.94 0 9 0 C9 13.53 9 27.06 9 41 C6.03 41 3.06 41 0 41 C0 27.47 0 13.94 0 0 Z " fill="#534B4F" transform="translate(108,6)"/>
<path d="M0 0 C2.97 0 5.94 0 9 0 C9 13.53 9 27.06 9 41 C6.03 41 3.06 41 0 41 C0 27.47 0 13.94 0 0 Z " fill="#6B6364" transform="translate(95,6)"/>
<path d="M0 0 C1.98 0 3.96 0 6 0 C6 13.53 6 27.06 6 41 C4.02 41 2.04 41 0 41 C0 27.47 0 13.94 0 0 Z " fill="#3B3135" transform="translate(131,6)"/>
<path d="M0 0 C1.98 0 3.96 0 6 0 C6 13.53 6 27.06 6 41 C4.02 41 2.04 41 0 41 C0 27.47 0 13.94 0 0 Z " fill="#5D555A" transform="translate(80,6)"/>
<path d="M0 0 C1.98 0 3.96 0 6 0 C6 13.53 6 27.06 6 41 C4.02 41 2.04 41 0 41 C0 27.47 0 13.94 0 0 Z " fill="#5D5558" transform="translate(54,6)"/>
<path d="M0 0 C1.98 0 3.96 0 6 0 C6 13.53 6 27.06 6 41 C4.02 41 2.04 41 0 41 C0 27.47 0 13.94 0 0 Z " fill="#313143" transform="translate(41,6)"/>
<path d="M0 0 C1.98 0 3.96 0 6 0 C6 13.53 6 27.06 6 41 C4.02 41 2.04 41 0 41 C0 27.47 0 13.94 0 0 Z " fill="#3B3135" transform="translate(13,6)"/>
<path d="M0 0 C1.32 0 2.64 0 4 0 C4 13.53 4 27.06 4 41 C2.68 41 1.36 41 0 41 C0 27.47 0 13.94 0 0 Z " fill="#544140" transform="translate(121,6)"/>
<path d="M0 0 C1.32 0 2.64 0 4 0 C4 13.53 4 27.06 4 41 C2.68 41 1.36 41 0 41 C0 27.47 0 13.94 0 0 Z " fill="#3A485B" transform="translate(74,6)"/>
<path d="M0 0 C1.32 0 2.64 0 4 0 C4 13.53 4 27.06 4 41 C2.68 41 1.36 41 0 41 C0 27.47 0 13.94 0 0 Z " fill="#414051" transform="translate(69,6)"/>
<path d="M0 0 C0.99 0 1.98 0 3 0 C3 13.53 3 27.06 3 41 C2.01 41 1.02 41 0 41 C0 27.47 0 13.94 0 0 Z " fill="#343137" transform="translate(90,6)"/>
<path d="M0 0 C0.99 0 1.98 0 3 0 C3 13.53 3 27.06 3 41 C2.01 41 1.02 41 0 41 C0 27.47 0 13.94 0 0 Z " fill="#363034" transform="translate(49,6)"/>
<path d="M0 0 C0.99 0 1.98 0 3 0 C3 13.53 3 27.06 3 41 C2.01 41 1.02 41 0 41 C0 27.47 0 13.94 0 0 Z " fill="#78808C" transform="translate(41,6)"/>
<path d="M0 0 C0.99 0 1.98 0 3 0 C3 13.53 3 27.06 3 41 C2.01 41 1.02 41 0 41 C0 27.47 0 13.94 0 0 Z " fill="#78808C" transform="translate(28,6)"/>
<path d="M0 0 C2.0625 0.4375 2.0625 0.4375 4 1 C4 2.65 4 4.3 4 6 C2.35 6 0.7 6 -1 6 C-1.042721 4.33388095 -1.04063832 2.66617115 -1 1 C-0.67 0.67 -0.34 0.34 0 0 Z " fill="#7D797C" transform="translate(118,48)"/>
<path d="M0 0 C2.0625 0.4375 2.0625 0.4375 4 1 C3.67 2.65 3.34 4.3 3 6 C1.68 6 0.36 6 -1 6 C-1.042721 4.33388095 -1.04063832 2.66617115 -1 1 C-0.67 0.67 -0.34 0.34 0 0 Z " fill="#838895" transform="translate(66,48)"/>
<path d="M0 0 C1.65 0 3.3 0 5 0 C5 1.98 5 3.96 5 6 C3.35 6 1.7 6 0 6 C0.33 5.34 0.66 4.68 1 4 C0.60061233 1.90178785 0.60061233 1.90178785 0 0 Z " fill="#837F85" transform="translate(91,48)"/>
<path d="M0 0 C1.32 0 2.64 0 4 0 C4 1.98 4 3.96 4 6 C2.68 5.67 1.36 5.34 0 5 C0 3.35 0 1.7 0 0 Z " fill="#8A7E7E" transform="translate(78,48)"/>
</svg>
