<?xml version="1.0" encoding="UTF-8"?>
<svg version="1.1" xmlns="http://www.w3.org/2000/svg" width="430" height="120">
<path d="M0 0 C141.9 0 283.8 0 430 0 C430 39.6 430 79.2 430 120 C288.1 120 146.2 120 0 120 C0 80.4 0 40.8 0 0 Z " fill="#FDFDFD" transform="translate(0,0)"/>
<path d="M0 0 C4.00125 -0.0825 8.0025 -0.165 12.125 -0.25 C13.37555176 -0.28641602 14.62610352 -0.32283203 15.91455078 -0.36035156 C26.36355608 -0.46472378 26.36355608 -0.46472378 31 4 C33.90242752 8.1811782 33.77686102 13.10894645 33 18 C30.18063646 21.86655572 27.48497351 23.54367239 23 25 C19.88671875 25.1953125 19.88671875 25.1953125 16.6875 25.125 C14.810625 25.08375 12.93375 25.0425 11 25 C11 28.96 11 32.92 11 37 C7.37 37 3.74 37 0 37 C0 24.79 0 12.58 0 0 Z " fill="#2D292A" transform="translate(276,35)"/>
<path d="M0 0 C3.3 0 6.6 0 10 0 C10 12.21 10 24.42 10 37 C7.03 37 4.06 37 1 37 C0.67 36.34 0.34 35.68 0 35 C-0.515625 35.495 -1.03125 35.99 -1.5625 36.5 C-5.0731616 38.66040714 -6.92654096 38.67890984 -11 38 C-14.53575446 35.69735564 -18.23664482 33.11715083 -19.70703125 29.0390625 C-20.47350068 23.70443526 -20.78008859 19.50445657 -18.25 14.625 C-13.54929577 9.14084507 -13.54929577 9.14084507 -8.5625 8.6875 C-5 9 -5 9 0 11 C0 7.37 0 3.74 0 0 Z " fill="#2B2728" transform="translate(366,35)"/>
<path d="M0 0 C2.97 0 5.94 0 9 0 C9 12.21 9 24.42 9 37 C6.03 37 3.06 37 0 37 C0 36.34 0 35.68 0 35 C-0.680625 35.495 -1.36125 35.99 -2.0625 36.5 C-5.70247525 38.35871077 -7.95462873 38.43343264 -12 38 C-15.75799026 36.60167804 -17.39959044 34.71694394 -19.3125 31.3125 C-21.76690305 25.87489974 -21.89134586 21.43947289 -19.8125 15.75 C-17.70077024 12.54599623 -16.41341422 10.81564586 -13 9 C-9.57348231 8.87569415 -6.32727616 9.16376422 -3 10 C-2.34 10.66 -1.68 11.32 -1 12 C-0.67 8.04 -0.34 4.08 0 0 Z " fill="#EE222A" transform="translate(204,35)"/>
<path d="M0 0 C2.97 0 5.94 0 9 0 C9 12.21 9 24.42 9 37 C5 37 1 37 -3 37 C-3.99 37.495 -3.99 37.495 -5 38 C-9.85807463 38.13362091 -13.1412954 37.67980781 -17 34.625 C-20.03297341 30.6442224 -20.20619485 27.51503695 -20.3125 22.625 C-20.34988281 21.50351562 -20.38726562 20.38203125 -20.42578125 19.2265625 C-19.91277827 15.3390353 -18.70926344 13.7741261 -16 11 C-11.5533884 8.28262625 -7.92093327 9.0475613 -3 10 C-2.01 10.66 -1.02 11.32 0 12 C0 8.04 0 4.08 0 0 Z " fill="#EE212A" transform="translate(172,35)"/>
<path d="M0 0 C3.66216396 1.84080454 6.07767439 3.66291957 8.125 7.3125 C8.21484375 9.97265625 8.21484375 9.97265625 8.125 12.3125 C4.74296476 12.60801764 1.49723293 12.76004943 -1.875 12.3125 C-3.58086575 10.68597684 -5.2527546 9.02243434 -6.875 7.3125 C-10.53243868 7.3125 -12.81445475 7.49941531 -15.75 9.75 C-18.57823539 13.6781047 -18.43279991 17.62374712 -17.875 22.3125 C-16.59235902 25.50025608 -16.59235902 25.50025608 -13.875 27.3125 C-10.91736536 27.92545044 -8.97021287 27.7055429 -5.875 27.3125 C-3.70023599 25.76911909 -3.05667363 24.67584727 -1.875 22.3125 C1.425 22.3125 4.725 22.3125 8.125 22.3125 C8.05706186 25.70940706 7.91769222 28.34243742 5.7109375 31.04296875 C1.10672909 35.15024718 -3.01972784 36.98926164 -9.1875 37.6875 C-15.29851351 37.066041 -20.73057407 35.0566853 -24.8125 30.3125 C-29.16225429 23.98558467 -29.82834097 18.97854082 -28.875 11.3125 C-26.73216935 5.61054721 -23.22216419 2.21856749 -17.875 -0.6875 C-11.87071931 -2.6889269 -5.8510862 -2.40243274 0 0 Z " fill="#2A2627" transform="translate(50.875,35.6875)"/>
<path d="M0 0 C3.38189122 1.33011621 4.76042459 2.35548063 6.8046875 5.421875 C7.03173828 7.78198242 7.03173828 7.78198242 7 10.52734375 C6.99355469 11.51025391 6.98710937 12.49316406 6.98046875 13.50585938 C6.96371094 14.53001953 6.94695312 15.55417969 6.9296875 16.609375 C6.92066406 17.64513672 6.91164062 18.68089844 6.90234375 19.74804688 C6.8787661 22.30622185 6.8458578 24.86393248 6.8046875 27.421875 C3.8346875 27.421875 0.8646875 27.421875 -2.1953125 27.421875 C-2.1953125 26.761875 -2.1953125 26.101875 -2.1953125 25.421875 C-3.0409375 25.916875 -3.8865625 26.411875 -4.7578125 26.921875 C-8.63825701 28.61515988 -11.00431514 28.87907471 -15.1953125 28.421875 C-19.7953125 26.221875 -19.7953125 26.221875 -21.1953125 23.421875 C-21.53454483 20.41724578 -21.76445619 18.31933378 -21.1953125 15.421875 C-16.44380269 10.40639242 -9.79131543 10.23303394 -3.1953125 9.421875 C-3.5253125 8.431875 -3.8553125 7.441875 -4.1953125 6.421875 C-6.1753125 6.421875 -8.1553125 6.421875 -10.1953125 6.421875 C-10.5253125 7.081875 -10.8553125 7.741875 -11.1953125 8.421875 C-14.1653125 8.421875 -17.1353125 8.421875 -20.1953125 8.421875 C-19.99801928 4.87059705 -19.40350232 3.62458614 -16.8203125 1.109375 C-11.33018487 -1.44637407 -5.86269864 -1.54391352 0 0 Z " fill="#EE2730" transform="translate(143.1953125,44.578125)"/>
<path d="M0 0 C0.85722656 -0.04769531 1.71445313 -0.09539063 2.59765625 -0.14453125 C3.80421875 -0.21800781 3.80421875 -0.21800781 5.03515625 -0.29296875 C8.88453422 0.49333712 11.44795882 1.98092612 13.59765625 5.23046875 C14.47076111 9.16767744 14.48248156 13.02196021 14.47265625 17.04296875 C14.49328125 18.11740234 14.51390625 19.19183594 14.53515625 20.29882812 C14.58217236 22.94348429 14.60210535 25.58548085 14.59765625 28.23046875 C10.26432292 28.23046875 5.93098958 28.23046875 1.59765625 28.23046875 C0.60765625 28.56046875 -0.38234375 28.89046875 -1.40234375 29.23046875 C-5.60222193 29.61934636 -7.69841613 29.68955198 -11.27734375 27.35546875 C-13.81645393 24.81635857 -14.32753705 23.91869036 -14.71484375 20.35546875 C-14.40234375 17.23046875 -14.40234375 17.23046875 -12.8359375 15.14453125 C-9.69511032 12.67421774 -7.0634706 12.2047515 -3.15234375 11.48046875 C-1.25742188 11.11695313 -1.25742188 11.11695313 0.67578125 10.74609375 C1.64 10.5759375 2.60421875 10.40578125 3.59765625 10.23046875 C3.59765625 9.24046875 3.59765625 8.25046875 3.59765625 7.23046875 C0.68113451 7.06365766 0.68113451 7.06365766 -2.40234375 7.23046875 C-3.06234375 7.89046875 -3.72234375 8.55046875 -4.40234375 9.23046875 C-7.0907376 9.50038781 -9.69376311 9.31784232 -12.40234375 9.23046875 C-12.049497 6.61940279 -11.70641037 4.67856693 -10.21484375 2.48046875 C-7.0438563 0.29358085 -3.74688147 0.35945692 0 0 Z " fill="#2C2829" transform="translate(74.40234375,43.76953125)"/>
<path d="M0 0 C2.82980417 2.71270882 3.97340387 5.82593871 4.69921875 9.62890625 C4.69921875 10.94890625 4.69921875 12.26890625 4.69921875 13.62890625 C-2.23078125 13.62890625 -9.16078125 13.62890625 -16.30078125 13.62890625 C-15.31078125 15.27890625 -14.32078125 16.92890625 -13.30078125 18.62890625 C-8.95893923 18.44426259 -8.95893923 18.44426259 -5.30078125 16.62890625 C-3.78150087 16.55710661 -2.25910643 16.54498618 -0.73828125 16.56640625 C0.08800781 16.57542969 0.91429687 16.58445312 1.765625 16.59375 C2.72275391 16.61115234 2.72275391 16.61115234 3.69921875 16.62890625 C1.04858313 21.79067034 -1.85311252 23.81301667 -7.30078125 25.62890625 C-12.91953849 25.99734935 -16.45789504 25.82080853 -21.30078125 22.62890625 C-25.39421901 18.20356814 -26.66414522 14.7692637 -26.5859375 8.69140625 C-25.99524442 4.41899606 -23.3934146 1.61910522 -20.30078125 -1.18359375 C-13.58560927 -5.17072711 -6.23869315 -4.30212435 0 0 Z " fill="#2F2B2C" transform="translate(404.30078125,47.37109375)"/>
<path d="M0 0 C2.8100346 1.79363911 4.50940468 3.01880935 6 6 C6.08426094 7.6674606 6.10725143 9.33825187 6.09765625 11.0078125 C6.09443359 11.99394531 6.09121094 12.98007812 6.08789062 13.99609375 C6.07951172 15.02863281 6.07113281 16.06117187 6.0625 17.125 C6.05798828 18.16527344 6.05347656 19.20554687 6.04882812 20.27734375 C6.03701967 22.85158687 6.01908385 25.42580053 6 28 C2.7 28 -0.6 28 -4 28 C-4.495 18.595 -4.495 18.595 -5 9 C-6.98 9 -8.96 9 -11 9 C-12.51421001 10.51421001 -12.21309856 11.92472768 -12.31640625 14.03515625 C-12.35830078 14.84404297 -12.40019531 15.65292969 -12.44335938 16.48632812 C-12.48267578 17.33646484 -12.52199219 18.18660156 -12.5625 19.0625 C-12.60568359 19.91650391 -12.64886719 20.77050781 -12.69335938 21.65039062 C-12.79976702 23.76672037 -12.90041731 25.88333813 -13 28 C-16.3 28 -19.6 28 -23 28 C-23 19.09 -23 10.18 -23 1 C-18.66666667 1 -14.33333333 1 -10 1 C-6.79826746 -0.60086627 -3.47422941 -0.49917089 0 0 Z " fill="#312D2E" transform="translate(114,44)"/>
<path d="M0 0 C5.65116279 2.30232558 5.65116279 2.30232558 7 5 C7.08449628 6.7404417 7.10723024 8.48409722 7.09765625 10.2265625 C7.09443359 11.2578125 7.09121094 12.2890625 7.08789062 13.3515625 C7.07951172 14.43179688 7.07113281 15.51203125 7.0625 16.625 C7.05798828 17.71296875 7.05347656 18.8009375 7.04882812 19.921875 C7.03701776 22.61463789 7.02054778 25.30729188 7 28 C4.03 28 1.06 28 -2 28 C-2.495 18.595 -2.495 18.595 -3 9 C-5.31 9 -7.62 9 -10 9 C-11.51421001 10.51421001 -11.21309856 11.92472768 -11.31640625 14.03515625 C-11.35830078 14.84404297 -11.40019531 15.65292969 -11.44335938 16.48632812 C-11.48267578 17.33646484 -11.52199219 18.18660156 -11.5625 19.0625 C-11.60568359 19.91650391 -11.64886719 20.77050781 -11.69335938 21.65039062 C-11.79976702 23.76672037 -11.90041731 25.88333813 -12 28 C-14.97 28 -17.94 28 -21 28 C-21 19.09 -21 10.18 -21 1 C-18.03 1 -15.06 1 -12 1 C-11.67 1.66 -11.34 2.32 -11 3 C-10.484375 2.505 -9.96875 2.01 -9.4375 1.5 C-6.07415744 -0.56974927 -3.89722593 -0.4031613 0 0 Z " fill="#272324" transform="translate(251,44)"/>
<path d="M0 0 C2.97 0 5.94 0 9 0 C9.33 0.99 9.66 1.98 10 3 C10.350625 2.505 10.70125 2.01 11.0625 1.5 C13.94374289 -0.73063966 16.47009026 -0.19980621 20 0 C20 2.31 20 4.62 20 7 C17.98177083 7.42317708 15.96354167 7.84635417 13.9453125 8.26953125 C11.62953451 8.92308838 11.62953451 8.92308838 10 12 C9.70008931 14.58885171 9.49134775 17.09149082 9.375 19.6875 C9.31699219 20.7403418 9.31699219 20.7403418 9.2578125 21.81445312 C9.1637666 23.54254655 9.0808032 25.27123675 9 27 C6.03 27 3.06 27 0 27 C0 18.09 0 9.18 0 0 Z " fill="#282425" transform="translate(311,45)"/>
<path d="M0 0 C3.63 0 7.26 0 11 0 C11 8.91 11 17.82 11 27 C7.37 27 3.74 27 0 27 C0 18.09 0 9.18 0 0 Z " fill="#363233" transform="translate(334,45)"/>
<path d="M0 0 C30.69 0 61.38 0 93 0 C93 0.99 93 1.98 93 3 C62.31 3 31.62 3 0 3 C0 2.01 0 1.02 0 0 Z " fill="#4A4748" transform="translate(25,86)"/>
<path d="M0 0 C30.36 0 60.72 0 92 0 C92 0.99 92 1.98 92 3 C61.64 3 31.28 3 0 3 C0 2.01 0 1.02 0 0 Z " fill="#494647" transform="translate(314,86)"/>
<path d="M0 0 C2.97 0 5.94 0 9 0 C9 8.91 9 17.82 9 27 C6.03 27 3.06 27 0 27 C0 18.09 0 9.18 0 0 Z " fill="#242021" transform="translate(217,45)"/>
<path d="M0 0 C0.66 0 1.32 0 2 0 C2 3.96 2 7.92 2 12 C-4.27 12 -10.54 12 -17 12 C-16.67 10.35 -16.34 8.7 -16 7 C-13.9375 5.6875 -13.9375 5.6875 -12 5 C-13.65 5.33 -15.3 5.66 -17 6 C-17 5.34 -17 4.68 -17 4 C-13.535 3.505 -13.535 3.505 -10 3 C-9.01 4.485 -9.01 4.485 -8 6 C-7.5875 5.505 -7.175 5.01 -6.75 4.5 C-5 3 -5 3 -1 3 C-0.67 2.01 -0.34 1.02 0 0 Z " fill="#595657" transform="translate(275,81)"/>
<path d="M0 0 C2 1.25 2 1.25 4 3 C4 4.32 4 5.64 4 7 C4.66 6.67 5.32 6.34 6 6 C6 6.66 6 7.32 6 8 C6.66 8 7.32 8 8 8 C8.33 9.32 8.66 10.64 9 12 C8.34 12.474375 7.68 12.94875 7 13.4375 C6.01 14.2109375 6.01 14.2109375 5 15 C5 15.33 5 15.66 5 16 C2.03 16 -0.94 16 -4 16 C-4 15.01 -4 14.02 -4 13 C-5.32 12.67 -6.64 12.34 -8 12 C-8 10.68 -8 9.36 -8 8 C-7.01 8 -6.02 8 -5 8 C-4.34 6.35 -3.68 4.7 -3 3 C-2.34 3 -1.68 3 -1 3 C-0.67 2.01 -0.34 1.02 0 0 Z " fill="#EE2B34" transform="translate(339,25)"/>
<path d="M0 0 C1.8125 1 1.8125 1 3 3 C3.39487671 7.14620548 3.59376995 9.749958 1.8125 13.5 C0 15 0 15 -2.5 15.5 C-5 15 -5 15 -6.8125 13.5 C-8.59376995 9.749958 -8.39487671 7.14620548 -8 3 C-5.99552859 -0.37595184 -3.7543224 -0.56314836 0 0 Z " fill="#FDF2F3" transform="translate(201,51)"/>
<path d="M0 0 C1.8125 1.0625 1.8125 1.0625 3 3 C3.42553097 6.82977877 3.25968845 9.35761277 1.8125 12.9375 C0 15 0 15 -2.5 15.5625 C-5 15 -5 15 -6.8125 13.5 C-8.59376995 9.749958 -8.39487671 7.14620548 -8 3 C-5.99552859 -0.37595184 -3.7543224 -0.56314836 0 0 Z " fill="#F3F3F3" transform="translate(364,51)"/>
<path d="M0 0 C1.8125 1 1.8125 1 3 3 C3.39487671 7.14620548 3.59376995 9.749958 1.8125 13.5 C0 15 0 15 -2.5 15.5 C-5 15 -5 15 -6.8125 13.5 C-8.59376995 9.749958 -8.39487671 7.14620548 -8 3 C-5.99552859 -0.37595184 -3.7543224 -0.56314836 0 0 Z " fill="#FDF4F4" transform="translate(169,51)"/>
<path d="M0 0 C1.98 0 3.96 0 6 0 C6.66 1.32 7.32 2.64 8 4 C3.87487317 5.92505919 -0.2422046 6.67952419 -4.6953125 7.4375 C-7.25480466 7.92316127 -7.25480466 7.92316127 -10 10 C-10.80336113 12.87759068 -10.80336113 12.87759068 -11.1875 16.125 C-11.34605469 17.22070312 -11.50460938 18.31640625 -11.66796875 19.4453125 C-11.83232422 20.70988281 -11.83232422 20.70988281 -12 22 C-12.33 22 -12.66 22 -13 22 C-13 15.4 -13 8.8 -13 2 C-12.01 1.67 -11.02 1.34 -10 1 C-10 1.66 -10 2.32 -10 3 C-7.03 3 -4.06 3 -1 3 C-0.67 2.01 -0.34 1.02 0 0 Z " fill="#FAF1F1" transform="translate(133,50)"/>
<path d="M0 0 C1.62463842 -0.05395478 3.24978541 -0.09277195 4.875 -0.125 C5.77992188 -0.14820313 6.68484375 -0.17140625 7.6171875 -0.1953125 C10 0 10 0 12 2 C11.75 5.0625 11.75 5.0625 11 8 C7.57067929 9.71466036 3.78283935 9.05404056 0 9 C0 6.03 0 3.06 0 0 Z " fill="#F9F9F9" transform="translate(287,43)"/>
<path d="M0 0 C1.670625 0.061875 1.670625 0.061875 3.375 0.125 C3.45586147 1.91593191 3.51412702 3.70789628 3.5625 5.5 C3.59730469 6.49773437 3.63210937 7.49546875 3.66796875 8.5234375 C3.57128906 9.38195312 3.47460938 10.24046875 3.375 11.125 C0.375 13.125 0.375 13.125 -2.25 12.875 C-3.03375 12.6275 -3.8175 12.38 -4.625 12.125 C-4.955 11.465 -5.285 10.805 -5.625 10.125 C-2.655 10.62 -2.655 10.62 0.375 11.125 C0.375 10.465 0.375 9.805 0.375 9.125 C-0.429375 8.980625 -1.23375 8.83625 -2.0625 8.6875 C-4.625 8.125 -4.625 8.125 -5.625 7.125 C-5.8125 4.6875 -5.8125 4.6875 -5.625 2.125 C-3.625 0.125 -3.625 0.125 0 0 Z " fill="#5C595A" transform="translate(191.625,83.875)"/>
<path d="M0 0 C0.66 0 1.32 0 2 0 C2.33 0.66 2.66 1.32 3 2 C3.66 1.34 4.32 0.68 5 0 C7.5625 -0.1875 7.5625 -0.1875 10 0 C12.04698414 2.04698414 11.70045693 6.30411241 12 9 C8 9 4 9 0 9 C0 6.03 0 3.06 0 0 Z " fill="#696667" transform="translate(279,84)"/>
<path d="M0 0 C4.29 0 8.58 0 13 0 C13.33 0.99 13.66 1.98 14 3 C15.65 3.33 17.3 3.66 19 4 C19 6.64 19 9.28 19 12 C18.67 12 18.34 12 18 12 C18 9.69 18 7.38 18 5 C16.35 5 14.7 5 13 5 C13 7.31 13 9.62 13 12 C12.34 12 11.68 12 11 12 C11 8.37 11 4.74 11 1 C9.35 1 7.7 1 6 1 C6 4.63 6 8.26 6 12 C5.34 12 4.68 12 4 12 C4 8.37 4 4.74 4 1 C2.68 0.67 1.36 0.34 0 0 Z " fill="#575555" transform="translate(128,81)"/>
<path d="M0 0 C0.04241723 2.33294775 0.04092937 4.66702567 0 7 C-1 8 -1 8 -3.9375 8.1875 C-7 8 -7 8 -9 6 C-8.75 2.9375 -8.75 2.9375 -8 0 C-5.13822943 -1.43088528 -3.06624227 -0.59991697 0 0 Z " fill="#545152" transform="translate(174,85)"/>
<path d="M0 0 C3.3 0 6.6 0 10 0 C10 2.31 10 4.62 10 7 C6.7 7 3.4 7 0 7 C0 4.69 0 2.38 0 0 Z " fill="#3A3737" transform="translate(216,35)"/>
<path d="M0 0 C2.5625 0.1875 2.5625 0.1875 4.5625 2.1875 C4.8125 4.6875 4.8125 4.6875 4.5625 7.1875 C2.5625 9.1875 2.5625 9.1875 0.0625 9.5 C-1.175 9.3453125 -1.175 9.3453125 -2.4375 9.1875 C-4.4375 6.1875 -4.4375 6.1875 -4.125 3.5625 C-3.16420807 0.24340062 -3.16420807 0.24340062 0 0 Z " fill="#524F4F" transform="translate(153.4375,83.8125)"/>
<path d="M0 0 C2.04698414 2.04698414 1.70045693 6.30411241 2 9 C-0.97 9 -3.94 9 -7 9 C-6.75 6.625 -6.75 6.625 -6 4 C-3.9375 2.6875 -3.9375 2.6875 -2 2 C-3.65 2.33 -5.3 2.66 -7 3 C-7 2.34 -7 1.68 -7 1 C-4.51588385 -0.24205807 -2.74800896 -0.14092354 0 0 Z " fill="#545152" transform="translate(265,84)"/>
<path d="M0 0 C0.33 0.99 0.66 1.98 1 3 C6.58500567 2.80101292 6.58500567 2.80101292 11 0 C14.125 -0.125 14.125 -0.125 17 0 C17.33 1.32 17.66 2.64 18 4 C14.5980513 6.09350689 11.94727588 6.17942163 8 6 C8 5.67 8 5.34 8 5 C5.36 4.67 2.72 4.34 0 4 C0 2.68 0 1.36 0 0 Z " fill="#DCDCDC" transform="translate(61,50)"/>
<path d="M0 0 C1.98 0 3.96 0 6 0 C6.66 1.32 7.32 2.64 8 4 C4.17010894 5.80230168 1.21878192 6.19622241 -3 6 C-3 5.34 -3 4.68 -3 4 C-5.31 4 -7.62 4 -10 4 C-10 3.67 -10 3.34 -10 3 C-7.03 3 -4.06 3 -1 3 C-0.67 2.01 -0.34 1.02 0 0 Z " fill="#FCE0E1" transform="translate(133,50)"/>
<path d="M0 0 C2.5625 0.3125 2.5625 0.3125 4.375 1.625 C5.5625 3.3125 5.5625 3.3125 5.5625 6.3125 C1.6025 6.3125 -2.3575 6.3125 -6.4375 6.3125 C-3.50599315 0.4494863 -3.50599315 0.4494863 0 0 Z " fill="#DDDCDC" transform="translate(393.4375,49.6875)"/>
<path d="M0 0 C1.66611905 -0.042721 3.33382885 -0.04063832 5 0 C7.04698414 2.04698414 6.70045693 6.30411241 7 9 C4.36 9 1.72 9 -1 9 C-1.33 7.68 -1.66 6.36 -2 5 C-0.35 4.34 1.3 3.68 3 3 C2.01 3 1.02 3 0 3 C0 2.01 0 1.02 0 0 Z " fill="#817F80" transform="translate(240,84)"/>
<path d="M0 0 C-0.875 5.875 -0.875 5.875 -2 7 C-3.99958364 7.04080783 -6.00045254 7.04254356 -8 7 C-8.33 5.35 -8.66 3.7 -9 2 C-5.5647952 -0.29013653 -4.014669 -0.17842973 0 0 Z " fill="#EEEDED" transform="translate(79,60)"/>
<path d="M0 0 C0.33 0.99 0.66 1.98 1 3 C-0.134375 2.814375 -1.26875 2.62875 -2.4375 2.4375 C-3.613125 2.293125 -4.78875 2.14875 -6 2 C-7.35618499 3.12534105 -7.35618499 3.12534105 -7.0625 6.0625 C-7.041875 7.031875 -7.02125 8.00125 -7 9 C-5.35 9.33 -3.7 9.66 -2 10 C-1.67 9.34 -1.34 8.68 -1 8 C-0.34 8 0.32 8 1 8 C0.34 9.32 -0.32 10.64 -1 12 C-4.375 12.1875 -4.375 12.1875 -8 12 C-10.46943529 8.29584707 -10.46913089 6.37855495 -10 2 C-6.98160349 -1.71494955 -4.37763951 -1.09440988 0 0 Z " fill="#605D5E" transform="translate(235,81)"/>
<path d="M0 0 C0.125 2.375 0.125 2.375 0 5 C-2 7 -2 7 -5.125 7.125 C-6.548125 7.063125 -6.548125 7.063125 -8 7 C-8.33 5.35 -8.66 3.7 -9 2 C-5.86501708 0.14223235 -3.62528568 -0.20140476 0 0 Z " fill="#FDEEEE" transform="translate(140,60)"/>
<path d="M0 0 C0.66 0 1.32 0 2 0 C2 0.99 2 1.98 2 3 C2.804375 2.979375 3.60875 2.95875 4.4375 2.9375 C7 3 7 3 8 4 C8.14115161 6.67058851 8.04247107 9.32432238 8 12 C7.34 12 6.68 12 6 12 C6 9.69 6 7.38 6 5 C4.68 5 3.36 5 2 5 C2 7.31 2 9.62 2 12 C1.34 12 0.68 12 0 12 C0 8.04 0 4.08 0 0 Z " fill="#5E5B5B" transform="translate(197,81)"/>
<path d="M0 0 C0.33 0 0.66 0 1 0 C1.02505615 0.55872803 1.0501123 1.11745605 1.07592773 1.69311523 C1.19343105 4.27472428 1.3154438 6.85610236 1.4375 9.4375 C1.47681641 10.31599609 1.51613281 11.19449219 1.55664062 12.09960938 C1.76577545 16.45926618 2.06281492 20.76484051 2.59765625 25.09765625 C2.73042969 26.38542969 2.86320312 27.67320313 3 29 C2.67 29.33 2.34 29.66 2 30 C1.63239269 32.32817964 1.29758419 34.6618385 1 37 C0.67 37 0.34 37 0 37 C0 24.79 0 12.58 0 0 Z " fill="#ECECEC" transform="translate(376,35)"/>
<path d="M0 0 C2.33294775 -0.04241723 4.66702567 -0.04092937 7 0 C8 1 8 1 8.09765625 2.84765625 C8.04882812 5.92382812 8.04882812 5.92382812 8 9 C7.34 9 6.68 9 6 9 C6 6.69 6 4.38 6 2 C4.68 2 3.36 2 2 2 C2 4.31 2 6.62 2 9 C1.34 9 0.68 9 0 9 C0 6.03 0 3.06 0 0 Z " fill="#605E5E" transform="translate(248,84)"/>
<path d="M0 0 C3 1 3 1 5 4 C5.66 2.68 6.32 1.36 7 0 C7.66 0 8.32 0 9 0 C7.7792482 5.08646583 6.28080442 8.79646933 3 13 C2.34 13 1.68 13 1 13 C1 12.34 1 11.68 1 11 C1.66 11 2.32 11 3 11 C2.01 7.37 1.02 3.74 0 0 Z " fill="#615F5F" transform="translate(210,84)"/>
<path d="M0 0 C0.66 0 1.32 0 2 0 C2.66 0.66 3.32 1.32 4 2 C6.60280568 1.67958603 6.60280568 1.67958603 9 1 C9 1.99 9 2.98 9 4 C8.38125 4.103125 7.7625 4.20625 7.125 4.3125 C4.63473516 4.87525373 4.63473516 4.87525373 3 8 C2.01 8.33 1.02 8.66 0 9 C0 6.03 0 3.06 0 0 Z " fill="#A3A2A2" transform="translate(279,84)"/>
<path d="M0 0 C0.66 0 1.32 0 2 0 C2 2.64 2 5.28 2 8 C4.04836882 7.43637698 4.04836882 7.43637698 6 6 C6.81584568 2.94091587 6.81584568 2.94091587 7 0 C7.33 0 7.66 0 8 0 C8 2.97 8 5.94 8 9 C5.66705225 9.04241723 3.33297433 9.04092937 1 9 C0 8 0 8 -0.09765625 6.15234375 C-0.06510417 4.1015625 -0.03255208 2.05078125 0 0 Z " fill="#4D4A4A" transform="translate(176,84)"/>
<path d="M0 0 C1.67542976 0.28604898 3.34385343 0.61781233 5 1 C4.67 2.32 4.34 3.64 4 5 C2.68 5.33 1.36 5.66 0 6 C-0.38218767 4.34385343 -0.71395102 2.67542976 -1 1 C-0.67 0.67 -0.34 0.34 0 0 Z " fill="#E5E5E5" transform="translate(168,86)"/>
<path d="M0 0 C1.32 0 2.64 0 4 0 C4 1.65 4 3.3 4 5 C2.68 5.33 1.36 5.66 0 6 C-0.38218767 4.34385343 -0.71395102 2.67542976 -1 1 C-0.67 0.67 -0.34 0.34 0 0 Z " fill="#EFEEEE" transform="translate(152,86)"/>
<path d="M0 0 C1.65 0 3.3 0 5 0 C4.67 1.65 4.34 3.3 4 5 C2.68 5 1.36 5 0 5 C0 3.35 0 1.7 0 0 Z " fill="#EBEBEB" transform="translate(188,86)"/>
<path d="M0 0 C0.33 1.32 0.66 2.64 1 4 C-0.98 4.66 -2.96 5.32 -5 6 C-4.67 4.35 -4.34 2.7 -4 1 C-2.68 0.67 -1.36 0.34 0 0 Z " fill="#929090" transform="translate(263,87)"/>
<path d="M0 0 C0.28875 0.61875 0.5775 1.2375 0.875 1.875 C1.93720042 4.13325765 1.93720042 4.13325765 4 6 C5.32 6 6.64 6 8 6 C8.33 5.34 8.66 4.68 9 4 C9.66 4 10.32 4 11 4 C10.34 5.32 9.68 6.64 9 8 C5.625 8.1875 5.625 8.1875 2 8 C-0.1519437 4.77208445 -0.20086443 3.71599191 0 0 Z " fill="#423F3F" transform="translate(225,85)"/>
<path d="M0 0 C2.475 0.495 2.475 0.495 5 1 C5 2.32 5 3.64 5 5 C3.35 5 1.7 5 0 5 C0 3.35 0 1.7 0 0 Z " fill="#F2F2F2" transform="translate(270,86)"/>
<path d="M0 0 C0.33 0 0.66 0 1 0 C1.33 2.64 1.66 5.28 2 8 C-0.64 8 -3.28 8 -6 8 C-6 7.01 -6 6.02 -6 5 C-4.02 5.495 -4.02 5.495 -2 6 C-1.34 4.02 -0.68 2.04 0 0 Z " fill="#4D4B4B" transform="translate(245,85)"/>
<path d="M0 0 C0 0.66 0 1.32 0 2 C-0.99 2.495 -0.99 2.495 -2 3 C-2.65772428 6.02934491 -2.65772428 6.02934491 -3 9 C-3.66 9 -4.32 9 -5 9 C-5 6.36 -5 3.72 -5 1 C-2 0 -2 0 0 0 Z " fill="#5C5A5A" transform="translate(165,84)"/>
<path d="M0 0 C0.33 0 0.66 0 1 0 C1.38063221 2.3260857 1.71269945 4.66055264 2 7 C1.67 7.33 1.34 7.66 1 8 C0.63239269 10.32817964 0.29758419 12.6618385 0 15 C-0.33 15 -0.66 15 -1 15 C-1.02703381 13.06257659 -1.04641125 11.12504521 -1.0625 9.1875 C-1.07410156 8.10855469 -1.08570313 7.02960938 -1.09765625 5.91796875 C-1 3 -1 3 0 0 Z " fill="#E6E6E6" transform="translate(377,57)"/>
<path d="M0 0 C0.99 0 1.98 0 3 0 C3 1.32 3 2.64 3 4 C4.32 4.33 5.64 4.66 7 5 C4.6875 5.625 4.6875 5.625 2 6 C1.01 5.34 0.02 4.68 -1 4 C-0.67 2.68 -0.34 1.36 0 0 Z " fill="#A2A1A1" transform="translate(267,87)"/>
</svg>
