<?xml version="1.0" encoding="UTF-8"?>
<svg version="1.1" xmlns="http://www.w3.org/2000/svg" width="512" height="512">
<path d="M0 0 C1.89902674 0.28800543 3.79811718 0.57559117 5.69726562 0.86279297 C10.82729884 1.63979385 15.95642771 2.4226199 21.08541012 3.20652294 C26.49597275 4.03241704 31.90736358 4.85284923 37.31866455 5.67388916 C47.58908739 7.23302363 57.85877 8.79697879 68.12819028 10.36270165 C79.68884618 12.12506576 91.25029257 13.88221521 102.81182241 15.63883543 C115.94602118 17.63444813 129.08018588 19.63028608 142.21370339 21.63037801 C144.24480858 21.93968874 146.27592791 22.24890653 148.30706191 22.55802798 C153.15376075 23.29580871 158.00020071 24.0352063 162.84608078 24.77834702 C170.67052287 25.97662127 178.49485995 27.16853773 186.33217025 28.28006625 C189.39070747 28.71393584 192.44806202 29.15584886 195.50542688 29.59789324 C197.53839333 29.88776335 199.57285847 30.16423627 201.60776901 30.44005966 C213.06453984 32.09889583 224.007465 35.07012804 231.62988281 44.35253906 C237.72439767 53.00851668 238.16215313 60.49511268 238.09912109 70.84838867 C238.09941315 72.10762146 238.0997052 73.36685425 238.1000061 74.66424561 C238.10057755 78.0997298 238.0888572 81.53507299 238.07485819 84.97052455 C238.06231593 88.56730218 238.06117758 92.16408339 238.05880737 95.76087952 C238.05260285 102.56408473 238.036206 109.3672253 238.01610839 116.17040211 C237.99371734 123.91889641 237.98274791 131.66739388 237.97271752 139.41591251 C237.95183881 155.3479504 237.91668291 171.27992388 237.87207031 187.21191406 C238.51615656 187.2556868 239.16024281 187.29945953 239.82384682 187.34455872 C247.27987366 187.92759284 254.47653018 189.16915365 261.79931641 190.66113281 C263.04537155 190.91016861 264.2914267 191.15920441 265.57524109 191.41578674 C268.97318354 192.09503308 272.36965957 192.7813632 275.76591063 193.4690094 C279.37813643 194.19906241 282.99170974 194.92238635 286.60513306 195.64648438 C293.48654021 197.0264912 300.3667545 198.41235195 307.24654639 199.80038643 C316.40333161 201.64750407 325.56183124 203.48607792 334.72033167 205.32466888 C342.85879467 206.95855407 350.99672658 208.59496699 359.13299561 210.23974609 C361.99485898 210.81797975 364.85677781 211.39593797 367.71875 211.97363281 C368.41310953 212.11380074 369.10746905 212.25396866 369.82286978 212.39838409 C379.17591625 214.28480531 388.53737743 216.12265791 397.90820312 217.91894531 C401.01221641 218.51920129 404.11605008 219.12037753 407.21983719 219.72180176 C409.99055059 220.25366665 412.76386789 220.76979508 415.53768921 221.28515625 C427.3573878 223.54023237 438.15600966 226.2179738 445.87207031 236.21191406 C449.92668706 242.92428264 451.02085315 248.56495219 451.01924133 256.38893127 C451.02291802 257.33999014 451.02659471 258.29104901 451.03038281 259.27092785 C451.0414351 262.47204649 451.04526614 265.67313269 451.04907227 268.87426758 C451.05533583 271.16387536 451.06198253 273.45348213 451.06898499 275.74308777 C451.08640647 281.97478424 451.09695025 288.20647304 451.10519052 294.43818784 C451.11033907 298.33137664 451.11641492 302.22456305 451.12270164 306.11775017 C451.13957393 316.90170464 451.1542078 327.6856554 451.16145039 338.4696207 C451.16336022 341.26791447 451.16528055 344.06620822 451.16723633 346.86450195 C451.16772007 347.5599862 451.16820381 348.25547045 451.16870221 348.97202998 C451.17699642 360.22982366 451.20232241 371.48751087 451.23481701 382.7452581 C451.26792464 394.30995524 451.28557008 405.87458235 451.28909463 417.43932861 C451.29144501 423.92977789 451.30040397 430.42005897 451.3255558 436.91046333 C451.34884706 443.01965073 451.35306527 449.12855932 451.34279442 455.23777962 C451.34229918 457.4766584 451.34861589 459.71555095 451.36235046 461.95438766 C451.38009221 465.01859439 451.37295142 468.08180308 451.3598175 471.14601135 C451.37627137 472.46497204 451.37627137 472.46497204 451.39305764 473.81057841 C451.30374466 482.4825598 448.54567511 490.28802913 442.57519531 496.68066406 C435.59803383 502.95370833 428.26883967 505.52215819 418.9152565 505.46918297 C418.12792401 505.47268904 417.34059152 505.47619512 416.52940047 505.47980744 C413.88706329 505.48912279 411.24494645 505.48419777 408.6026001 505.4793396 C406.6906395 505.48307579 404.77868042 505.48767719 402.86672378 505.49307024 C397.60923828 505.50531953 392.35181633 505.5050375 387.09431982 505.50268149 C381.42545939 505.50227381 375.75661946 505.51330782 370.08776855 505.52279663 C358.97994152 505.53941826 347.87213571 505.54490671 336.76429728 505.54602139 C327.73610874 505.54697133 318.70792722 505.55107891 309.67974091 505.55742264 C288.25420706 505.57217131 266.82868014 505.58447202 245.40314102 505.58342552 C244.3753427 505.58337879 244.3753427 505.58337879 243.32678078 505.58333111 C239.8539265 505.58316489 236.38107222 505.58296681 232.90821794 505.58276169 C232.21849994 505.5827218 231.52878195 505.58268191 230.81816341 505.58264081 C229.42338523 505.58255994 228.02860704 505.58247634 226.63382886 505.58239003 C204.9355466 505.58116464 183.23732687 505.59617537 161.5390625 505.62353516 C137.15944013 505.65426327 112.77986926 505.67144187 88.40022445 505.66960871 C75.49241659 505.66894443 62.58467923 505.67445348 49.67688751 505.69596481 C38.68696762 505.71416238 27.69715019 505.71853562 16.70722178 505.70494597 C11.09993167 505.69840914 5.4928382 505.69832511 -0.11443329 505.71565247 C-5.24914451 505.73135635 -10.38350272 505.72854679 -15.5182052 505.7110842 C-17.37418229 505.70800841 -19.23018555 505.71166845 -21.08613178 505.72280435 C-32.96204542 505.7893329 -43.46388094 505.44472846 -52.59667969 496.91503906 C-58.84890066 489.96103818 -61.43848544 482.64298651 -61.38519859 473.31756973 C-61.38870467 472.53699074 -61.39221074 471.75641174 -61.39582306 470.95217884 C-61.40513754 468.33281464 -61.40021362 465.71367276 -61.39535522 463.09429932 C-61.39909146 461.1988379 -61.40369287 459.30337803 -61.40908587 457.4079206 C-61.42133461 452.19604125 -61.42105319 446.984226 -61.41869712 441.77233553 C-61.41828943 436.15255522 -61.42932358 430.5327956 -61.43881226 424.9130249 C-61.45543359 413.90145171 -61.46092232 402.88989993 -61.46203701 391.87831524 C-61.46298697 382.92831128 -61.46709462 373.9783144 -61.47343826 365.02831268 C-61.48818689 343.78807173 -61.50048766 322.54783672 -61.49944115 301.30759048 C-61.49940999 300.62832305 -61.49937883 299.94905561 -61.49934673 299.24920431 C-61.49918052 295.80641622 -61.49898243 292.36362814 -61.49877732 288.92084005 C-61.49873742 288.23709382 -61.49869753 287.55334759 -61.49865643 286.84888177 C-61.49857556 285.46617994 -61.49849196 284.08347812 -61.49840565 282.70077629 C-61.49718027 261.19046445 -61.51219091 239.68021567 -61.53955078 218.16992188 C-61.57027931 194.00124996 -61.58745747 169.8326327 -61.58562434 145.66393638 C-61.58496007 132.86791097 -61.59046854 120.07195669 -61.61198044 107.27594757 C-61.63017853 96.3811817 -61.63455082 85.48651917 -61.62096159 74.59174469 C-61.61442502 69.03306035 -61.6143398 63.47457437 -61.63166809 57.91590881 C-61.64737313 52.8256067 -61.64456124 47.73566065 -61.62709983 42.64536735 C-61.62402429 40.80554088 -61.62768313 38.965688 -61.63881998 37.12589267 C-61.70488169 25.43682827 -61.39092896 14.80101656 -52.95214844 5.80957031 C-37.19726374 -7.98860493 -18.87937158 -2.89899528 0 0 Z M-36.19042969 21.58691406 C-39.2259326 25.69953092 -39.27164022 28.5068049 -39.25935745 33.47185993 C-39.26141009 34.2324378 -39.26346272 34.99301566 -39.26557755 35.77664134 C-39.27127908 38.35194936 -39.26978644 40.92720444 -39.26837158 43.5025177 C-39.27095341 45.35684114 -39.27396606 47.21116403 -39.27737498 49.06548613 C-39.28546961 54.18202536 -39.28723592 59.29855058 -39.28797245 64.41509545 C-39.28981873 69.92509536 -39.29736389 75.43508793 -39.30410767 80.94508362 C-39.31770887 93.00276662 -39.32371845 105.0604463 -39.32811832 117.11813569 C-39.33087766 124.64171752 -39.33511444 132.16529806 -39.3396225 139.68887901 C-39.35181737 160.50433798 -39.36215174 181.31979625 -39.36549759 202.13525867 C-39.36571922 203.48182131 -39.36594101 204.82838395 -39.36616294 206.17494659 C-39.36638358 207.5247982 -39.36660407 208.87464982 -39.36682439 210.22450143 C-39.36726695 212.93262661 -39.36771406 215.64075178 -39.36816406 218.34887695 C-39.36827345 219.0203366 -39.36838284 219.69179624 -39.36849555 220.38360315 C-39.37212707 242.16111773 -39.38805017 263.93859905 -39.41135443 285.71610089 C-39.43593689 308.730061 -39.44966295 331.74400744 -39.45086551 354.75798243 C-39.45178363 367.30741647 -39.45757026 379.85680695 -39.47568512 392.40622902 C-39.49105331 403.09078191 -39.49622602 413.77527779 -39.48794702 424.45983962 C-39.48402888 429.91455865 -39.48502662 435.36916276 -39.49900436 440.8238678 C-39.51167375 445.81347413 -39.51060744 450.80287835 -39.49841365 455.79248413 C-39.49644451 457.60138615 -39.49959071 459.41030216 -39.50825801 461.2191845 C-39.51926667 463.67118618 -39.51192265 466.12246398 -39.49986649 468.57444477 C-39.50746168 469.28269346 -39.51505687 469.99094214 -39.52288222 470.72065291 C-39.47666449 475.05151402 -38.74766057 477.74915143 -36.12792969 481.21191406 C-33.00372324 483.41896655 -30.29513658 483.45591049 -26.53320312 483.43896484 C-25.41234314 483.43881378 -24.29148315 483.43866272 -23.13665771 483.43850708 C-21.93237122 483.42818451 -20.72808472 483.41786194 -19.48730469 483.40722656 C-18.24998596 483.40439667 -17.01266724 483.40156677 -15.737854 483.39865112 C-12.45641427 483.38935607 -9.17517215 483.37140112 -5.89379883 483.34924316 C-2.54217347 483.32874455 0.80946039 483.31981131 4.16113281 483.30957031 C10.73152255 483.28751436 17.30178027 483.25403988 23.87207031 483.21191406 C23.87793655 481.9540358 23.8838028 480.69615753 23.8898468 479.40016174 C23.94714092 467.52691128 24.01993773 455.65384279 24.10778522 443.78077793 C24.15245021 437.67718904 24.19171508 431.5736663 24.21850586 425.4699707 C24.24457713 419.57596732 24.28500713 413.68221904 24.33525658 407.78837395 C24.35189934 405.54343789 24.3634297 403.29845774 24.36968422 401.0534687 C24.37935328 397.90101713 24.40744698 394.74921442 24.43969727 391.59692383 C24.43826218 390.67550598 24.43682709 389.75408813 24.43534851 388.80474854 C24.56546042 379.77012231 26.87033638 372.32036838 32.64160156 365.29394531 C40.09573025 358.33588823 49.08994112 356.10457683 58.98217773 356.05078125 C60.02719452 356.04333389 60.02719452 356.04333389 61.09332275 356.03573608 C63.38807176 356.02118549 65.68275158 356.01432331 67.97753906 356.00878906 C68.76584925 356.00596169 69.55415943 356.00313431 70.3663578 356.00022125 C74.54054726 355.98525491 78.7147024 355.97601016 82.88891602 355.97167969 C87.17800483 355.96620814 91.46677411 355.94220079 95.75576305 355.91370773 C99.07341902 355.89498126 102.39099967 355.88987039 105.70870399 355.88834381 C107.28858493 355.88533777 108.86846521 355.87737941 110.44829369 355.86415863 C122.76594278 355.76846047 133.50143531 356.32492474 142.87207031 365.21191406 C150.55965431 373.31786998 152.32179463 382.65582721 152.30444336 393.52685547 C152.31973083 394.99208145 152.31973083 394.99208145 152.33532715 396.48690796 C152.36524762 399.67915743 152.37469095 402.87110581 152.38378906 406.06347656 C152.40065128 408.29121888 152.41880358 410.51895177 152.43818665 412.74667358 C152.48552507 418.58267267 152.51543887 424.41863353 152.54162598 430.25476074 C152.57677684 437.27178139 152.63374341 444.2886553 152.68701935 451.30555725 C152.7653436 461.94099046 152.81609305 472.57623407 152.87207031 483.21191406 C173.66207031 483.21191406 194.45207031 483.21191406 215.87207031 483.21191406 C215.96244942 429.68114708 216.03408367 376.15039836 216.07633163 322.61957025 C216.08133461 316.30334618 216.08651188 309.98712227 216.09179688 303.67089844 C216.09337074 301.784686 216.09337074 301.784686 216.0949764 299.86036827 C216.11239346 279.48513961 216.14393832 259.10995599 216.1806815 238.73475407 C216.21805469 217.83627857 216.2402985 196.9378267 216.24842429 176.03931916 C216.25391958 163.13823472 216.27129149 150.23727754 216.30373618 137.33623226 C216.32483935 128.49595403 216.33127988 119.65574183 216.32607582 110.81544022 C216.32350751 105.71093789 216.32751334 100.60665833 216.34889221 95.50219536 C216.36831283 90.83129522 216.36936956 86.16076833 216.35566589 81.48985125 C216.35397144 79.79795816 216.35908364 78.10604207 216.37160304 76.41419445 C216.38761415 74.11737577 216.37903126 71.82191122 216.36426163 69.52511406 C216.36578051 68.24849431 216.36729939 66.97187456 216.3688643 65.65656936 C215.78091987 61.57989788 214.41460826 59.41193133 211.87207031 56.21191406 C208.7209233 53.99673814 205.33750316 53.65596845 201.57113647 53.08959961 C200.27268295 52.89094803 198.97422943 52.69229645 197.63642883 52.48762512 C196.19725355 52.27450312 194.75805916 52.06151009 193.31884766 51.84863281 C191.79966004 51.61884635 190.28056326 51.38845863 188.7615509 51.15751648 C184.61582941 50.52897533 180.46888117 49.90889084 176.32167768 49.29021454 C171.91419598 48.63120019 167.50790208 47.96433578 163.10147095 47.29833984 C154.67767063 46.02635488 146.25284565 44.76129366 137.82762873 43.49872971 C127.59417817 41.96487453 117.36201242 40.42252094 107.12988281 38.87988281 C96.22428609 37.23584153 85.31848172 35.5932389 74.41156006 33.95800781 C58.09937272 31.51162891 41.78918626 29.05466388 25.48776221 26.53742981 C23.13097991 26.17378569 20.77405043 25.81111335 18.41705513 25.44885254 C17.65909767 25.33235477 16.90114021 25.21585701 16.12021434 25.09582901 C14.61995325 24.86527873 13.11968482 24.63477623 11.61940873 24.40432358 C7.35690177 23.74894806 3.09548326 23.08701061 -1.16519356 22.41984653 C-4.35940138 21.92157313 -7.55506588 21.43279702 -10.75048828 20.94238281 C-11.86803875 20.76496048 -12.98558922 20.58753815 -14.13700485 20.40473938 C-25.7332791 18.08231375 -25.7332791 18.08231375 -36.19042969 21.58691406 Z M237.87207031 209.21191406 C237.87207031 299.63191406 237.87207031 390.05191406 237.87207031 483.21191406 C283.25738281 483.30472656 283.25738281 483.30472656 329.55957031 483.39941406 C339.12014404 483.42672607 348.68071777 483.45403809 358.53100586 483.48217773 C367.08646231 483.49220982 367.08646231 483.49220982 375.641922 483.49824524 C379.45842194 483.50104495 383.27479723 483.51230623 387.09126282 483.52864075 C391.95699212 483.54919083 396.82253968 483.55539259 401.68830836 483.55113089 C403.47554052 483.55202227 405.26277892 483.55798729 407.04997385 483.56955945 C409.46202883 483.58445409 411.87337534 483.58089476 414.28544617 483.57267761 C414.98661466 483.58141561 415.68778315 483.5901536 416.41019917 483.59915638 C420.72712042 483.55955688 423.48542732 482.93190954 426.87207031 480.21191406 C429.37503995 476.04928347 429.15957244 471.99727599 429.14622498 467.2673645 C429.15146165 466.35346447 429.15669833 465.43956444 429.1620937 464.49797046 C429.17712236 461.42877876 429.17779948 458.35975335 429.1784668 455.29052734 C429.1860863 453.09280108 429.19451343 450.89507749 429.20368958 448.69735718 C429.22566087 442.72217001 429.23443692 436.74703402 429.23951602 430.77181101 C429.2431562 427.04029003 429.24939446 423.30878254 429.25651741 419.57726669 C429.2797549 407.23568383 429.29372747 394.8941309 429.29705345 382.55252732 C429.29723626 381.88727827 429.29741907 381.22202921 429.29760742 380.53662109 C429.29778797 379.87055925 429.29796852 379.20449741 429.29815454 378.51825188 C429.30169692 367.72337087 429.32872437 356.92868926 429.36610531 346.13387741 C429.40418572 335.04829546 429.42311028 323.9627963 429.42385346 312.87714565 C429.42464747 306.65396486 429.43344376 300.43104135 429.46185112 294.20792007 C429.48796819 288.35556996 429.49027226 282.5036916 429.47419548 276.65130997 C429.47237599 274.50266494 429.47911655 272.35399317 429.49501419 270.20540619 C429.5153884 267.27318569 429.50497352 264.34262925 429.48680115 261.41043091 C429.5066011 260.13338057 429.5066011 260.13338057 429.52680105 258.83053124 C429.46968711 254.79909325 429.15638244 252.01407262 426.68288136 248.74281883 C423.71668678 246.07200394 422.15112547 245.25411258 418.28436279 244.5189209 C416.63991117 244.18714718 416.63991117 244.18714718 414.96223831 243.84867096 C413.78102779 243.63531853 412.59981728 243.42196609 411.3828125 243.20214844 C410.1410664 242.95763695 408.8993203 242.71312546 407.61994553 242.46120453 C405.00586106 241.94809495 402.39173069 241.44319871 399.77366638 240.95162964 C396.08211071 240.25173627 392.39922459 239.51903249 388.71740723 238.76977539 C381.38326896 237.27736395 374.04223398 235.82113678 366.70019531 234.36816406 C363.99185502 233.83094955 361.28362306 233.29318966 358.57537842 232.75549316 C352.94540569 231.63806668 347.31509786 230.52234207 341.68457031 229.40771484 C335.27443434 228.13873452 328.86483906 226.86705205 322.45553136 225.59389544 C316.16826609 224.34504844 309.88061323 223.09816289 303.59279633 221.85209656 C300.97317436 221.33293228 298.35369706 220.81305556 295.73429108 220.2928009 C276.46936819 216.46804059 257.17826308 212.83182521 237.87207031 209.21191406 Z M48.87207031 380.21191406 C45.13757565 384.76431444 45.46419709 389.17018607 45.53149414 394.77563477 C45.53105606 395.73221481 45.53061798 396.68879486 45.53016663 397.67436218 C45.53225285 400.82901581 45.55557645 403.98313478 45.57910156 407.13769531 C45.5846981 409.3277304 45.58896792 411.51776926 45.59196472 413.70780945 C45.6034089 419.46675011 45.63287265 425.22546313 45.66607666 430.98431396 C45.70218774 437.89678493 45.71594071 444.80933209 45.73343658 451.72187042 C45.76251 462.21870987 45.82000062 472.71505001 45.87207031 483.21191406 C73.92207031 483.21191406 101.97207031 483.21191406 130.87207031 483.21191406 C130.95935307 466.49806204 130.95935307 466.49806204 131.01855469 449.78417969 C131.03647603 442.96550478 131.05765918 436.14695093 131.09838867 429.32836914 C131.13102586 423.83001441 131.14893264 418.33178955 131.15670204 412.83334541 C131.16223769 410.73742186 131.17304747 408.64150528 131.18926048 406.54563713 C131.21109244 403.60603446 131.21403479 400.66696585 131.21264648 397.72729492 C131.22343231 396.86414169 131.23421814 396.00098846 131.24533081 395.11167908 C131.21786642 389.72423138 130.40301242 385.99355882 127.87207031 381.21191406 C123.66059898 377.13629664 119.30822408 377.08565766 113.65405273 377.05078125 C112.39562057 377.04117371 111.13718842 377.03156616 109.84062195 377.02166748 C108.46959617 377.01681887 107.09856828 377.01254019 105.72753906 377.00878906 C104.31512959 377.0030322 102.90272013 376.99727454 101.49031067 376.99151611 C98.53056476 376.98102334 95.57084587 376.97516953 92.61108398 376.97167969 C88.83170874 376.96620101 85.05269484 376.94217948 81.27343273 376.91370773 C78.35564657 376.89501762 75.43794631 376.88987237 72.52010536 376.88834381 C71.12753641 376.8853307 69.73496848 376.87734778 68.34245872 376.86415863 C58.12326244 376.56128856 58.12326244 376.56128856 48.87207031 380.21191406 Z " fill="#000000" transform="translate(61.1279296875,6.7880859375)"/>
<path d="M0 0 C0.96457626 -0.00953201 1.92915253 -0.01906403 2.92295837 -0.02888489 C4.47618553 -0.02751778 4.47618553 -0.02751778 6.06079102 -0.02612305 C7.13087906 -0.03040817 8.2009671 -0.0346933 9.30348206 -0.03910828 C11.56543267 -0.04484851 13.82740174 -0.0453541 16.08935547 -0.04101562 C19.54825362 -0.03785681 23.00629554 -0.06131546 26.46508789 -0.08666992 C28.66365452 -0.08894306 30.86222345 -0.08964634 33.06079102 -0.08862305 C34.09425156 -0.09783279 35.1277121 -0.10704254 36.19248962 -0.11653137 C42.52218991 -0.07579022 46.19084726 0.5408151 50.93969727 4.9621582 C52.6908305 8.37225976 52.78815045 11.57189899 52.12719727 15.2746582 C49.12719727 20.7746582 49.12719727 20.7746582 46.12719727 22.2746582 C44.45898872 22.39036055 42.78631131 22.44420728 41.11425781 22.4675293 C39.54704231 22.49162369 39.54704231 22.49162369 37.94816589 22.51620483 C33.16776121 22.56059626 28.3874961 22.601717 23.60693359 22.62475586 C21.08405335 22.64132277 18.56122018 22.66862204 16.03857422 22.70678711 C12.40510657 22.7614901 8.77273973 22.7834207 5.13891602 22.7980957 C4.01168625 22.82076508 2.88445648 22.84343445 1.72306824 22.86679077 C-6.10962177 22.84561638 -6.10962177 22.84561638 -10.07055664 19.88232422 C-12.72890837 16.03596079 -13.29648911 12.90261706 -12.87280273 8.2746582 C-9.88234941 2.18299402 -6.67366165 0.03632319 0 0 Z " fill="#000000" transform="translate(374.872802734375,425.725341796875)"/>
<path d="M0 0 C0.96457626 -0.00953201 1.92915253 -0.01906403 2.92295837 -0.02888489 C4.47618553 -0.02751778 4.47618553 -0.02751778 6.06079102 -0.02612305 C7.13087906 -0.03040817 8.2009671 -0.0346933 9.30348206 -0.03910828 C11.56543267 -0.04484851 13.82740174 -0.0453541 16.08935547 -0.04101562 C19.54825362 -0.03785681 23.00629554 -0.06131546 26.46508789 -0.08666992 C28.66365452 -0.08894306 30.86222345 -0.08964634 33.06079102 -0.08862305 C34.09425156 -0.09783279 35.1277121 -0.10704254 36.19248962 -0.11653137 C42.52218991 -0.07579022 46.19084726 0.5408151 50.93969727 4.9621582 C52.6908305 8.37225976 52.78815045 11.57189899 52.12719727 15.2746582 C49.12719727 20.7746582 49.12719727 20.7746582 46.12719727 22.2746582 C44.45898872 22.39036055 42.78631131 22.44420728 41.11425781 22.4675293 C39.54704231 22.49162369 39.54704231 22.49162369 37.94816589 22.51620483 C33.16776121 22.56059626 28.3874961 22.601717 23.60693359 22.62475586 C21.08405335 22.64132277 18.56122018 22.66862204 16.03857422 22.70678711 C12.40510657 22.7614901 8.77273973 22.7834207 5.13891602 22.7980957 C4.01168625 22.82076508 2.88445648 22.84343445 1.72306824 22.86679077 C-6.10962177 22.84561638 -6.10962177 22.84561638 -10.07055664 19.88232422 C-12.72890837 16.03596079 -13.29648911 12.90261706 -12.87280273 8.2746582 C-9.88234941 2.18299402 -6.67366165 0.03632319 0 0 Z " fill="#000000" transform="translate(374.872802734375,361.725341796875)"/>
<path d="M0 0 C0.96457626 -0.00953201 1.92915253 -0.01906403 2.92295837 -0.02888489 C4.47618553 -0.02751778 4.47618553 -0.02751778 6.06079102 -0.02612305 C7.13087906 -0.03040817 8.2009671 -0.0346933 9.30348206 -0.03910828 C11.56543267 -0.04484851 13.82740174 -0.0453541 16.08935547 -0.04101562 C19.54825362 -0.03785681 23.00629554 -0.06131546 26.46508789 -0.08666992 C28.66365452 -0.08894306 30.86222345 -0.08964634 33.06079102 -0.08862305 C34.09425156 -0.09783279 35.1277121 -0.10704254 36.19248962 -0.11653137 C42.52218991 -0.07579022 46.19084726 0.5408151 50.93969727 4.9621582 C52.6908305 8.37225976 52.78815045 11.57189899 52.12719727 15.2746582 C49.12719727 20.7746582 49.12719727 20.7746582 46.12719727 22.2746582 C44.45898872 22.39036055 42.78631131 22.44420728 41.11425781 22.4675293 C39.54704231 22.49162369 39.54704231 22.49162369 37.94816589 22.51620483 C33.16776121 22.56059626 28.3874961 22.601717 23.60693359 22.62475586 C21.08405335 22.64132277 18.56122018 22.66862204 16.03857422 22.70678711 C12.40510657 22.7614901 8.77273973 22.7834207 5.13891602 22.7980957 C4.01168625 22.82076508 2.88445648 22.84343445 1.72306824 22.86679077 C-6.10962177 22.84561638 -6.10962177 22.84561638 -10.07055664 19.88232422 C-12.72890837 16.03596079 -13.29648911 12.90261706 -12.87280273 8.2746582 C-9.88234941 2.18299402 -6.67366165 0.03632319 0 0 Z " fill="#000000" transform="translate(374.872802734375,297.725341796875)"/>
<path d="M0 0 C0.96457626 -0.00953201 1.92915253 -0.01906403 2.92295837 -0.02888489 C4.47618553 -0.02751778 4.47618553 -0.02751778 6.06079102 -0.02612305 C7.13087906 -0.03040817 8.2009671 -0.0346933 9.30348206 -0.03910828 C11.56543267 -0.04484851 13.82740174 -0.0453541 16.08935547 -0.04101562 C19.54825362 -0.03785681 23.00629554 -0.06131546 26.46508789 -0.08666992 C28.66365452 -0.08894306 30.86222345 -0.08964634 33.06079102 -0.08862305 C34.09425156 -0.09783279 35.1277121 -0.10704254 36.19248962 -0.11653137 C42.52218991 -0.07579022 46.19084726 0.5408151 50.93969727 4.9621582 C52.6908305 8.37225976 52.78815045 11.57189899 52.12719727 15.2746582 C49.12719727 20.7746582 49.12719727 20.7746582 46.12719727 22.2746582 C44.45898872 22.39036055 42.78631131 22.44420728 41.11425781 22.4675293 C39.54704231 22.49162369 39.54704231 22.49162369 37.94816589 22.51620483 C33.16776121 22.56059626 28.3874961 22.601717 23.60693359 22.62475586 C21.08405335 22.64132277 18.56122018 22.66862204 16.03857422 22.70678711 C12.40510657 22.7614901 8.77273973 22.7834207 5.13891602 22.7980957 C4.01168625 22.82076508 2.88445648 22.84343445 1.72306824 22.86679077 C-6.10962177 22.84561638 -6.10962177 22.84561638 -10.07055664 19.88232422 C-12.72890837 16.03596079 -13.29648911 12.90261706 -12.87280273 8.2746582 C-9.88234941 2.18299402 -6.67366165 0.03632319 0 0 Z " fill="#000000" transform="translate(182.872802734375,297.725341796875)"/>
<path d="M0 0 C0.96457626 -0.00953201 1.92915253 -0.01906403 2.92295837 -0.02888489 C4.47618553 -0.02751778 4.47618553 -0.02751778 6.06079102 -0.02612305 C7.13087906 -0.03040817 8.2009671 -0.0346933 9.30348206 -0.03910828 C11.56543267 -0.04484851 13.82740174 -0.0453541 16.08935547 -0.04101562 C19.54825362 -0.03785681 23.00629554 -0.06131546 26.46508789 -0.08666992 C28.66365452 -0.08894306 30.86222345 -0.08964634 33.06079102 -0.08862305 C34.09425156 -0.09783279 35.1277121 -0.10704254 36.19248962 -0.11653137 C42.52218991 -0.07579022 46.19084726 0.5408151 50.93969727 4.9621582 C52.6908305 8.37225976 52.78815045 11.57189899 52.12719727 15.2746582 C49.12719727 20.7746582 49.12719727 20.7746582 46.12719727 22.2746582 C44.45898872 22.39036055 42.78631131 22.44420728 41.11425781 22.4675293 C39.54704231 22.49162369 39.54704231 22.49162369 37.94816589 22.51620483 C33.16776121 22.56059626 28.3874961 22.601717 23.60693359 22.62475586 C21.08405335 22.64132277 18.56122018 22.66862204 16.03857422 22.70678711 C12.40510657 22.7614901 8.77273973 22.7834207 5.13891602 22.7980957 C4.01168625 22.82076508 2.88445648 22.84343445 1.72306824 22.86679077 C-6.10962177 22.84561638 -6.10962177 22.84561638 -10.07055664 19.88232422 C-12.72890837 16.03596079 -13.29648911 12.90261706 -12.87280273 8.2746582 C-9.88234941 2.18299402 -6.67366165 0.03632319 0 0 Z " fill="#000000" transform="translate(182.872802734375,233.725341796875)"/>
<path d="M0 0 C0.96457626 -0.00953201 1.92915253 -0.01906403 2.92295837 -0.02888489 C4.47618553 -0.02751778 4.47618553 -0.02751778 6.06079102 -0.02612305 C7.13087906 -0.03040817 8.2009671 -0.0346933 9.30348206 -0.03910828 C11.56543267 -0.04484851 13.82740174 -0.0453541 16.08935547 -0.04101562 C19.54825362 -0.03785681 23.00629554 -0.06131546 26.46508789 -0.08666992 C28.66365452 -0.08894306 30.86222345 -0.08964634 33.06079102 -0.08862305 C34.09425156 -0.09783279 35.1277121 -0.10704254 36.19248962 -0.11653137 C42.52218991 -0.07579022 46.19084726 0.5408151 50.93969727 4.9621582 C52.6908305 8.37225976 52.78815045 11.57189899 52.12719727 15.2746582 C49.12719727 20.7746582 49.12719727 20.7746582 46.12719727 22.2746582 C44.45898872 22.39036055 42.78631131 22.44420728 41.11425781 22.4675293 C39.54704231 22.49162369 39.54704231 22.49162369 37.94816589 22.51620483 C33.16776121 22.56059626 28.3874961 22.601717 23.60693359 22.62475586 C21.08405335 22.64132277 18.56122018 22.66862204 16.03857422 22.70678711 C12.40510657 22.7614901 8.77273973 22.7834207 5.13891602 22.7980957 C4.01168625 22.82076508 2.88445648 22.84343445 1.72306824 22.86679077 C-6.10962177 22.84561638 -6.10962177 22.84561638 -10.07055664 19.88232422 C-12.72890837 16.03596079 -13.29648911 12.90261706 -12.87280273 8.2746582 C-9.88234941 2.18299402 -6.67366165 0.03632319 0 0 Z " fill="#000000" transform="translate(182.872802734375,169.725341796875)"/>
<path d="M0 0 C0.96457626 -0.00953201 1.92915253 -0.01906403 2.92295837 -0.02888489 C4.47618553 -0.02751778 4.47618553 -0.02751778 6.06079102 -0.02612305 C7.13087906 -0.03040817 8.2009671 -0.0346933 9.30348206 -0.03910828 C11.56543267 -0.04484851 13.82740174 -0.0453541 16.08935547 -0.04101562 C19.54825362 -0.03785681 23.00629554 -0.06131546 26.46508789 -0.08666992 C28.66365452 -0.08894306 30.86222345 -0.08964634 33.06079102 -0.08862305 C34.09425156 -0.09783279 35.1277121 -0.10704254 36.19248962 -0.11653137 C42.52218991 -0.07579022 46.19084726 0.5408151 50.93969727 4.9621582 C52.6908305 8.37225976 52.78815045 11.57189899 52.12719727 15.2746582 C49.12719727 20.7746582 49.12719727 20.7746582 46.12719727 22.2746582 C44.45898872 22.39036055 42.78631131 22.44420728 41.11425781 22.4675293 C39.54704231 22.49162369 39.54704231 22.49162369 37.94816589 22.51620483 C33.16776121 22.56059626 28.3874961 22.601717 23.60693359 22.62475586 C21.08405335 22.64132277 18.56122018 22.66862204 16.03857422 22.70678711 C12.40510657 22.7614901 8.77273973 22.7834207 5.13891602 22.7980957 C4.01168625 22.82076508 2.88445648 22.84343445 1.72306824 22.86679077 C-6.10962177 22.84561638 -6.10962177 22.84561638 -10.07055664 19.88232422 C-12.72890837 16.03596079 -13.29648911 12.90261706 -12.87280273 8.2746582 C-9.88234941 2.18299402 -6.67366165 0.03632319 0 0 Z " fill="#000000" transform="translate(182.872802734375,105.725341796875)"/>
<path d="M0 0 C0.94140335 -0.00960754 1.8828067 -0.01921509 2.85273743 -0.02911377 C4.37619026 -0.03548859 4.37619026 -0.03548859 5.93041992 -0.04199219 C6.97735519 -0.04769226 8.02429047 -0.05339233 9.10295105 -0.05926514 C11.31960032 -0.06871485 13.53626363 -0.075249 15.75292969 -0.07910156 C19.13721357 -0.08879935 22.52088816 -0.11982032 25.9050293 -0.15136719 C28.05932257 -0.15789817 30.21362018 -0.16314827 32.36791992 -0.16699219 C33.37748245 -0.17933899 34.38704498 -0.19168579 35.42720032 -0.20440674 C40.79797557 -0.18745553 44.76294751 0.02674576 49.34838867 3.16113281 C52.17207438 7.39666137 52.01492624 11.18590595 51.34838867 16.16113281 C49.55192013 19.09536476 48.40428157 20.63318636 45.34838867 22.16113281 C43.71067149 22.27164461 42.06859041 22.32026615 40.42724609 22.33813477 C39.40245651 22.35097 38.37766693 22.36380524 37.32182312 22.37702942 C35.6546801 22.38810982 35.6546801 22.38810982 33.95385742 22.39941406 C32.81435135 22.40748581 31.67484528 22.41555756 30.50080872 22.4238739 C28.08567836 22.43772268 25.67052837 22.44844127 23.25537109 22.45629883 C19.56139043 22.47351397 15.86830396 22.51739475 12.17456055 22.56152344 C9.8301661 22.57164987 7.48576403 22.58016613 5.14135742 22.58691406 C3.48332344 22.61317619 3.48332344 22.61317619 1.79179382 22.63996887 C-5.88850798 22.61824363 -5.88850798 22.61824363 -9.82617188 20.25952148 C-13.08509828 16.51330343 -13.04200158 13.47864378 -13.00708008 8.64550781 C-12.65161133 6.16113281 -12.65161133 6.16113281 -10.33911133 3.09863281 C-6.79062553 0.54042212 -4.26025544 0.03513356 0 0 Z " fill="#000000" transform="translate(76.651611328125,297.8388671875)"/>
<path d="M0 0 C0.94140335 -0.00960754 1.8828067 -0.01921509 2.85273743 -0.02911377 C4.37619026 -0.03548859 4.37619026 -0.03548859 5.93041992 -0.04199219 C6.97735519 -0.04769226 8.02429047 -0.05339233 9.10295105 -0.05926514 C11.31960032 -0.06871485 13.53626363 -0.075249 15.75292969 -0.07910156 C19.13721357 -0.08879935 22.52088816 -0.11982032 25.9050293 -0.15136719 C28.05932257 -0.15789817 30.21362018 -0.16314827 32.36791992 -0.16699219 C33.37748245 -0.17933899 34.38704498 -0.19168579 35.42720032 -0.20440674 C40.79797557 -0.18745553 44.76294751 0.02674576 49.34838867 3.16113281 C52.17207438 7.39666137 52.01492624 11.18590595 51.34838867 16.16113281 C49.55192013 19.09536476 48.40428157 20.63318636 45.34838867 22.16113281 C43.71067149 22.27164461 42.06859041 22.32026615 40.42724609 22.33813477 C39.40245651 22.35097 38.37766693 22.36380524 37.32182312 22.37702942 C35.6546801 22.38810982 35.6546801 22.38810982 33.95385742 22.39941406 C32.81435135 22.40748581 31.67484528 22.41555756 30.50080872 22.4238739 C28.08567836 22.43772268 25.67052837 22.44844127 23.25537109 22.45629883 C19.56139043 22.47351397 15.86830396 22.51739475 12.17456055 22.56152344 C9.8301661 22.57164987 7.48576403 22.58016613 5.14135742 22.58691406 C3.48332344 22.61317619 3.48332344 22.61317619 1.79179382 22.63996887 C-5.88850798 22.61824363 -5.88850798 22.61824363 -9.82617188 20.25952148 C-13.08509828 16.51330343 -13.04200158 13.47864378 -13.00708008 8.64550781 C-12.65161133 6.16113281 -12.65161133 6.16113281 -10.33911133 3.09863281 C-6.79062553 0.54042212 -4.26025544 0.03513356 0 0 Z " fill="#000000" transform="translate(76.651611328125,233.8388671875)"/>
<path d="M0 0 C0.94140335 -0.00960754 1.8828067 -0.01921509 2.85273743 -0.02911377 C4.37619026 -0.03548859 4.37619026 -0.03548859 5.93041992 -0.04199219 C6.97735519 -0.04769226 8.02429047 -0.05339233 9.10295105 -0.05926514 C11.31960032 -0.06871485 13.53626363 -0.075249 15.75292969 -0.07910156 C19.13721357 -0.08879935 22.52088816 -0.11982032 25.9050293 -0.15136719 C28.05932257 -0.15789817 30.21362018 -0.16314827 32.36791992 -0.16699219 C33.37748245 -0.17933899 34.38704498 -0.19168579 35.42720032 -0.20440674 C40.79797557 -0.18745553 44.76294751 0.02674576 49.34838867 3.16113281 C52.17207438 7.39666137 52.01492624 11.18590595 51.34838867 16.16113281 C49.55192013 19.09536476 48.40428157 20.63318636 45.34838867 22.16113281 C43.71067149 22.27164461 42.06859041 22.32026615 40.42724609 22.33813477 C39.40245651 22.35097 38.37766693 22.36380524 37.32182312 22.37702942 C35.6546801 22.38810982 35.6546801 22.38810982 33.95385742 22.39941406 C32.81435135 22.40748581 31.67484528 22.41555756 30.50080872 22.4238739 C28.08567836 22.43772268 25.67052837 22.44844127 23.25537109 22.45629883 C19.56139043 22.47351397 15.86830396 22.51739475 12.17456055 22.56152344 C9.8301661 22.57164987 7.48576403 22.58016613 5.14135742 22.58691406 C3.48332344 22.61317619 3.48332344 22.61317619 1.79179382 22.63996887 C-5.88850798 22.61824363 -5.88850798 22.61824363 -9.82617188 20.25952148 C-13.08509828 16.51330343 -13.04200158 13.47864378 -13.00708008 8.64550781 C-12.65161133 6.16113281 -12.65161133 6.16113281 -10.33911133 3.09863281 C-6.79062553 0.54042212 -4.26025544 0.03513356 0 0 Z " fill="#000000" transform="translate(76.651611328125,169.8388671875)"/>
<path d="M0 0 C0.94140335 -0.00960754 1.8828067 -0.01921509 2.85273743 -0.02911377 C4.37619026 -0.03548859 4.37619026 -0.03548859 5.93041992 -0.04199219 C6.97735519 -0.04769226 8.02429047 -0.05339233 9.10295105 -0.05926514 C11.31960032 -0.06871485 13.53626363 -0.075249 15.75292969 -0.07910156 C19.13721357 -0.08879935 22.52088816 -0.11982032 25.9050293 -0.15136719 C28.05932257 -0.15789817 30.21362018 -0.16314827 32.36791992 -0.16699219 C33.37748245 -0.17933899 34.38704498 -0.19168579 35.42720032 -0.20440674 C40.79797557 -0.18745553 44.76294751 0.02674576 49.34838867 3.16113281 C52.17207438 7.39666137 52.01492624 11.18590595 51.34838867 16.16113281 C49.55192013 19.09536476 48.40428157 20.63318636 45.34838867 22.16113281 C43.71067149 22.27164461 42.06859041 22.32026615 40.42724609 22.33813477 C39.40245651 22.35097 38.37766693 22.36380524 37.32182312 22.37702942 C35.6546801 22.38810982 35.6546801 22.38810982 33.95385742 22.39941406 C32.81435135 22.40748581 31.67484528 22.41555756 30.50080872 22.4238739 C28.08567836 22.43772268 25.67052837 22.44844127 23.25537109 22.45629883 C19.56139043 22.47351397 15.86830396 22.51739475 12.17456055 22.56152344 C9.8301661 22.57164987 7.48576403 22.58016613 5.14135742 22.58691406 C3.48332344 22.61317619 3.48332344 22.61317619 1.79179382 22.63996887 C-5.88850798 22.61824363 -5.88850798 22.61824363 -9.82617188 20.25952148 C-13.08509828 16.51330343 -13.04200158 13.47864378 -13.00708008 8.64550781 C-12.65161133 6.16113281 -12.65161133 6.16113281 -10.33911133 3.09863281 C-6.79062553 0.54042212 -4.26025544 0.03513356 0 0 Z " fill="#000000" transform="translate(76.651611328125,105.8388671875)"/>
</svg>
