<?xml version="1.0" encoding="UTF-8"?>
<svg version="1.1" xmlns="http://www.w3.org/2000/svg" width="512" height="512">
<path d="M0 0 C1.18018536 -0.00467997 2.36037072 -0.00935994 3.57631928 -0.01418173 C6.84860768 -0.02407814 10.12056233 -0.02051533 13.39284241 -0.01122308 C16.92325438 -0.00443839 20.45362106 -0.01491097 23.98402405 -0.02316284 C30.89895142 -0.03650901 37.81378116 -0.0336184 44.72871237 -0.02492492 C50.34878294 -0.0181517 55.96882613 -0.01723008 61.58889961 -0.02049637 C62.38856922 -0.02095607 63.18823884 -0.02141577 64.01214086 -0.0218894 C65.63663181 -0.02284857 67.26112275 -0.02382121 68.88561369 -0.02480717 C84.12209317 -0.03336379 99.35851852 -0.02352295 114.59498913 -0.00740607 C127.66850152 0.00599479 140.741934 0.00367146 153.81544495 -0.01016235 C168.99559043 -0.02621779 184.17568844 -0.03253709 199.35584122 -0.02332556 C200.97468538 -0.02236991 202.59352955 -0.0214268 204.21237373 -0.02049637 C205.00888239 -0.02003354 205.80539105 -0.01957072 206.62603633 -0.01909386 C212.23882541 -0.01650367 217.8515844 -0.02087565 223.46436882 -0.02793503 C230.30534156 -0.03634994 237.14621103 -0.03407022 243.98717194 -0.0180928 C247.47754207 -0.01020951 250.96774005 -0.0071193 254.4581089 -0.01704025 C258.24161387 -0.02521427 262.0246317 -0.01498339 265.80810547 0 C267.46350008 -0.01003825 267.46350008 -0.01003825 269.15233701 -0.02027929 C275.62065171 0.02954838 280.38801625 0.50964588 285.32481384 5.11264038 C286.92758586 8.29412892 286.84659745 11.19680308 286.75123596 14.67391968 C286.74015619 15.44938644 286.72907642 16.22485321 286.7176609 17.02381897 C286.47156142 29.50394345 285.71973641 41.97417104 285.04917049 54.43731236 C284.84210722 58.30813418 284.64095778 62.17926349 284.43928528 66.05036926 C284.09225112 72.70023672 283.74247514 79.3499544 283.39070129 85.99957275 C282.5086486 102.67969369 281.64101256 119.36056587 280.77837133 136.04170108 C280.68557439 137.83611268 280.59272607 139.63052163 280.49982691 141.42492795 C279.14645111 167.57224852 277.86232217 193.72185105 276.67066956 219.87704468 C276.63626471 220.63103058 276.60185987 221.38501649 276.56641245 222.16185045 C275.91216317 236.50128367 275.26562117 250.84104785 274.63682508 265.18162102 C274.37987772 271.03816866 274.11819386 276.89449928 273.85523224 282.75078011 C273.70099149 286.2221043 273.55263069 289.69364318 273.40461731 293.16523743 C272.93689887 303.76988519 272.26589746 314.3060336 271.19126415 324.86694813 C270.39013098 332.82505149 269.9232941 340.78152559 269.54586601 348.76967239 C269.42817251 351.2591882 269.30429077 353.74833791 269.17910767 356.23748779 C268.91583461 361.49339008 268.66002516 366.74964081 268.40504456 372.00595093 C268.10548718 378.16952868 267.80278586 384.3329273 267.49327278 390.49601364 C267.3718093 392.94380058 267.25547625 395.39179609 267.1394043 397.83984375 C267.06535132 399.32833034 266.99106913 400.81680555 266.91651917 402.30526733 C266.85371262 403.60316193 266.79090607 404.90105652 266.72619629 406.23828125 C266.46754456 409.38095093 266.46754456 409.38095093 265.46754456 412.38095093 C266.87909065 412.37095818 266.87909065 412.37095818 268.31915283 412.36076355 C277.19139298 412.2999246 286.06359075 412.25496494 294.93599224 412.22551441 C299.49729805 412.20986454 304.05843534 412.18863867 308.61964417 412.15463257 C313.02222155 412.12201489 317.42463692 412.10409281 321.82732582 412.0963192 C323.50624453 412.09078001 325.18515447 412.07996328 326.86400414 412.06376076 C329.2173154 412.04195416 331.5699589 412.0389853 333.9233551 412.04037476 C334.96237473 412.02419601 334.96237473 412.02419601 336.02238464 412.00769043 C340.33810448 412.03522663 343.08236638 412.66349699 346.46754456 415.38095093 C348.88254907 418.69896134 348.72633841 421.89030293 348.74220276 425.90609741 C348.74986916 426.87516022 348.74986916 426.87516022 348.75769043 427.86380005 C348.7715579 429.99330991 348.77063188 432.1224951 348.76832581 434.25204468 C348.77221431 435.73650736 348.7765493 437.22096894 348.78131104 438.70542908 C348.7887671 441.8148357 348.78848645 444.92412877 348.78321838 448.03353882 C348.77742442 452.01267239 348.79435553 455.99134039 348.81756306 459.970397 C348.83231495 463.03566696 348.83317014 466.10082517 348.83005333 469.16612434 C348.83056581 470.6329039 348.83578983 472.09968982 348.84586525 473.56643486 C348.85824121 475.62006516 348.85143223 477.6727934 348.83985901 479.72640991 C348.84048843 480.89348984 348.84111786 482.06056976 348.84176636 483.26301575 C348.4165582 486.80575824 347.66889121 488.58614049 345.46754456 491.38095093 C341.39646182 494.41967833 338.39533655 494.75653019 333.3694458 494.75847435 C332.66281111 494.76283467 331.95617642 494.76719499 331.22812855 494.77168745 C328.85420764 494.78265818 326.48086578 494.77221352 324.10694885 494.76190186 C322.39027706 494.7653577 320.67360748 494.77012178 318.95694256 494.77608359 C314.23477749 494.78863325 309.51279377 494.7824052 304.79062796 494.77312493 C299.69989879 494.766351 294.60920131 494.77680744 289.51847839 494.7850647 C279.5438252 494.79842193 269.56923962 494.79551543 259.59458375 494.78682677 C251.48976221 494.78005846 243.38495966 494.77912981 235.28013611 494.78239822 C234.1277069 494.78285792 232.97527768 494.78331762 231.78792638 494.78379125 C229.4469707 494.7847504 227.10601502 494.78572304 224.76505935 494.78670903 C202.801087 494.79526875 180.83715219 494.78541965 158.87318599 494.76930793 C140.01692473 494.75590422 121.16071888 494.75823215 102.30445862 494.77206421 C80.42041136 494.78810973 58.53639702 494.79444472 36.6523447 494.78522742 C34.31988081 494.78427175 31.98741691 494.78332863 29.654953 494.78239822 C28.50726163 494.7819354 27.35957026 494.78147257 26.17710036 494.78099572 C18.07968303 494.77840275 9.98228654 494.78278344 1.88487244 494.78983688 C-7.97982756 494.79824067 -17.84445593 494.79599539 -27.70914769 494.77999465 C-32.74465456 494.77209682 -37.78004189 494.76904605 -42.81554794 494.77894211 C-47.42201341 494.78785824 -52.02824812 494.78300719 -56.63469255 494.76700945 C-58.30420146 494.76364855 -59.97372972 494.76538497 -61.64322627 494.77263682 C-63.90721617 494.78171929 -66.17040884 494.77244415 -68.43435669 494.75847435 C-69.69345698 494.75798729 -70.95255728 494.75750024 -72.24981213 494.75699842 C-75.81855963 494.34817589 -77.6751591 493.51382959 -80.53245544 491.38095093 C-83.56093299 487.53221011 -83.91073464 484.57278397 -83.92063904 479.74227905 C-83.925896 479.09609116 -83.93115295 478.44990326 -83.93656921 477.78413391 C-83.94971335 475.65990632 -83.94105176 473.53643541 -83.93089294 471.41220093 C-83.9329153 469.92916725 -83.9358281 468.44613454 -83.93959045 466.96310425 C-83.94400621 463.85961409 -83.93760713 460.7563835 -83.92356873 457.65292358 C-83.90647698 453.68163642 -83.91632222 449.71095756 -83.93428612 445.73969269 C-83.94514437 442.67869512 -83.94166832 439.61784096 -83.93390274 436.55683899 C-83.93190636 435.09285917 -83.93434022 433.62886618 -83.9413414 432.16490173 C-83.94898992 430.11612631 -83.93730593 428.0683259 -83.92063904 426.0196228 C-83.91825226 424.85555908 -83.91586548 423.69149536 -83.91340637 422.49215698 C-83.48473711 418.99123779 -82.69541623 417.15096667 -80.53245544 414.38095093 C-77.05450504 411.74281585 -73.10275185 412.11181589 -68.91819763 412.15390015 C-68.15683502 412.15360809 -67.39547241 412.15331604 -66.61103821 412.15301514 C-64.10035208 412.15440587 -61.58996458 412.16995488 -59.07933044 412.18563843 C-57.33626976 412.18936947 -55.59320697 412.19221601 -53.85014343 412.19421387 C-49.26668997 412.20184313 -44.68336363 412.22148556 -40.09996033 412.24362183 C-35.42122619 412.26409547 -30.74247148 412.27321883 -26.06370544 412.28329468 C-16.88656631 412.30473211 -7.70952146 412.33885955 1.46754456 412.38095093 C1.31180466 411.70656982 1.15606476 411.03218872 0.99560547 410.33737183 C0.38213452 406.90277119 0.18782418 403.56387947 0.01856995 400.07821655 C-0.03535164 399.00118217 -0.03535164 399.00118217 -0.09036255 397.90238953 C-0.16782081 396.34636847 -0.24358463 394.79026234 -0.31783867 393.23408508 C-0.43660813 390.74935684 -0.56026256 388.26491333 -0.68518066 385.78048706 C-0.99525678 379.59583524 -1.29817941 373.4108388 -1.59916687 367.22573853 C-1.85273516 362.01583253 -2.11022222 356.80614935 -2.37291145 351.59669495 C-2.49287273 349.18855895 -2.60737658 346.78020711 -2.72164917 344.37179565 C-3.1138599 336.426205 -3.6884314 328.53417699 -4.50462341 320.62069702 C-5.837531 307.4415644 -6.349106 294.22164644 -6.91884518 280.99231434 C-7.08100564 277.25877389 -7.24987241 273.52553633 -7.4181366 269.79226685 C-7.70687167 263.37157008 -7.99256617 256.95074515 -8.27607727 250.52981567 C-9.02916592 233.48474146 -9.80213571 216.44056597 -10.57933044 199.39657593 C-10.61884347 198.52887558 -10.65835649 197.66117522 -10.69906688 196.76718092 C-11.89828467 170.44124962 -13.17686242 144.12036144 -14.54808044 117.80282593 C-14.58891196 117.0186465 -14.62974347 116.23446708 -14.6718123 115.42652464 C-15.45553437 100.38284181 -16.24998124 85.33973538 -17.05636346 70.29725027 C-17.38744574 64.12021223 -17.71553304 57.94301795 -18.04296112 51.76578522 C-18.24032543 48.06635589 -18.44198182 44.36717871 -18.64396667 40.66799927 C-18.9723796 34.57361214 -19.27410673 28.47872145 -19.53245544 22.38095093 C-19.56591694 21.6030143 -19.59937843 20.82507767 -19.63385391 20.0235672 C-19.70958443 18.04847847 -19.75634806 16.07233478 -19.80027771 14.09628296 C-19.82348587 13.0855069 -19.84669403 12.07473083 -19.87060547 11.0333252 C-19.34490978 6.90988407 -17.77789008 4.44885171 -14.64099884 1.75911713 C-9.8416591 -0.36866009 -5.19294386 -0.03142628 0 0 Z M2.46754456 24.38095093 C4.77754456 71.24095093 7.08754456 118.10095093 9.46754456 166.38095093 C52.6325827 166.41006429 52.6325827 166.41006429 95.79762268 166.42977905 C101.60955305 166.43173706 107.42148339 166.43375758 113.2334137 166.43588257 C113.96189115 166.43614632 114.6903686 166.43641007 115.44092113 166.43668181 C127.2169853 166.44103661 138.99304462 166.44892344 150.7691059 166.45810372 C162.84555295 166.46743998 174.92199745 166.47300648 186.99844795 166.47503942 C194.45624469 166.47641471 201.9140277 166.4807656 209.37182022 166.48886739 C215.08084433 166.49475522 220.78985956 166.49540996 226.49888611 166.49405861 C228.84796292 166.49433513 231.19704023 166.49634276 233.54611397 166.5001564 C236.73811905 166.50508701 239.93006402 166.50395156 243.12207031 166.50120544 C244.06465791 166.50411829 245.0072455 166.50703113 245.97839636 166.51003224 C250.04493374 166.91495364 250.04493374 166.91495364 253.46754456 165.38095093 C253.63607521 163.85942045 253.73904013 162.33057182 253.81558228 160.801651 C253.86744186 159.81106689 253.91930145 158.82048279 253.97273254 157.79988098 C254.0252417 156.70345779 254.07775085 155.60703461 254.1318512 154.47738647 C254.21985237 152.75508316 254.21985237 152.75508316 254.30963135 150.99798584 C254.50379792 147.17143889 254.69095182 143.34458531 254.87770081 139.51766968 C254.97694202 137.52753355 255.07618597 135.53739753 255.17583078 133.54728156 C255.49025421 127.26751387 255.79991933 120.987524 256.10646057 114.70736694 C256.42046588 108.27555927 256.74133491 101.84412235 257.06593806 95.4128415 C257.34564836 89.86708717 257.62138678 84.32114495 257.89401716 78.77503806 C258.05627087 75.47448196 258.22019316 72.17402639 258.38693428 68.87369347 C258.57366397 65.16368565 258.75389475 61.45341189 258.93263245 57.74301147 C258.98716583 56.68504868 259.04169922 55.62708588 259.09788513 54.5370636 C259.57136465 44.4556787 259.46754456 34.51571637 259.46754456 24.38095093 C174.65754456 24.38095093 89.84754456 24.38095093 2.46754456 24.38095093 Z M11.46754456 191.38095093 C12.80186723 230.07630845 15.24601744 268.72637903 17.46754456 307.38095093 C93.03754456 307.38095093 168.60754456 307.38095093 246.46754456 307.38095093 C249.92435722 249.40461992 249.92435722 249.40461992 251.46754456 191.38095093 C172.26754456 191.38095093 93.06754456 191.38095093 11.46754456 191.38095093 Z M18.46754456 330.38095093 C18.46754456 342.20237913 18.4892599 353.86371746 19.08863831 365.64266968 C19.15379227 366.97931029 19.21865028 368.31596536 19.28323364 369.65263367 C19.41711402 372.40086323 19.55439474 375.14889344 19.6943512 377.89682007 C19.8736413 381.42251326 20.04398403 384.9485776 20.21195889 388.47482586 C20.37457695 391.86433972 20.54439263 395.25348018 20.71363831 398.64266968 C20.77409836 399.90906784 20.83455841 401.175466 20.89685059 402.48023987 C20.95683731 403.63687637 21.01682404 404.79351288 21.07862854 405.98519897 C21.12970261 407.00631271 21.18077667 408.02742645 21.23339844 409.07948303 C21.21877055 411.34281208 21.21877055 411.34281208 22.46754456 412.38095093 C25.27439807 412.47885711 28.05664391 412.51087896 30.86392212 412.50120544 C31.75499096 412.50205987 32.6460598 412.50291429 33.56413072 412.50379461 C36.57370333 412.50545215 39.58322116 412.49992358 42.5927887 412.49447632 C44.74069213 412.49419448 46.88859565 412.49435212 49.03649902 412.49491882 C54.88750124 412.49520693 60.73848316 412.48930813 66.58948064 412.48234487 C72.69673769 412.47611346 78.80399515 412.4755077 84.91125488 412.47431946 C96.48516421 412.47120551 108.05906414 412.46299127 119.63296932 412.45296997 C132.80565479 412.44181079 145.97834069 412.43629888 159.15102971 412.43127453 C186.25653987 412.42080871 213.36204169 412.40320805 240.46754456 412.38095093 C241.34311956 409.07548812 241.68566282 406.01972277 241.85646057 402.59701538 C241.9164473 401.43092239 241.97643402 400.26482941 242.03823853 399.06340027 C242.09869858 397.8030748 242.15915863 396.54274933 242.22145081 395.24423218 C242.28662399 393.93625168 242.35179718 392.62827118 242.41894531 391.28065491 C242.55682336 388.50423089 242.69178623 385.72768418 242.82472229 382.95101929 C242.9928722 379.44377774 243.1682191 375.93694284 243.34590244 372.43017292 C243.4836695 369.69400096 243.6173505 366.95763982 243.74993706 364.22121239 C243.84296515 362.31563216 243.93931651 360.41021506 244.03579712 358.50480652 C244.47874591 349.0973152 244.46754456 339.82914907 244.46754456 330.38095093 C169.88754456 330.38095093 95.30754456 330.38095093 18.46754456 330.38095093 Z M-61.53245544 434.38095093 C-61.53245544 446.92095093 -61.53245544 459.46095093 -61.53245544 472.38095093 C66.50754456 472.38095093 194.54754456 472.38095093 326.46754456 472.38095093 C326.46754456 459.84095093 326.46754456 447.30095093 326.46754456 434.38095093 C198.42754456 434.38095093 70.38754456 434.38095093 -61.53245544 434.38095093 Z " fill="#000000" transform="translate(123.53245544433594,7.619049072265625)"/>
</svg>
