<?xml version="1.0" encoding="UTF-8"?>
<svg version="1.1" xmlns="http://www.w3.org/2000/svg" width="512" height="512">
<path d="M0 0 C0.70432271 -0.00350607 1.40864541 -0.00701215 2.13431123 -0.01062447 C4.48226688 -0.01989022 6.82997186 -0.01502775 9.17793751 -0.01015663 C10.88324634 -0.01389533 12.58855346 -0.01849773 14.29385787 -0.02388728 C18.97095638 -0.0361056 23.64798329 -0.03585818 28.3250941 -0.03349853 C33.37297691 -0.03309006 38.42083686 -0.04413236 43.46870899 -0.05361366 C53.35537958 -0.07021845 63.24202633 -0.07572298 73.1287097 -0.07683842 C81.16664557 -0.07778918 89.20457359 -0.08190088 97.24250698 -0.08823967 C120.03912892 -0.10585099 142.83573204 -0.11507876 165.63236084 -0.11357872 C166.86103838 -0.11349881 168.08971592 -0.1134189 169.35562611 -0.11333656 C170.58580657 -0.1132548 171.81598704 -0.11317304 173.08344571 -0.1130888 C193.01695483 -0.11227603 212.95038837 -0.13141182 232.88387563 -0.1596133 C253.35889175 -0.18835197 273.83387101 -0.20215303 294.30890781 -0.20042574 C305.80105711 -0.19976216 317.29312718 -0.20524048 328.78525829 -0.22678185 C338.57061411 -0.24500658 348.35585478 -0.24933034 358.14122023 -0.235763 C363.13119856 -0.22923981 368.12095606 -0.22909277 373.11091328 -0.2464695 C377.68503789 -0.26223393 382.25876721 -0.25930223 386.83288238 -0.24190123 C388.48158682 -0.23883875 390.13032101 -0.24243522 391.77899035 -0.25362138 C409.8263504 -0.36789541 425.01094372 4.27536612 438.305089 16.91742516 C454.26035222 33.28249823 456.2713969 51.63825349 456.73503304 73.44033813 C456.81167062 77.01561077 456.92502123 80.58087569 457.12955189 84.15131187 C458.41214916 107.11013353 458.41214916 107.11013353 453.80472279 113.87195396 C449.47793449 118.22441592 444.54517353 121.14227531 439.10155201 123.89662743 C434.82920705 126.20781528 431.05931198 129.18474143 427.211339 132.13226891 C426.33695179 132.77462486 425.46256458 133.41698082 424.56168079 134.07880211 C418.66725753 138.42985797 412.83976588 142.86454142 407.023839 147.31976891 C399.89805212 152.77840038 392.69678813 158.10418301 385.39468861 163.3239193 C379.54012438 167.52621978 373.80411618 171.87114288 368.086339 176.25726891 C360.94069663 181.73871509 353.72124159 187.08686616 346.39493275 192.32367516 C340.54036273 196.52616193 334.80420753 200.87107281 329.086339 205.25726891 C322.65455268 210.19111372 316.1810005 215.04322826 309.586339 219.75726891 C303.0165589 224.45519179 296.56044795 229.28322565 290.148839 234.19476891 C281.16258888 241.07858799 272.08762419 247.82889559 262.95547962 254.51752281 C260.50977787 256.31349052 258.070707 258.11814726 255.633214 259.92523766 C251.6667698 262.86562083 247.68960799 265.79083309 243.7035265 268.70453453 C242.3664555 269.68513549 241.03265904 270.67023144 239.7035265 271.66156578 C225.17941003 282.48952256 209.28431662 288.07796433 191.117589 285.82758141 C173.26714797 282.84021421 161.08028605 273.1386144 147.18204212 262.26019859 C143.38434279 259.3297692 139.49414406 256.53819238 135.586339 253.75726891 C128.07271548 248.38919861 120.72912036 242.81876203 113.40274525 237.19867516 C107.86061663 232.95866193 102.26308272 228.81497698 96.586339 224.75726891 C89.0739274 219.38743459 81.72918805 213.81881396 74.40274525 208.19867516 C68.86061663 203.95866193 63.26308272 199.81497698 57.586339 195.75726891 C50.0739274 190.38743459 42.72918805 184.81881396 35.40274525 179.19867516 C29.86061663 174.95866193 24.26308272 170.81497698 18.586339 166.75726891 C11.0739274 161.38743459 3.72918805 155.81881396 -3.59725475 150.19867516 C-9.84461548 145.41912312 -16.17856852 140.78267608 -22.57870007 136.21063805 C-29.60980857 131.16573165 -36.48084573 125.91749354 -43.335536 120.63617516 C-44.1708485 119.99422203 -45.006161 119.35226891 -45.866786 118.69086266 C-46.96748425 117.84092735 -46.96748425 117.84092735 -48.09041882 116.97382164 C-50.44176476 115.0966193 -50.44176476 115.0966193 -53.65243053 113.88617516 C-56.97363644 110.72412872 -56.88853578 109.76976993 -57.15828991 105.31805992 C-57.18445999 102.79922708 -57.17605554 100.27988908 -57.1402235 97.76117516 C-57.13918468 96.40797999 -57.14022634 95.05478178 -57.14324474 93.70158958 C-57.14306532 90.86072423 -57.1222413 88.02099408 -57.08602428 85.18036461 C-57.04103554 81.57612095 -57.03948908 77.97356272 -57.05305958 74.36911678 C-57.05982046 71.56933245 -57.04632288 68.7699171 -57.02680111 65.9702034 C-57.01555736 64.00696819 -57.01794375 62.04366969 -57.02074718 60.08040428 C-56.74426314 42.27960782 -50.11456156 27.64011687 -37.413661 15.25726891 C-27.19434786 5.77193958 -13.979108 0.01578653 0 0 Z M-10.413661 46.25726891 C-18.7286964 56.77466503 -18.78725546 72.9710508 -17.34530163 85.80707359 C-15.14207178 93.96641431 -8.05042096 97.75951387 -1.2027235 101.91351891 C-0.22335827 102.47297203 0.75600697 103.03242516 1.76504993 103.60883141 C5.92413108 106.03892105 9.72667368 108.88463395 13.586339 111.75726891 C15.05390326 112.8110056 16.52267043 113.86306885 17.992589 114.91351891 C24.01036363 119.25968947 29.88064076 123.79816706 35.76993275 128.31586266 C41.31206136 132.55587589 46.90959528 136.69956083 52.586339 140.75726891 C60.09875059 146.12710322 67.44348994 151.69572385 74.76993275 157.31586266 C80.31206136 161.55587589 85.90959528 165.69956083 91.586339 169.75726891 C99.09875059 175.12710322 106.44348994 180.69572385 113.76993275 186.31586266 C119.31206136 190.55587589 124.90959528 194.69956083 130.586339 198.75726891 C137.18109888 203.47117035 143.65452939 208.32346248 150.086339 213.25726891 C157.4340556 218.89314465 164.84883747 224.4121928 172.38638783 229.79169273 C175.67518471 232.14115186 178.93910082 234.50433227 182.1254015 236.99164391 C183.16438587 237.80117516 184.20337025 238.61070641 185.273839 239.44476891 C186.14395618 240.13957359 187.01407337 240.83437828 187.91055775 241.55023766 C192.05682508 244.19537463 196.63303242 245.79413315 201.586339 245.13226891 C202.184464 245.06781578 202.782589 245.00336266 203.398839 244.93695641 C210.05096872 242.87004467 215.70376204 238.12042725 221.211339 234.00726891 C222.02820179 233.4017318 222.84506458 232.79619469 223.68668079 232.17230797 C230.87443633 226.82765403 237.98724649 221.38558011 245.09854603 215.93988609 C250.39869235 211.89128611 255.75277069 207.95039533 261.20963001 204.11688805 C266.52092291 200.35985533 271.67441743 196.40347998 276.836339 192.44476891 C283.35160927 187.44879628 289.90647638 182.5310544 296.586339 177.75726891 C303.18114531 173.04343778 309.65456038 168.19110782 316.086339 163.25726891 C323.23198137 157.77582272 330.4514364 152.42767165 337.77774525 147.19086266 C343.63231527 142.98837589 349.36847046 138.643465 355.086339 134.25726891 C361.51812046 129.32342781 367.99158137 124.47117136 374.586339 119.75726891 C382.19707059 114.31712855 389.65297176 108.69043964 397.06876087 102.98773766 C397.88796009 102.35867516 398.70715931 101.72961266 399.55118275 101.08148766 C400.36031116 100.44452965 401.16943958 99.80757164 402.00308704 99.15131187 C404.586339 97.25726891 404.586339 97.25726891 407.63248158 95.50775719 C413.54018196 91.99354506 413.54018196 91.99354506 416.48697376 86.0372982 C416.74397352 82.21883237 416.64685948 78.5756308 416.398839 74.75726891 C416.3659679 73.47722984 416.33309681 72.19719078 416.29922962 70.87836266 C415.9885524 61.91045586 415.59895139 53.37746779 409.586339 46.25726891 C402.98999673 41.04221199 397.08500385 40.13359356 388.74838924 40.12863445 C388.08202047 40.12688142 387.41565169 40.12512838 386.72908992 40.12332222 C384.49830866 40.11867383 382.26759291 40.12112472 380.03680897 40.12355614 C378.42040989 40.12168758 376.80401127 40.1193867 375.18761337 40.11669081 C370.74719228 40.11057197 366.30679001 40.11070651 361.86636567 40.11188519 C357.07690436 40.11208917 352.2874491 40.1065707 347.49799061 40.10182762 C338.11538556 40.09352024 328.73278679 40.09077275 319.35017838 40.09021524 C311.72453035 40.08974016 304.0988844 40.08768581 296.47323704 40.08451462 C274.85689905 40.07570811 253.24056602 40.07109528 231.62422623 40.07184509 C229.87611414 40.07190503 229.87611414 40.07190503 228.09268665 40.07196617 C226.34244241 40.07202749 226.34244241 40.07202749 224.55683969 40.07209005 C205.6415607 40.07249661 186.72630161 40.06292463 167.81102838 40.0488278 C148.39266529 40.03447012 128.9743119 40.02755727 109.55594337 40.02842158 C98.65248358 40.02875374 87.74904465 40.02599824 76.84558964 40.01524353 C67.56328805 40.00614657 58.28101679 40.00395669 48.99871267 40.01075295 C44.26258547 40.01402211 39.52651648 40.01406055 34.79039478 40.0053997 C30.45402218 39.99755138 26.1177541 39.99894906 21.7813841 40.00768384 C20.21346332 40.00922249 18.6455348 40.00738892 17.07762314 40.00182376 C2.36699027 39.72205386 2.36699027 39.72205386 -10.413661 46.25726891 Z " fill="#000000" transform="translate(56.41366100311279,47.74273109436035)"/>
<path d="M0 0 C7.69491386 4.3605058 7.69491386 4.3605058 10.83984375 6.8125 C11.51208984 7.33199219 12.18433594 7.85148438 12.87695312 8.38671875 C13.55693359 8.91910156 14.23691406 9.45148438 14.9375 10 C16.27911765 11.04273579 17.62161236 12.08434382 18.96484375 13.125 C19.66909988 13.71726379 20.37335602 14.30952759 21.09895325 14.91973877 C23.48978782 16.63414081 25.27547007 17.58214745 27.93156433 18.68011475 C33.13053331 21.15281175 37.05812766 23.95880384 40 29 C42.92145027 40.2308859 41.99924499 52.373682 41.75836897 63.87736225 C41.67852969 68.5286391 41.69174841 73.17965481 41.69522095 77.83148193 C41.68819608 86.63423817 41.6016794 95.4342604 41.48460352 104.23616958 C41.32931793 116.18520994 41.28456668 128.13454732 41.23882031 140.08442259 C41.22779998 142.96007145 41.21640737 145.83571843 41.20474243 148.71136475 C41.20103752 149.64408825 41.1973326 150.57681175 41.19351542 151.5377996 C41.16899959 157.06542894 41.12454775 162.59245294 41.06141448 168.11977434 C41.02263359 171.55954602 40.99105783 174.99936695 40.96007729 178.43921661 C40.94364813 180.02911623 40.9235866 181.61898328 40.89954567 183.20878601 C40.43522828 198.06858576 40.43522828 198.06858576 47 211 C53.10915852 215.65247352 59.38712205 216.12420226 66.83794975 216.12863445 C67.50431853 216.13038749 68.17068731 216.13214053 68.85724908 216.13394669 C71.08803034 216.13859508 73.31874609 216.13614419 75.54953003 216.13371277 C77.1659291 216.13558132 78.78232772 216.1378822 80.39872563 216.14057809 C84.83914672 216.14669694 89.27954898 216.1465624 93.71997333 216.14538372 C98.50943464 216.14517973 103.29888989 216.15069821 108.08834839 216.15544128 C117.47095344 216.16374867 126.8535522 216.16649616 136.23616062 216.16705366 C143.86180864 216.16752874 151.48745459 216.1695831 159.11310196 216.17275429 C180.72943995 216.1815608 202.34577297 216.18617362 223.96211277 216.18542381 C225.71022486 216.18536388 225.71022486 216.18536388 227.49365234 216.18530273 C228.66048184 216.18526185 229.82731134 216.18522097 231.02949931 216.18517885 C249.9447783 216.1847723 268.86003739 216.19434427 287.77531062 216.2084411 C307.19367371 216.22279879 326.61202709 216.22971163 346.03039563 216.22884732 C356.93385542 216.22851516 367.83729435 216.23127067 378.74074936 216.24202538 C388.02305095 216.25112234 397.30532221 216.25331221 406.58762632 216.24651595 C411.32375352 216.2432468 416.05982252 216.24320836 420.79594421 216.2518692 C425.13231682 216.25971752 429.4685849 216.25831985 433.8049549 216.24958507 C435.37287568 216.24804641 436.9408042 216.24987999 438.50871585 216.25544515 C453.2137873 216.53101212 453.2137873 216.53101212 466 210 C470.70744711 203.81865571 471.13515376 197.5031394 471.07073975 189.96783447 C471.06438818 188.94167294 471.06438818 188.94167294 471.0579083 187.89478087 C471.04808424 186.40326405 471.03589868 184.91176132 471.02162361 183.42028046 C470.9984176 180.99227673 470.98128209 178.56429481 470.96574402 176.13623047 C470.94897823 173.51863652 470.93186914 170.90105031 470.91299295 168.28347063 C470.86675407 161.79344957 470.84150037 155.30358521 470.82891846 148.81341553 C470.82708392 147.87015042 470.82524938 146.9268853 470.82335925 145.9550364 C470.81626743 142.06574507 470.80996338 138.17645306 470.80426168 134.28715944 C470.78744337 123.25833266 470.74957549 112.23054163 470.64697266 101.20214844 C470.56551764 92.43263306 470.5300953 83.66429321 470.54848695 74.8943994 C470.55650793 70.25749065 470.54160114 65.62325558 470.4708786 60.98682404 C470.40485002 56.62217972 470.40022438 52.26166652 470.44149208 47.89675903 C470.44591545 46.301198 470.42835043 44.70539035 470.38641167 43.11037445 C470.09687048 31.41412455 470.09687048 31.41412455 473.26634693 27.39363575 C476.79731508 23.98618728 480.81419411 21.52294134 485 19 C486.7406899 17.73140092 488.47053472 16.44749781 490.1796875 15.13671875 C491.74373824 13.98554654 493.30881747 12.83577019 494.875 11.6875 C495.66390625 11.10677734 496.4528125 10.52605469 497.265625 9.92773438 C499.50690474 8.28028208 501.75219476 6.63853441 504 5 C504.6899707 4.49549316 505.37994141 3.99098633 506.09082031 3.47119141 C510.88094244 0 510.88094244 0 512 0 C512.09355487 26.89527774 512.16403389 53.79053099 512.20724869 80.68593884 C512.22784984 93.17471452 512.25592371 105.66338893 512.30175781 118.15209961 C512.34170041 129.04073208 512.36745059 139.92929119 512.37635398 150.81799489 C512.38155612 156.58034145 512.39373217 162.34247818 512.42292023 168.10475731 C512.45020656 173.53594914 512.45841834 178.96684603 512.45243073 184.3980999 C512.45352507 186.38416398 512.46139968 188.37023863 512.4768219 190.35624313 C512.61883163 209.59843208 509.06650701 225.28405586 495.33984375 239.71875 C484.47359087 250.31289304 470.97152336 257.23989451 455.586339 257.25726891 C454.88201629 257.26077498 454.17769359 257.26428105 453.45202777 257.26789337 C451.10407211 257.27715913 448.75636713 257.27229665 446.40840149 257.26742554 C444.70309266 257.27116424 442.99778554 257.27576664 441.29248112 257.28115618 C436.61538262 257.29337451 431.93835571 257.29312709 427.26124489 257.29076743 C422.21336208 257.29035897 417.16550214 257.30140127 412.11763 257.31088257 C402.23095941 257.32748736 392.34431267 257.33299189 382.4576293 257.33410732 C374.41969342 257.33505809 366.38176541 257.33916979 358.34383202 257.34550858 C335.54721007 257.36311989 312.75060695 257.37234767 289.95397816 257.37084763 C288.72530062 257.37076772 287.49662308 257.3706878 286.23071289 257.37060547 C285.00053242 257.37052371 283.77035196 257.37044195 282.50289329 257.37035771 C262.56938417 257.36954493 242.63595063 257.38868073 222.70246337 257.4168822 C202.22744725 257.44562087 181.75246798 257.45942194 161.27743119 257.45769465 C149.78528189 257.45703107 138.29321182 257.46250939 126.8010807 257.48405075 C117.01572489 257.50227549 107.23048422 257.50659924 97.44511876 257.4930319 C92.45514044 257.48650871 87.46538294 257.48636167 82.47542572 257.5037384 C77.90130111 257.51950283 73.32757179 257.51657113 68.75345661 257.49917014 C67.10475217 257.49610765 65.45601798 257.49970413 63.80734865 257.51089029 C45.7599886 257.62516431 30.57539527 252.98190278 17.28125 240.33984375 C6.18255753 228.95608212 -0.35901917 215.13113907 -0.24050903 199.14147949 C-0.24221788 198.2852652 -0.24392673 197.42905091 -0.24568737 196.54689074 C-0.24896393 193.69718914 -0.23800894 190.84772654 -0.22705078 187.99804688 C-0.22648627 185.94763189 -0.22680401 183.89721651 -0.22793579 181.84680176 C-0.22850875 176.29369799 -0.21676359 170.74068092 -0.20278788 165.18759727 C-0.19027107 159.3793418 -0.18910927 153.57108426 -0.18673706 147.76281738 C-0.18052509 136.76994842 -0.16411808 125.77711932 -0.14403808 114.7842679 C-0.12167029 102.26679286 -0.11068343 89.74931589 -0.10064721 77.23182583 C-0.07975163 51.4878618 -0.04458113 25.74393314 0 0 Z " fill="#000000" transform="translate(0,207)"/>
</svg>
