<?xml version="1.0" encoding="UTF-8"?>
<svg version="1.1" xmlns="http://www.w3.org/2000/svg" width="512" height="512">
<path d="M0 0 C1.06863281 0.53496094 2.13726562 1.06992187 3.23828125 1.62109375 C10.63967931 5.62418453 16.55728536 10.65585378 22.51367188 16.53955078 C23.56195595 17.56958286 24.62758022 18.5821112 25.70507812 19.58154297 C30.32580973 23.96567085 33.63171766 28.66215294 36.875 34.125 C37.3596875 34.91003906 37.844375 35.69507813 38.34375 36.50390625 C40.68935396 40.38922231 42.27385636 43.47024684 43 48 C43.84981445 48.26417725 44.69962891 48.52835449 45.57519531 48.80053711 C49.131117 50.04592086 52.40924159 51.54260102 55.796875 53.19140625 C56.4750679 53.52102356 57.1532608 53.85064087 57.852005 54.19024658 C59.35351076 54.92131985 60.85406294 55.65435399 62.35379028 56.3890686 C64.80579031 57.58982069 67.26107961 58.78366339 69.71655273 59.97729492 C80.80329991 65.38478047 91.81806288 70.9263861 102.8069725 76.52913094 C107.3011519 78.81796096 111.80049659 81.09663196 116.29955101 83.37586117 C120.8027177 85.65913828 125.29595955 87.96069878 129.78326893 90.2749691 C132.62294262 91.73425589 135.47087886 93.17681187 138.32118797 94.61519623 C139.66124727 95.29587304 140.99775291 95.98359639 142.3304081 96.67865753 C144.17115123 97.63757493 146.0228439 98.57092685 147.87915039 99.49926758 C148.92067764 100.03264236 149.9622049 100.56601715 151.03529358 101.11555481 C155.68753666 102.50343389 158.62608357 100.68713825 162.79467773 98.60229492 C163.74802002 98.06709229 164.7013623 97.53188965 165.68359375 96.98046875 C166.76543945 96.375979 167.84728516 95.77148926 168.96191406 95.14868164 C170.10885742 94.5014917 171.25580078 93.85430176 172.4375 93.1875 C173.63606721 92.51821466 174.83496481 91.84952067 176.03417969 91.18139648 C181.93923036 87.88468361 187.81108466 84.53954633 193.64453125 81.1171875 C194.67586182 80.51753174 195.70719238 79.91787598 196.76977539 79.30004883 C198.71286932 78.16717429 200.6487028 77.02172549 202.57592773 75.86206055 C207.64511143 72.91477411 211.10144438 71.12670735 217 72 C220.2351133 74.12836401 220.89806563 75.67620847 222.0625 79.375 C221.99541793 83.2657601 221.3243222 84.55965568 218.79077148 87.41162109 C215.02480935 90.75195506 210.45303575 92.84364525 206 95.125 C203.8374332 96.26352201 201.67599581 97.40419154 199.515625 98.546875 C198.42701172 99.11986328 197.33839844 99.69285156 196.21679688 100.28320312 C191.33983864 102.88602419 186.54182803 105.61940298 181.75 108.375 C180.44929565 109.1172583 180.44929565 109.1172583 179.12231445 109.87451172 C175.47939025 111.960712 171.85909272 114.06424454 168.30859375 116.3046875 C167.27863281 116.94664062 166.24867188 117.58859375 165.1875 118.25 C164.35605469 118.79140625 163.52460938 119.3328125 162.66796875 119.890625 C157.96111879 121.84779248 154.16810214 121.82488313 149.48071289 120.04150391 C146.58454429 118.67044676 143.76079348 117.20284812 140.9375 115.6875 C139.0315883 114.68827114 137.12393841 113.69235282 135.21484375 112.69921875 C134.12357178 112.13098389 133.0322998 111.56274902 131.90795898 110.97729492 C127.14403942 108.53909186 122.30315308 106.26297576 117.46875 103.96875 C104.3514884 97.73591918 91.3674872 91.24243065 78.3883667 84.72851562 C75.2837748 83.17097876 72.1779697 81.61586456 69.07226562 80.06054688 C63.04691164 77.04287705 57.0235031 74.02137376 51 71 C51 80.57 51 90.14 51 100 C52.65 100.66 54.3 101.32 56 102 C58.25444199 103.14091123 60.48786559 104.30029859 62.71484375 105.4921875 C63.68117989 106.00560951 63.68117989 106.00560951 64.66703796 106.52940369 C66.75867927 107.64183547 68.84819754 108.75818252 70.9375 109.875 C72.38001369 110.64418414 73.82255947 111.4133081 75.26513672 112.18237305 C83.73201985 116.70038428 92.18985003 121.23549134 100.625 125.8125 C101.49890381 126.28478027 102.37280762 126.75706055 103.27319336 127.24365234 C115.1476637 133.72149555 115.1476637 133.72149555 118 138 C118.47178608 141.61702665 118.41545382 143.37481949 116.37695312 146.44238281 C113.67222959 149.35268312 111.03014223 151.05508695 107.59375 153.046875 C106.96569458 153.41504333 106.33763916 153.78321167 105.69055176 154.16253662 C104.33819976 154.95388386 102.9832474 155.7408009 101.62597656 156.52368164 C98.72262774 158.19840846 95.83188484 159.89437413 92.94018555 161.58911133 C91.45401418 162.45984213 89.96719245 163.3294638 88.47973633 164.19799805 C81.60229245 168.21696883 74.79628752 172.34539989 68 176.5 C58.04369216 182.57473278 48.03657634 188.55891561 38 194.5 C28.0076501 200.41699342 18.03234492 206.36038534 8.10058594 212.37866211 C6.87966069 213.11846549 5.65831519 213.85757581 4.43652344 214.59594727 C2.75317677 215.61376846 1.07185341 216.63493369 -0.609375 217.65625 C-1.55780273 218.23181641 -2.50623047 218.80738281 -3.48339844 219.40039062 C-4.31387695 219.92826172 -5.14435547 220.45613281 -6 221 C-6.72380859 221.45616699 -7.44761719 221.91233398 -8.19335938 222.38232422 C-10.50744859 224.45437221 -11.2162672 226.32336967 -12.296875 229.2265625 C-12.6990625 230.25910156 -13.10125 231.29164063 -13.515625 232.35546875 C-14.3288508 234.50948771 -15.1362919 236.66570086 -15.9375 238.82421875 C-19.3356723 247.50246257 -23.77471344 255.10791406 -32.3125 259.5 C-40.30787039 262.75235406 -50.31766532 263.73299122 -58.625 260.6875 C-61.51654085 259.24172958 -64.24223886 257.6800695 -67 256 C-78.83901974 262.99041706 -90.67314586 269.98901785 -102.5 277 C-110.76775527 281.90105073 -119.03750606 286.79867949 -127.3125 291.6875 C-128.19921387 292.21142334 -129.08592773 292.73534668 -129.99951172 293.27514648 C-134.51554607 295.94303613 -139.03260533 298.60917629 -143.55078125 301.2734375 C-144.4725415 301.81758301 -145.39430176 302.36172852 -146.34399414 302.92236328 C-148.18176179 304.0062122 -150.02077181 305.08795765 -151.86108398 306.16748047 C-156.46586692 308.8759816 -161.02995189 311.63141369 -165.546875 314.484375 C-166.4426123 315.04310303 -167.33834961 315.60183105 -168.26123047 316.17749023 C-169.95191948 317.2350789 -171.63396942 318.30666123 -173.30517578 319.39477539 C-178.50160079 322.62511901 -181.8702328 323.71447178 -188 323 C-190.5 321.5 -190.5 321.5 -192 319 C-192.77403846 313.58173077 -192.77403846 313.58173077 -192 311 C-188.67880478 307.32038358 -185.33391596 304.77915524 -181.046875 302.3203125 C-180.47862 301.99106781 -179.91036499 301.66182312 -179.32489014 301.32260132 C-178.10552314 300.61717438 -176.88412576 299.91524727 -175.66088867 299.21655273 C-173.04416943 297.72180996 -170.43744533 296.21001453 -167.83007812 294.69903564 C-166.49202379 293.92373922 -165.15347911 293.14928845 -163.81445312 292.37567139 C-157.66701683 288.82074308 -151.57838688 285.17163818 -145.5 281.5 C-135.37948293 275.40157334 -125.20114775 269.40768332 -115.0012207 263.44360352 C-106.2127508 258.30380278 -97.44390954 253.13172899 -88.6875 247.9375 C-88.09084534 247.58358185 -87.49419067 247.2296637 -86.87945557 246.86502075 C-83.58572684 244.91098469 -80.29258806 242.95595742 -77 241 C-80.31672863 232.06611258 -83.96395536 223.38424165 -88 214.75 C-88.27967621 214.15083771 -88.55935242 213.55167542 -88.84750366 212.93435669 C-100.4526204 188.12196841 -113.56190621 164.1928547 -128.36987305 141.14477539 C-137.88361374 126.30881758 -144.28076008 109.77121957 -145 92 C-145.0515625 91.22527344 -145.103125 90.45054687 -145.15625 89.65234375 C-145.62729109 76.95386106 -144.38614225 56.87129161 -136.15234375 46.72265625 C-133.07333948 44.25833523 -130.95361142 44.36314034 -127.1328125 44.55859375 C-125 45 -125 45 -122.375 47 C-119.69135746 52.85522009 -122.3407083 59.61467131 -124 65.5625 C-129.72053849 87.49637064 -126.1867102 108.82467845 -115.125 128.46875 C-112.1781885 133.44078331 -109.01934772 138.28236781 -105.90063477 143.14746094 C-99.11742462 153.82247127 -93.06846413 164.90858886 -87 176 C-86.32372559 177.22058105 -86.32372559 177.22058105 -85.63378906 178.46582031 C-78.43916922 191.46780699 -72.34697161 204.95906034 -66.296875 218.51953125 C-65.88024597 219.44741455 -65.88024597 219.44741455 -65.4552002 220.39404297 C-64.0498385 223.54574747 -62.70753374 226.70755113 -61.45507812 229.92333984 C-61.20203918 230.55753342 -60.94900024 231.19172699 -60.68829346 231.84513855 C-59.99847798 233.58483945 -59.32906806 235.33259228 -58.66113281 237.08081055 C-56.64159057 240.62985032 -54.53920692 242.03608427 -51 244 C-47.27946771 244.85444413 -43.89356896 244.33249078 -40.3125 243 C-33.88616599 237.4420895 -30.67786204 228.46706544 -27.09866333 220.92041016 C-25.85583331 218.30096388 -24.60157811 215.68704329 -23.34794617 213.07275391 C-22.72921649 211.78230074 -22.11097492 210.49161341 -21.49324036 209.20068359 C-18.47149023 202.88650124 -15.38874978 196.60700446 -12.20849609 190.37109375 C-11.281467 188.55224394 -10.35797753 186.7315897 -9.43603516 184.91015625 C-0.13274711 166.55648508 9.62270516 148.55441323 20.44140625 131.03515625 C32.03935993 111.8226068 36.54368608 89.28377205 31.5 67.1875 C26.31222971 46.78931205 13.43131273 28.63400776 -4.640625 17.74609375 C-23.73969158 6.80585173 -44.92528521 3.48354058 -66.4375 8.5625 C-80.56365918 12.65982575 -94.78858731 19.96914886 -104.6875 31 C-107.12652774 33.56801478 -108.61831555 34.48065798 -112.1875 34.625 C-117.89952996 33.68860165 -117.89952996 33.68860165 -120 31 C-121.52989794 26.24926429 -121.52989794 26.24926429 -121 23 C-119.08973092 19.88915932 -116.61848135 17.52150056 -114 15 C-113.49339844 14.42507812 -112.98679687 13.85015625 -112.46484375 13.2578125 C-85.10731849 -17.10834086 -34.02565662 -17.31621208 0 0 Z M46 117 C45.62230469 117.94617188 45.24460937 118.89234375 44.85546875 119.8671875 C40.64582391 130.09828945 35.39134645 139.28475931 29.49121094 148.62304688 C22.82579306 159.2475571 16.44503069 170.05998534 10.3125 181 C9.89025146 181.74765625 9.46800293 182.4953125 9.03295898 183.265625 C8.64696533 183.96171875 8.26097168 184.6578125 7.86328125 185.375 C7.52594971 185.98085937 7.18861816 186.58671875 6.84106445 187.2109375 C5.94526317 189.11643295 5.44419025 190.94615023 5 193 C8.86140222 191.56594155 12.29785785 189.76853075 15.84765625 187.68359375 C16.40802582 187.35539139 16.96839539 187.02718903 17.54574585 186.68904114 C19.38689229 185.60893573 21.22479207 184.52344391 23.0625 183.4375 C24.35876571 182.67473733 25.6550717 181.91204313 26.95141602 181.14941406 C36.99252401 175.23133667 46.96555278 169.20352919 56.91210938 163.12817383 C65.3289402 157.99048902 73.80112857 152.95367983 82.33959961 148.02050781 C83.1775708 147.53163086 84.01554199 147.04275391 84.87890625 146.5390625 C85.6066626 146.11834473 86.33441895 145.69762695 87.08422852 145.26416016 C88.98486596 144.0099865 90.45637308 142.66647403 92 141 C91.23558594 140.59273682 90.47117187 140.18547363 89.68359375 139.76586914 C86.12139316 137.86661824 82.5604088 135.96510708 79 134.0625 C78.3621759 133.72185516 77.72435181 133.38121033 77.06719971 133.03024292 C68.79684248 128.61052827 60.55144419 124.15630906 52.4453125 119.43969727 C49.42040601 117.57821584 49.42040601 117.57821584 46 117 Z " fill="#000000" transform="translate(224,61)"/>
<path d="M0 0 C2.8550188 1.32263601 5.67562873 2.69451808 8.47720337 4.12680054 C11.04282966 5.43806449 13.62569477 6.71367296 16.2077179 7.99226379 C17.54608278 8.65549706 18.88355164 9.32054137 20.22013855 9.98735046 C26.55508822 13.14411105 32.96635893 16.12404328 39.39868164 19.0769043 C51.28886858 24.56395161 63.1309808 30.14932304 74.96118164 35.7644043 C75.81112701 36.16718597 76.66107239 36.56996765 77.53677368 36.98495483 C82.329319 39.25673336 87.11626752 41.5395996 91.89562988 43.83898926 C93.33716423 44.5302349 94.78056602 45.21760183 96.22595215 45.90075684 C98.18666309 46.82761936 100.14088008 47.76697539 102.09399414 48.7097168 C103.18599121 49.23065918 104.27798828 49.75160156 105.40307617 50.28833008 C108.13826579 51.92048417 109.49396961 53.15730555 111.08618164 55.8894043 C111.77162102 59.91636067 111.43584307 61.38676599 109.08618164 64.7644043 C105.98923677 66.95807358 104.32868418 67.4570356 100.58032227 67.34448242 C95.58772555 66.43353878 91.17792531 63.94391419 86.69158936 61.65036011 C84.14064768 60.34635806 81.57283364 59.07725813 79.00570679 57.80549622 C77.67330016 57.14499419 76.34178291 56.48269516 75.01113892 55.81864929 C68.38922236 52.51910794 61.6847882 49.41407604 54.96118164 46.3269043 C45.60830877 42.01257184 36.29938455 37.61723957 27.02368164 33.1394043 C25.3505188 32.33575439 25.3505188 32.33575439 23.64355469 31.51586914 C18.53231699 29.05710716 13.4394036 26.57261031 8.38305664 24.00268555 C7.51302002 23.56859375 6.6429834 23.13450195 5.74658203 22.68725586 C4.15416325 21.89175393 2.56922553 21.08100291 0.99414062 20.25170898 C0.29619385 19.9065625 -0.40175293 19.56141602 -1.12084961 19.20581055 C-1.71357666 18.90102783 -2.30630371 18.59624512 -2.91699219 18.28222656 C-7.89131119 17.30366203 -12.5428625 20.68645524 -16.60522461 23.20581055 C-17.7002832 23.879104 -18.7953418 24.55239746 -19.92358398 25.24609375 C-20.50148682 25.60498688 -21.07938965 25.96388 -21.67480469 26.33364868 C-24.78913612 28.26681115 -27.91628103 30.17903939 -31.04272461 32.0925293 C-31.6899649 32.48918289 -32.3372052 32.88583649 -33.00405884 33.29450989 C-39.91981808 37.52310141 -46.91135144 41.61907098 -53.91381836 45.7019043 C-56.32429949 47.10890054 -58.73442455 48.51650512 -61.14428711 49.92456055 C-61.72111237 50.26155472 -62.29793762 50.59854889 -62.89224243 50.945755 C-68.35774421 54.14237162 -73.79776296 57.38051925 -79.22631836 60.6394043 C-80.00168945 61.10451416 -80.77706055 61.56962402 -81.57592773 62.04882812 C-86.38740825 64.94500212 -91.16094601 67.8980748 -95.91381836 70.8894043 C-92.88394886 73.29771618 -89.78091583 75.10847092 -86.34350586 76.8815918 C-85.77464661 77.1757045 -85.20578735 77.4698172 -84.61968994 77.77284241 C-82.67824586 78.77432778 -80.73367465 79.76956311 -78.78881836 80.7644043 C-77.76253326 81.2918071 -77.76253326 81.2918071 -76.71551514 81.8298645 C-66.01086792 87.32995954 -55.25730193 92.7319997 -44.49194336 98.11206055 C-43.54456739 98.58554176 -43.54456739 98.58554176 -42.57805252 99.06858826 C-36.18437957 102.26341481 -29.78892471 105.45462744 -23.38948441 108.637887 C-1.42202795 119.56671572 -1.42202795 119.56671572 8.53930664 124.8737793 C16.29161352 129.00337189 24.14103296 132.92599379 32.01586914 136.81518555 C33.24462195 137.42308325 34.47333081 138.03106981 35.70199585 138.6391449 C40.74064023 141.13175013 45.77963391 143.62352907 50.8269043 146.09863281 C53.96544412 147.63813845 57.09895925 149.18747366 60.22943497 150.74330711 C61.97241139 151.60617169 63.72063225 152.45841688 65.46896362 153.31037903 C77.64559591 159.37797657 77.64559591 159.37797657 80.08618164 165.3269043 C80.08618164 168.82399164 78.89612756 170.93986279 77.08618164 173.8894043 C73.83851582 175.51323721 70.60428678 175.34327758 67.08618164 174.8894043 C63.82232797 173.77971661 60.83580626 172.2435754 57.78540039 170.6472168 C56.90954788 170.20481659 56.03369537 169.76241638 55.13130188 169.30661011 C52.33755005 167.89076941 49.55578243 166.45297993 46.77368164 165.0144043 C44.94824223 164.08587957 43.12207517 163.15878391 41.29516602 162.2331543 C33.62429228 158.33489076 25.98681994 154.37640051 18.3874054 150.34066772 C4.09092224 142.75287689 -10.42381107 135.59795132 -24.91381836 128.3894043 C-30.33176943 125.69406024 -35.74889589 122.99707849 -41.16381836 120.2956543 C-41.8191153 119.96880772 -42.47441223 119.64196114 -43.14956665 119.30521011 C-51.50655675 115.13364363 -59.81254597 110.88023834 -68.05615234 106.48812866 C-74.22308134 103.21665427 -80.46434846 100.10730418 -86.72631836 97.0222168 C-87.72614746 96.52860657 -88.72597656 96.03499634 -89.75610352 95.52642822 C-93.86050829 93.50123719 -97.96560754 91.47768137 -102.07788086 89.46850586 C-105.13192051 87.97464093 -108.17952908 86.46830188 -111.22631836 84.9597168 C-112.15742432 84.50863556 -113.08853027 84.05755432 -114.04785156 83.59280396 C-115.33695435 82.95095657 -115.33695435 82.95095657 -116.65209961 82.29614258 C-117.78192261 81.74182053 -117.78192261 81.74182053 -118.93457031 81.17630005 C-121.25515005 79.66747239 -122.47753939 78.25001405 -123.91381836 75.8894043 C-124.71467894 70.92406869 -124.71467894 70.92406869 -123.91381836 67.8894043 C-118.43857599 62.36847145 -111.9742412 58.84617862 -105.22631836 55.0769043 C-102.88355383 53.747608 -100.54209085 52.41632308 -98.20288086 51.08081055 C-97.60172958 50.7381012 -97.00057831 50.39539185 -96.38121033 50.04229736 C-89.87970641 46.32219506 -83.48917262 42.42535618 -77.10131836 38.5144043 C-67.32643526 32.53712459 -57.49524002 26.66759047 -47.60131836 20.8894043 C-46.98611328 20.53005798 -46.3709082 20.17071167 -45.73706055 19.80047607 C-44.52670194 19.09356127 -43.3163343 18.38666192 -42.10595703 17.67977905 C-36.42137484 14.35985097 -30.74617778 11.02646699 -25.10131836 7.6394043 C-23.43456055 6.64360352 -23.43456055 6.64360352 -21.73413086 5.62768555 C-19.97305367 4.54225709 -18.23358681 3.41993301 -16.53100586 2.24487305 C-15.85295898 1.77694336 -15.17491211 1.30901367 -14.47631836 0.8269043 C-13.96198242 0.44405273 -13.44764648 0.06120117 -12.91772461 -0.33325195 C-8.27327822 -2.1348988 -4.54671794 -1.73297192 0 0 Z " fill="#000000" transform="translate(326.913818359375,254.110595703125)"/>
<path d="M0 0 C1.26894041 0.62069181 2.53283093 1.25178429 3.79223633 1.89160156 C4.48236313 2.23183853 5.17248993 2.5720755 5.88352966 2.92262268 C7.36349795 3.65333746 8.84133768 4.38837659 10.31719971 5.12734985 C14.26526597 7.10368086 18.22909251 9.04801391 22.19067383 10.99707031 C22.98604553 11.3894841 23.78141724 11.78189789 24.60089111 12.186203 C31.37075971 15.51978431 38.19947545 18.70537885 45.06176758 21.84472656 C57.68696656 27.64209729 70.15773677 33.73753061 82.63092041 39.85317993 C93.18408574 45.02510231 103.75320206 50.13398533 114.43676758 55.03222656 C126.92800002 60.75925371 139.26395165 66.78523286 151.59933472 72.83889771 C163.94389249 78.8952589 176.32855236 84.83172091 188.86254883 90.48730469 C204.46759026 97.59387192 204.46759026 97.59387192 206.43676758 101.53222656 C206.72071036 104.46630199 206.92670759 106.6826904 206.43676758 109.53222656 C203.84422785 112.67469896 202.3131295 113.44236925 198.26757812 113.85717773 C193.55919863 113.45778617 190.36145283 111.96940463 186.20629883 109.83300781 C185.42729721 109.44691849 184.64829559 109.06082916 183.84568787 108.66304016 C182.17639541 107.83395931 180.5101722 106.9986749 178.84680176 106.15777588 C175.32032073 104.37514544 171.77929331 102.62238406 168.23855591 100.86828613 C166.45696535 99.98555617 164.67610043 99.10136015 162.89596558 98.21569824 C155.88313842 94.73157145 148.81172601 91.40664355 141.68676758 88.15722656 C128.71222192 82.21060043 115.91015314 75.92712327 103.09857178 69.63925171 C92.21931405 64.3021265 81.32841575 59.01864184 70.31176758 53.96972656 C59.53654711 49.03118638 48.87220894 43.88572211 38.22506714 38.67785645 C35.53150398 37.36049269 32.83691817 36.0452422 30.14208984 34.73046875 C22.86692153 31.17883114 15.59635653 27.62060161 8.35864258 23.99316406 C6.48885526 23.0686761 4.61906411 22.14419589 2.74926758 21.21972656 C1.95593018 20.81149658 1.16259277 20.4032666 0.34521484 19.98266602 C-4.19165099 17.75889231 -6.6979926 17.30647321 -11.56323242 18.53222656 C-14.58231765 19.95222374 -14.58231765 19.95222374 -17.61401367 21.82128906 C-18.18089905 22.15623886 -18.74778442 22.49118866 -19.33184814 22.83628845 C-21.185241 23.93441066 -23.03035753 25.0456926 -24.87573242 26.15722656 C-26.17919799 26.93270815 -27.48316045 27.7073551 -28.78759766 28.48120117 C-32.72062668 30.81859442 -36.64327481 33.17299282 -40.56323242 35.53222656 C-41.66860352 36.19722168 -42.77397461 36.8622168 -43.9128418 37.54736328 C-50.02017958 41.22394387 -50.02017958 41.22394387 -56.12524414 44.90429688 C-64.35382288 49.85069714 -72.66154474 54.65064034 -81.00073242 59.40722656 C-81.62021759 59.76060089 -82.23970276 60.11397522 -82.87796021 60.47805786 C-96.21573631 68.0794245 -96.21573631 68.0794245 -102.56323242 67.53222656 C-105.56666138 65.47724886 -106.39610598 64.05588942 -107.50073242 60.59472656 C-107.57800748 56.80824857 -106.78750222 55.56761865 -104.56323242 52.53222656 C-101.90625 50.546875 -101.90625 50.546875 -98.70776367 48.64160156 C-97.84731445 48.12299057 -97.84731445 48.12299057 -96.96948242 47.59390259 C-95.11158351 46.47835562 -93.24411711 45.38010428 -91.37573242 44.28222656 C-90.08382403 43.51171901 -88.7924033 42.74039323 -87.50146484 41.96826172 C-80.5842756 37.84389973 -73.62478635 33.79789674 -66.57006836 29.9128418 C-60.49266074 26.54896011 -54.56862661 22.93941296 -48.62573242 19.34472656 C-44.27727649 16.73092967 -39.9222724 14.1283307 -35.56323242 11.53222656 C-34.99558167 11.19334412 -34.42793091 10.85446167 -33.84307861 10.50531006 C-29.89248006 8.14985412 -25.92041784 5.83404573 -21.93823242 3.53222656 C-20.90190674 2.91452393 -19.86558105 2.29682129 -18.79785156 1.66040039 C-17.33206665 0.82351685 -17.33206665 0.82351685 -15.83666992 -0.03027344 C-14.98508301 -0.5265625 -14.13349609 -1.02285156 -13.25610352 -1.53417969 C-8.41087351 -3.21397656 -4.61687221 -1.90179073 0 0 Z " fill="#000000" transform="translate(171.563232421875,348.4677734375)"/>
<path d="M0 0 C9.66361857 8.45362234 17.05359511 22.50263145 18.21533203 35.38842773 C19.05061528 52.90739481 16.16052597 68.23322883 4.8125 82.1875 C-5.17957511 92.90427507 -19.04695451 100.56876168 -33.8125 101.37109375 C-52.56071829 101.81525353 -67.65999417 97.90791718 -81.75 84.8125 C-93.83253004 72.01669001 -97.63350008 57.16187306 -97.47290039 40.05004883 C-97.23268753 32.52142636 -96.06924176 25.92992322 -93 19 C-92.61070313 18.07445312 -92.22140625 17.14890625 -91.8203125 16.1953125 C-85.17551264 2.31593764 -73.25771409 -6.90121483 -59 -12 C-37.81040689 -18.687132 -17.09730635 -13.92176358 0 0 Z M-71 16 C-75.45244434 21.54198366 -78.19238312 27.14724346 -80 34 C-80.226875 34.825 -80.45375 35.65 -80.6875 36.5 C-82.11157368 47.89258947 -79.48556025 58.68383634 -72.61328125 68.01171875 C-72.08089844 68.66785156 -71.54851562 69.32398438 -71 70 C-70.49855469 70.62519531 -69.99710938 71.25039062 -69.48046875 71.89453125 C-62.40398636 79.79746414 -52.60854742 83.67618984 -42.23046875 84.87890625 C-30.24864197 85.32804365 -20.6952946 81.40466524 -11.6875 73.6875 C-7.6087692 69.81973804 -4.43991273 66.06827401 -2 61 C-1.68289062 60.37222656 -1.36578125 59.74445313 -1.0390625 59.09765625 C2.70665627 50.14573204 2.42366497 38.08349492 -0.625 28.9375 C-5.27845547 18.20374556 -13.4754406 9.66882269 -24.25 5.0625 C-40.82765066 -1.40629225 -58.72918849 3.02295474 -71 16 Z " fill="#000000" transform="translate(217,104)"/>
<path d="M0 0 C2.375 1.5625 2.375 1.5625 4 4 C4.55852776 6.775541 4.72907902 9.25523194 4 12 C0.9990618 15.4518866 -2.48593914 17.68514744 -6.40625 19.94921875 C-7.03439606 20.31884735 -7.66254211 20.68847595 -8.3097229 21.06930542 C-9.66314436 21.86498154 -11.01815043 22.65796727 -12.37457275 23.44851685 C-16.01478443 25.57051888 -19.64313342 27.71267096 -23.2734375 29.8515625 C-24.01189911 30.28588089 -24.75036072 30.72019928 -25.51119995 31.16767883 C-32.42148233 35.23590331 -39.2790413 39.3871958 -46.125 43.5625 C-56.31036868 49.76787168 -66.52026875 55.93054549 -76.75 62.0625 C-77.42081604 62.464617 -78.09163208 62.86673401 -78.78277588 63.28103638 C-82.52123438 65.52172058 -86.26033048 67.76133737 -90 70 C-79.10260149 75.83985967 -68.11544632 81.47583187 -57.03515625 86.9609375 C-55.80632107 87.57012057 -54.57751058 88.17935343 -53.34872437 88.78863525 C-48.29637145 91.29261726 -43.2431092 93.79468825 -38.18383789 96.28466797 C-35.0397196 97.83244905 -31.89957697 99.38804674 -28.76186943 100.94878006 C-27.01207505 101.81639221 -25.25803957 102.6754342 -23.50392151 103.53427124 C-22.44438766 104.06227325 -21.38485382 104.59027527 -20.29321289 105.13427734 C-19.36456924 105.59264984 -18.4359256 106.05102234 -17.47914124 106.52328491 C-14.83737619 108.09686783 -12.9703725 109.64108367 -11 112 C-10.40827207 116.06812955 -10.62723511 118.27000208 -12.5 121.9375 C-15.38220971 124.31532301 -17.0647292 124.43167658 -20.73357201 124.32521629 C-24.96601322 123.71789109 -28.53110577 121.78464435 -32.3059082 119.85668945 C-33.19958603 119.41605667 -34.09326385 118.97542389 -35.01402283 118.5214386 C-37.95112355 117.06788358 -40.87599892 115.59144705 -43.80078125 114.11328125 C-45.84432705 113.09293373 -47.88837692 112.07359517 -49.9329071 111.05522156 C-54.20894935 108.92083593 -58.47910804 106.77522027 -62.74536133 104.62133789 C-68.21409871 101.86135057 -73.69584958 99.12845419 -79.18217182 96.40362263 C-83.40205863 94.30438126 -87.61508947 92.19167779 -91.82613182 90.07475853 C-93.84515303 89.06165643 -95.86620809 88.05259716 -97.88930702 87.04766273 C-100.71360787 85.64204516 -103.52825846 84.2187339 -106.34106445 82.7902832 C-107.59643509 82.17204681 -107.59643509 82.17204681 -108.87716675 81.5413208 C-113.17870606 79.33112263 -116.13636196 77.71006287 -118 73 C-118 69.4375 -118 69.4375 -117 66 C-113.49140056 62.79732532 -109.58228914 60.44895464 -105.49609375 58.05078125 C-104.86900009 57.68092606 -104.24190643 57.31107086 -103.59580994 56.93000793 C-102.24742349 56.13508922 -100.89805236 55.34183883 -99.54779053 54.55010986 C-95.93450433 52.43104683 -92.32878964 50.29917403 -88.72265625 48.16796875 C-87.98893799 47.73468262 -87.25521973 47.30139648 -86.49926758 46.85498047 C-79.42204595 42.67010696 -72.39400558 38.40656379 -65.375 34.125 C-55.256918 27.95741765 -45.08885127 21.88247191 -34.875 15.875 C-31.10502375 13.65667282 -27.34964844 11.41570738 -23.60449219 9.15576172 C-21.78627286 8.05955052 -19.96413071 6.97020047 -18.140625 5.8828125 C-16.1816294 4.70838977 -14.23186701 3.51825185 -12.296875 2.3046875 C-7.91574809 -0.35010132 -5.10732783 -2.01917612 0 0 Z " fill="#000000" transform="translate(476,162)"/>
</svg>
