<?xml version="1.0" encoding="UTF-8"?>
<svg version="1.1" xmlns="http://www.w3.org/2000/svg" width="86" height="76">
<path d="M0 0 C28.38 0 56.76 0 86 0 C86 25.08 86 50.16 86 76 C57.62 76 29.24 76 0 76 C0 50.92 0 25.84 0 0 Z " fill="#FAF6F6" transform="translate(0,0)"/>
<path d="M0 0 C0.66 0 1.32 0 2 0 C5 4.38461538 5 4.38461538 5 7 C6.65 6.67 8.3 6.34 10 6 C10 9.3 10 12.6 10 16 C10.61875 15.34 11.2375 14.68 11.875 14 C14 12 14 12 16 12 C16.495 12.99 16.495 12.99 17 14 C19.31 14 21.62 14 24 14 C23.79375 15.11375 23.5875 16.2275 23.375 17.375 C23.189375 19.169375 23.189375 19.169375 23 21 C23.66 21.66 24.32 22.32 25 23 C24.2059375 23.53109375 23.411875 24.0621875 22.59375 24.609375 C21.5728125 25.31578125 20.551875 26.0221875 19.5 26.75 C18.4790625 27.44609375 17.458125 28.1421875 16.40625 28.859375 C15.6121875 29.56578125 14.818125 30.2721875 14 31 C14 32.32 14 33.64 14 35 C5.42857143 35.14285714 5.42857143 35.14285714 2 34 C2 36.64 2 39.28 2 42 C1.01 42 0.02 42 -1 42 C-1 39.36 -1 36.72 -1 34 C-1.99 34.495 -1.99 34.495 -3 35 C-4.54023996 35.06950541 -6.08334988 35.08452357 -7.625 35.0625 C-8.85089844 35.04896484 -8.85089844 35.04896484 -10.1015625 35.03515625 C-10.72804688 35.02355469 -11.35453125 35.01195312 -12 35 C-12.23460937 34.25363281 -12.46921875 33.50726563 -12.7109375 32.73828125 C-14.2216268 29.52921094 -15.77866829 28.26125596 -18.625 26.1875 C-19.44226563 25.58292969 -20.25953125 24.97835937 -21.1015625 24.35546875 C-22.04128906 23.68451172 -22.04128906 23.68451172 -23 23 C-22.835 22.071875 -22.67 21.14375 -22.5 20.1875 C-21.92251612 17.04378647 -21.92251612 17.04378647 -22 14 C-19.69 14.33 -17.38 14.66 -15 15 C-14.67 14.01 -14.34 13.02 -14 12 C-11.69 13.65 -9.38 15.3 -7 17 C-7.33 13.37 -7.66 9.74 -8 6 C-5.525 6.495 -5.525 6.495 -3 7 C-2.690625 6.21625 -2.38125 5.4325 -2.0625 4.625 C-1 2 -1 2 0 0 Z " fill="#9B0908" transform="translate(44,14)"/>
<path d="M0 0 C2 1 2 1 3 3 C3.33 3.33 3.66 3.66 4 4 C3.67 4.66 3.34 5.32 3 6 C2.01 6 1.02 6 0 6 C-0.66 6.825 -1.32 7.65 -2 8.5 C-2.66 9.325 -3.32 10.15 -4 11 C-4.99 11 -5.98 11 -7 11 C-7.33 12.65 -7.66 14.3 -8 16 C-8.66 16 -9.32 16 -10 16 C-10.33 17.32 -10.66 18.64 -11 20 C-13.475 19.01 -13.475 19.01 -16 18 C-15.67 16.35 -15.34 14.7 -15 13 C-13.68 13 -12.36 13 -11 13 C-11 11.35 -11 9.7 -11 8 C-9.35 8.33 -7.7 8.66 -6 9 C-6.66 7.68 -7.32 6.36 -8 5 C-7.34 4.34 -6.68 3.68 -6 3 C-5.01 3 -4.02 3 -3 3 C-3 2.34 -3 1.68 -3 1 C-2.01 0.67 -1.02 0.34 0 0 Z " fill="#BC6364" transform="translate(28,7)"/>
<path d="M0 0 C1.67542976 0.28604898 3.34385343 0.61781233 5 1 C4.360625 1.12375 3.72125 1.2475 3.0625 1.375 C2.381875 1.58125 1.70125 1.7875 1 2 C0.67 2.66 0.34 3.32 0 4 C2.41645782 4.16687448 2.41645782 4.16687448 5 4 C5.66 3.34 6.32 2.68 7 2 C7.99 2 8.98 2 10 2 C10.33 3.32 10.66 4.64 11 6 C12.32 5.34 13.64 4.68 15 4 C16.0625 5.875 16.0625 5.875 17 8 C16.67 8.66 16.34 9.32 16 10 C17.98 9.67 19.96 9.34 22 9 C21.34 10.65 20.68 12.3 20 14 C19.34 14 18.68 14 18 14 C18 13.34 18 12.68 18 12 C17.4225 11.87625 16.845 11.7525 16.25 11.625 C13.96723766 10.99089935 12.08552799 10.11228159 10 9 C9.34 8.67 8.68 8.34 8 8 C8 7.34 8 6.68 8 6 C5.36 6 2.72 6 0 6 C-0.38218767 4.34385343 -0.71395102 2.67542976 -1 1 C-0.67 0.67 -0.34 0.34 0 0 Z " fill="#B65353" transform="translate(48,4)"/>
<path d="M0 0 C1.32 0.66 2.64 1.32 4 2 C4 2.99 4 3.98 4 5 C4.66 5.33 5.32 5.66 6 6 C6 6.99 6 7.98 6 9 C4.35 9.66 2.7 10.32 1 11 C1 10.34 1 9.68 1 9 C0.34 8.360625 -0.32 7.72125 -1 7.0625 C-3 5 -3 5 -3 2 C-2.01 1.34 -1.02 0.68 0 0 Z " fill="#BD6565" transform="translate(71,16)"/>
<path d="M0 0 C2.475 0.99 2.475 0.99 5 2 C5 2.66 5 3.32 5 4 C3.02 4.99 3.02 4.99 1 6 C1 6.66 1 7.32 1 8 C0.01 8 -0.98 8 -2 8 C-2 8.99 -2 9.98 -2 11 C-2.66 11 -3.32 11 -4 11 C-4.33 9.02 -4.66 7.04 -5 5 C-3.68 5 -2.36 5 -1 5 C-1.33 4.01 -1.66 3.02 -2 2 C-1.34 1.34 -0.68 0.68 0 0 Z " fill="#B44F4E" transform="translate(69,49)"/>
<path d="M0 0 C2 1 2 1 3 3 C3.33 3.33 3.66 3.66 4 4 C3.67 4.66 3.34 5.32 3 6 C2.01 6 1.02 6 0 6 C-1.68798827 7.43750191 -1.68798827 7.43750191 -3 9 C-6 5.25 -6 5.25 -6 3 C-5.01 3 -4.02 3 -3 3 C-3 2.34 -3 1.68 -3 1 C-2.01 0.67 -1.02 0.34 0 0 Z " fill="#D39B9B" transform="translate(28,7)"/>
<path d="M0 0 C1.32 0.66 2.64 1.32 4 2 C4 2.66 4 3.32 4 4 C4.66 4 5.32 4 6 4 C6 4.66 6 5.32 6 6 C4.35 6.66 2.7 7.32 1 8 C1 7.34 1 6.68 1 6 C0.34 5.67 -0.32 5.34 -1 5 C-0.67 4.34 -0.34 3.68 0 3 C-0.99 2.67 -1.98 2.34 -3 2 C-2.01 1.34 -1.02 0.68 0 0 Z " fill="#B34E4F" transform="translate(18,48)"/>
<path d="M0 0 C2.125 0.375 2.125 0.375 4 1 C3.67 2.65 3.34 4.3 3 6 C1.68 6 0.36 6 -1 6 C-1.625 4.125 -1.625 4.125 -2 2 C-1.34 1.34 -0.68 0.68 0 0 Z " fill="#BE6868" transform="translate(24,54)"/>
<path d="M0 0 C2.0625 0.4375 2.0625 0.4375 4 1 C4.33 2.32 4.66 3.64 5 5 C1.86650268 6.04449911 1.01031744 5.93423645 -2 5 C-1.125 1.125 -1.125 1.125 0 0 Z " fill="#BE6868" transform="translate(74,39)"/>
<path d="M0 0 C1.65 0.33 3.3 0.66 5 1 C4.67 2.98 4.34 4.96 4 7 C1.525 6.01 1.525 6.01 -1 5 C-0.67 3.35 -0.34 1.7 0 0 Z " fill="#AF4242" transform="translate(13,20)"/>
<path d="M0 0 C0 1.32 0 2.64 0 4 C-0.66 4 -1.32 4 -2 4 C-2 4.66 -2 5.32 -2 6 C-2.99 6 -3.98 6 -5 6 C-5.33 4.68 -5.66 3.36 -6 2 C-3 0 -3 0 0 0 Z " fill="#B75454" transform="translate(18,43)"/>
<path d="M0 0 C2 0 4 0 6 0 C6 1.65 6 3.3 6 5 C4.35 5.33 2.7 5.66 1 6 C0.67 4.02 0.34 2.04 0 0 Z " fill="#B34D4D" transform="translate(37,4)"/>
<path d="M0 0 C0.66 0.33 1.32 0.66 2 1 C2 4 2 4 1 7 C-0.32 7 -1.64 7 -3 7 C-2.625 4.0625 -2.625 4.0625 -2 1 C-1.34 0.67 -0.68 0.34 0 0 Z " fill="#B34C4C" transform="translate(37,58)"/>
<path d="M0 0 C2.31 0 4.62 0 7 0 C6.34 1.65 5.68 3.3 5 5 C4.34 5 3.68 5 3 5 C3 4.34 3 3.68 3 3 C1.68 2.67 0.36 2.34 -1 2 C-0.67 1.34 -0.34 0.68 0 0 Z " fill="#B65454" transform="translate(63,13)"/>
<path d="M0 0 C-0.33 1.65 -0.66 3.3 -1 5 C-3.475 4.01 -3.475 4.01 -6 3 C-6 2.34 -6 1.68 -6 1 C-4 0 -4 0 0 0 Z " fill="#B55252" transform="translate(80,34)"/>
<path d="M0 0 C0.66 0 1.32 0 2 0 C2.66 1.32 3.32 2.64 4 4 C2.02 4.99 2.02 4.99 0 6 C-0.66 4.68 -1.32 3.36 -2 2 C-1.34 1.34 -0.68 0.68 0 0 Z " fill="#AB3838" transform="translate(61,8)"/>
<path d="M0 0 C0.66 0 1.32 0 2 0 C2.33 1.65 2.66 3.3 3 5 C1.35 5.33 -0.3 5.66 -2 6 C-1.34 4.02 -0.68 2.04 0 0 Z " fill="#B34A4B" transform="translate(45,60)"/>
<path d="M0 0 C2 1 2 1 3 3 C3.33 3.33 3.66 3.66 4 4 C3.67 4.66 3.34 5.32 3 6 C1.68 5.67 0.36 5.34 -1 5 C-1.33 3.68 -1.66 2.36 -2 1 C-1.34 0.67 -0.68 0.34 0 0 Z " fill="#AF4241" transform="translate(28,7)"/>
<path d="M0 0 C2 3 2 3 2 5 C1.01 5 0.02 5 -1 5 C-1 5.66 -1 6.32 -1 7 C-1.99 6.67 -2.98 6.34 -4 6 C-4 5.34 -4 4.68 -4 4 C-3.01 4 -2.02 4 -1 4 C-0.67 2.68 -0.34 1.36 0 0 Z " fill="#E4C6C6" transform="translate(63,54)"/>
<path d="M0 0 C2.97 0.495 2.97 0.495 6 1 C5.01 1.495 5.01 1.495 4 2 C4 2.99 4 3.98 4 5 C2.68 4.34 1.36 3.68 0 3 C0 2.01 0 1.02 0 0 Z " fill="#AF4141" transform="translate(71,45)"/>
<path d="M0 0 C1.98 0 3.96 0 6 0 C6 0.99 6 1.98 6 3 C4.68 3.33 3.36 3.66 2 4 C2 3.01 2 2.02 2 1 C1.34 0.67 0.68 0.34 0 0 Z " fill="#AE4040" transform="translate(10,39)"/>
</svg>
