<?xml version="1.0" encoding="UTF-8"?>
<svg version="1.1" xmlns="http://www.w3.org/2000/svg" width="512" height="512">
<path d="M0 0 C10.34961736 7.29922016 19.65714234 16.29489057 27.6875 26.0625 C28.55683514 27.0835312 29.42810345 28.10291805 30.30078125 29.12109375 C45.6875 47.10116827 45.6875 47.10116827 45.6875 50.0625 C46.27273438 50.34996094 46.85796875 50.63742188 47.4609375 50.93359375 C48.81712277 51.62120348 50.16044946 52.33614979 51.4765625 53.09765625 C60.61391523 58.21068554 69.66152876 57.05990684 79.6875 55.625 C101.80963634 52.79731068 128.35346308 50.05151378 147.671875 63.4375 C157.30916582 71.01554065 160.40786994 82.03113767 162.28125 93.7890625 C162.86305784 98.99536868 162.92060838 104.20315759 162.9375 109.4375 C162.94144775 110.51588135 162.94539551 111.5942627 162.94946289 112.70532227 C162.88462718 121.97148126 161.9765574 131.03819035 160.66699219 140.20654297 C159.36541756 149.70260192 158.94131999 158.89954428 164.6875 167.0625 C167.85761722 170.43008244 171.21443866 173.41256996 174.8125 176.3125 C176.25882812 177.48619141 176.25882812 177.48619141 177.734375 178.68359375 C179.61696777 180.20012681 181.5021211 181.71349056 183.390625 183.22265625 C200.54558734 197.04193146 222.10487964 214.80091139 225.06640625 238.03515625 C225.76672314 255.54307859 214.46975706 269.11387844 203.27246094 281.38427734 C193.9821784 291.22121544 183.29252194 299.77253932 172.3125 307.625 C165.36956911 312.79622443 161.09020182 318.36574873 159.6875 327.0625 C159.74389063 330.97037055 160.08606167 334.83722063 160.46240234 338.72607422 C165.92505742 395.42630102 165.92505742 395.42630102 153.5625 412.9375 C144.20194919 423.97814967 131.10290923 426.33685327 117.48046875 427.73046875 C107.71498978 428.5308332 98.05282328 427.98047686 88.3125 427.125 C87.22050293 427.03653809 86.12850586 426.94807617 85.00341797 426.85693359 C80.44210218 426.48603427 75.88862571 426.10478906 71.34375 425.56640625 C63.72739375 424.74916448 57.44330282 425.12985381 50.6875 429.0625 C46.92204819 432.50129589 43.64523801 436.34611694 40.375 440.25 C39.89208496 440.82242432 39.40916992 441.39484863 38.91162109 441.98461914 C36.14678409 445.27515166 33.45568329 448.61044011 30.8125 452 C18.95731221 466.88565502 2.37481096 486.62259543 -17.3125 490.0625 C-32.69978621 491.52621331 -43.53031362 486.58795731 -55.3125 477.0625 C-62.89083614 470.61534941 -69.98605254 463.74661428 -76.3125 456.0625 C-77.16328125 455.07636719 -78.0140625 454.09023438 -78.890625 453.07421875 C-83.36254317 447.8848144 -87.62062548 442.72119393 -91.5 437.0625 C-95.69164158 431.18564741 -99.9456046 428.54393398 -106.4375 425.6875 C-111.73067584 424.83376196 -116.65639559 425.32259473 -121.97607422 425.83740234 C-178.67630102 431.30005742 -178.67630102 431.30005742 -196.1875 418.9375 C-207.60719359 409.25558587 -209.94283317 395.27060479 -211.15576172 381.14355469 C-212.26331514 366.4382815 -210.56214635 351.39792325 -208.81640625 336.79296875 C-207.99917283 329.15141505 -208.36698683 322.84040669 -212.3125 316.0625 C-215.73244798 312.31824661 -219.55314861 309.061634 -223.4375 305.8125 C-224.29009399 305.09416992 -224.29009399 305.09416992 -225.15991211 304.36132812 C-228.69921225 301.38730887 -232.2772851 298.46573583 -235.875 295.5625 C-251.87367505 282.47479203 -270.92929242 265.75962335 -273.69140625 244.08984375 C-274.39028266 226.61793352 -263.13411727 213.03696532 -251.94921875 200.79248047 C-243.56275968 191.92815335 -234.14578295 183.91275737 -224.203125 176.85546875 C-216.73603675 171.51012631 -212.54247547 167.23198858 -208.9375 158.875 C-207.78834408 151.86514889 -208.95040495 144.91320247 -209.83203125 137.91015625 C-212.60925491 115.19331506 -215.13266284 88.72604042 -201.625 68.875 C-193.69686061 58.97958036 -181.79503102 55.62069397 -169.55200195 54.2434082 C-165.01694682 53.87706395 -160.48552262 53.82717681 -155.9375 53.8125 C-154.85911865 53.80855225 -153.7807373 53.80460449 -152.66967773 53.80053711 C-143.40351874 53.86537282 -134.33680965 54.7734426 -125.16845703 56.08300781 C-115.06422872 57.467941 -107.22468442 57.21911326 -98.3125 52.0625 C-97.27222656 51.62744141 -97.27222656 51.62744141 -96.2109375 51.18359375 C-93.80198717 49.76102432 -93.48538237 48.59003986 -92.3125 46.0625 C-90.70088472 43.85683253 -89.06937577 41.70248603 -87.375 39.5625 C-86.89063477 38.94810059 -86.40626953 38.33370117 -85.90722656 37.70068359 C-81.75531489 32.49672199 -77.34472353 27.58109478 -72.7890625 22.73046875 C-70.75399764 20.5381197 -68.83760116 18.3072657 -66.9375 16 C-49.06625549 -4.52836 -24.86877066 -16.33890246 0 0 Z " fill="#FD6A61" transform="translate(280.3125,14.9375)"/>
<path d="M0 0 C4.79790565 3.94237548 7.45543227 9.48885216 8.60546875 15.51953125 C9.04651263 23.08879789 5.98610038 29.42327853 1.31514549 35.262537 C-0.8017773 37.5578832 -2.98326898 39.76168288 -5.21020508 41.95043945 C-6.03689194 42.78267532 -6.8635788 43.61491119 -7.71531677 44.47236633 C-10.4296217 47.1984057 -13.16144802 49.90607941 -15.89453125 52.61328125 C-17.79847619 54.51303991 -19.69910329 56.41610674 -21.60002136 58.31889343 C-25.57674832 62.29556701 -29.56315088 66.26232589 -33.5559082 70.22290039 C-38.15707186 74.78715439 -42.7440046 79.36532688 -47.32326204 83.95155174 C-51.74937878 88.38399567 -56.18401404 92.80781519 -60.62302208 97.22734642 C-62.50292572 99.0991239 -64.3797072 100.97387483 -66.25513649 102.85015297 C-68.87993353 105.47314529 -71.51433029 108.08610081 -74.15161133 110.6965332 C-74.91915741 111.46700989 -75.68670349 112.23748657 -76.47750854 113.03131104 C-82.88269908 119.33655834 -88.84113141 124.39661314 -98 125.3125 C-109.0008616 124.42533374 -115.53252658 118.23283822 -122.9921875 110.64453125 C-124.02111708 109.61710786 -125.05101289 108.5906513 -126.08181763 107.56510925 C-128.227696 105.42353844 -130.3627243 103.27187596 -132.49023438 101.11206055 C-135.20160426 98.36088794 -137.93684174 95.6350014 -140.68047905 92.91605091 C-142.80720091 90.80359081 -144.92151597 88.67904861 -147.03232193 86.55069542 C-148.03581471 85.54140289 -149.04281296 84.53558188 -150.05352402 83.53351784 C-156.61913827 77.00544065 -162.8097664 70.6237782 -163.3125 60.9375 C-162.50309228 53.65283052 -160.61604939 48.80645996 -154.875 44 C-148.99653347 39.68112663 -144.23143802 37.96987351 -136.875 39 C-126.52556144 42.09015663 -119.50313105 50.81338997 -112.25 58.3125 C-110.94779373 59.63982974 -109.64441712 60.96601233 -108.33984375 62.29101562 C-105.17124051 65.51426946 -102.01890363 68.75265755 -98.875 72 C-94.05127506 67.98329508 -89.52273364 63.77648701 -85.11694336 59.30786133 C-84.48182327 58.66806839 -83.84670319 58.02827545 -83.19233704 57.36909485 C-81.82559864 55.99192523 -80.4599675 54.61365601 -79.09535027 53.23438454 C-76.93296056 51.04982112 -74.76649616 48.8693769 -72.59877014 46.69010925 C-66.44004465 40.49792291 -60.28557036 34.30155981 -54.14135742 28.0949707 C-50.37259476 24.28853232 -46.59653133 20.48946874 -42.81570625 16.69501305 C-41.38044335 15.25170971 -39.94795976 13.80563691 -38.51835442 12.35672951 C-36.52032416 10.33217777 -34.51313826 8.3171376 -32.50366211 6.30395508 C-31.62679245 5.40855011 -31.62679245 5.40855011 -30.73220825 4.49505615 C-22.10424488 -4.09114698 -10.85060175 -6.71024055 0 0 Z " fill="#FCFEFD" transform="translate(343.875,206)"/>
<path d="M0 0 C0.66 0.33 1.32 0.66 2 1 C-6.25 9.25 -14.5 17.5 -23 26 C-23 23 -23 23 -21.71484375 21.45703125 C-21.12832031 20.91433594 -20.54179687 20.37164062 -19.9375 19.8125 C-17.33788678 17.33270863 -14.93659249 14.8125913 -12.625 12.0625 C-8.79647787 7.60606535 -4.46381464 3.80588278 0 0 Z " fill="#76C28B" transform="translate(226,19)"/>
<path d="M0 0 C0.66 0.33 1.32 0.66 2 1 C-5.92 8.92 -13.84 16.84 -22 25 C-22 20.65715506 -19.34524149 18.73389931 -16.5 15.75 C-15.95553223 15.16951904 -15.41106445 14.58903809 -14.85009766 13.9909668 C-10.79103881 9.71092939 -6.53115703 5.77596419 -2 2 C-1.34 1.34 -0.68 0.68 0 0 Z " fill="#76C38B" transform="translate(43,202)"/>
<path d="M0 0 C0.66 0.33 1.32 0.66 2 1 C-1.3 4.3 -4.6 7.6 -8 11 C-8 6.67750434 -5.85084926 5.11604454 -3 2 C-2.01 1.34 -1.02 0.68 0 0 Z " fill="#7DBD83" transform="translate(86,77)"/>
</svg>
