<?xml version="1.0" encoding="UTF-8"?>
<svg version="1.1" xmlns="http://www.w3.org/2000/svg" width="512" height="512">
<path d="M0 0 C0.96594086 0.00054382 1.93188171 0.00108765 2.92709351 0.00164795 C18.82427694 0.04267209 34.1070568 0.96742637 49.6875 4.375 C51.16669922 4.69645996 51.16669922 4.69645996 52.67578125 5.02441406 C93.62144938 14.2412142 130.47407042 33.4675562 161.6875 61.375 C162.26983398 61.89416992 162.85216797 62.41333984 163.45214844 62.94824219 C169.94369421 68.76215853 176.11336927 74.66154145 181.6875 81.375 C182.46996094 82.24640625 183.25242187 83.1178125 184.05859375 84.015625 C213.00993644 116.51674278 232.16563537 159.5009304 238.6875 202.375 C238.86265137 203.49511475 239.03780273 204.61522949 239.21826172 205.76928711 C240.8222463 217.07945314 241.08675288 228.27504914 241.0625 239.6875 C241.06168427 241.13641129 241.06168427 241.13641129 241.06085205 242.61459351 C241.01982791 258.51177694 240.09507363 273.7945568 236.6875 289.375 C236.36604004 290.85419922 236.36604004 290.85419922 236.03808594 292.36328125 C225.03958589 341.22415776 198.58419619 389.07938546 159.6875 421.375 C158.38039063 422.54869141 158.38039063 422.54869141 157.046875 423.74609375 C124.54575722 452.69743644 81.5615696 471.85313537 38.6875 478.375 C37.56738525 478.55015137 36.44727051 478.72530273 35.29321289 478.90576172 C23.98304686 480.5097463 12.78745086 480.77425288 1.375 480.75 C0.40905914 480.74945618 -0.55688171 480.74891235 -1.55209351 480.74835205 C-17.44927694 480.70732791 -32.7320568 479.78257363 -48.3125 476.375 C-49.29863281 476.16069336 -50.28476563 475.94638672 -51.30078125 475.72558594 C-100.16165776 464.72708589 -148.01688546 438.27169619 -180.3125 399.375 C-181.09496094 398.50359375 -181.87742188 397.6321875 -182.68359375 396.734375 C-211.63493644 364.23325722 -230.79063537 321.2490696 -237.3125 278.375 C-237.48765137 277.25488525 -237.66280273 276.13477051 -237.84326172 274.98071289 C-239.4472463 263.67054686 -239.71175288 252.47495086 -239.6875 241.0625 C-239.68695618 240.09655914 -239.68641235 239.13061829 -239.68585205 238.13540649 C-239.64482791 222.23822306 -238.72007363 206.9554432 -235.3125 191.375 C-235.09819336 190.38886719 -234.88388672 189.40273437 -234.66308594 188.38671875 C-223.66458589 139.52584224 -197.20919619 91.67061454 -158.3125 59.375 C-157.44109375 58.59253906 -156.5696875 57.81007812 -155.671875 57.00390625 C-123.17075722 28.05256356 -80.1865696 8.89686463 -37.3125 2.375 C-36.19238525 2.19984863 -35.07227051 2.02469727 -33.91821289 1.84423828 C-22.60804686 0.2402537 -11.41245086 -0.02425288 0 0 Z M-155.3125 80.375 C-155.80991699 80.84518555 -156.30733398 81.31537109 -156.81982422 81.79980469 C-164.82588763 89.39694934 -171.71999721 97.53444153 -178.3125 106.375 C-178.73772949 106.93413086 -179.16295898 107.49326172 -179.60107422 108.06933594 C-186.85720107 117.62700244 -192.79110829 127.73057576 -198.3125 138.375 C-198.70324707 139.12378418 -199.09399414 139.87256836 -199.49658203 140.64404297 C-215.35922991 171.4307599 -222.76770261 205.18914341 -222.6875 239.6875 C-222.68662384 240.61086151 -222.68574768 241.53422302 -222.68484497 242.48556519 C-222.50128459 301.31698491 -198.84454805 355.17725135 -158.3125 397.375 C-157.4565625 398.2721875 -156.600625 399.169375 -155.71875 400.09375 C-149.95167803 406.0068238 -143.8712581 411.35892238 -137.3125 416.375 C-136.66780762 416.8690332 -136.02311523 417.36306641 -135.35888672 417.87207031 C-124.52651324 426.09836549 -113.41595013 433.17624313 -101.3125 439.375 C-100.5695166 439.76139648 -99.8265332 440.14779297 -99.06103516 440.54589844 C-47.00218466 467.37942993 14.29700289 470.91138824 69.80664062 453.32373047 C103.28178428 442.29962808 132.39351384 423.67053934 157.6875 399.375 C159.03328125 398.09109375 159.03328125 398.09109375 160.40625 396.78125 C166.32476517 391.00887101 171.62533335 384.90764578 176.6875 378.375 C177.11144043 377.83278809 177.53538086 377.29057617 177.97216797 376.73193359 C208.32261115 337.66557944 224.18086364 289.81246348 224.0625 240.5 C224.06162384 239.6028125 224.06074768 238.705625 224.05984497 237.78125 C223.87172394 179.12393939 200.01701388 125.44448287 159.6875 83.375 C158.79289062 82.42753906 157.89828125 81.48007813 156.9765625 80.50390625 C150.07248731 73.36699568 142.61738392 67.30664885 134.6875 61.375 C134.12691895 60.94832031 133.56633789 60.52164063 132.98876953 60.08203125 C123.43266384 52.82776124 113.32977007 46.89527431 102.6875 41.375 C101.93871582 40.98425293 101.18993164 40.59350586 100.41845703 40.19091797 C17.01944409 -2.77985994 -86.58576482 14.74478687 -155.3125 80.375 Z " fill="#FF6961" transform="translate(255.3125,15.625)"/>
<path d="M0 0 C2.64992046 1.65713882 2.64992046 1.65713882 5 4 C5.61523914 6.75671005 5.61523914 6.75671005 5.60127258 9.98577881 C5.61158257 11.8241053 5.61158257 11.8241053 5.62210083 13.6995697 C5.60440633 15.05460208 5.5862323 16.40962826 5.56762695 17.76464844 C5.56621635 19.1937912 5.56700871 20.62293759 5.56983948 22.05207825 C5.57127459 25.9301343 5.54187043 29.80741773 5.50696969 33.68529415 C5.47572152 37.73850021 5.47277668 41.79172381 5.46684265 45.84503174 C5.45129961 53.51970955 5.41026515 61.19403141 5.3600952 68.86855245 C5.30421588 77.60603444 5.27671883 86.34353339 5.25161803 95.08114958 C5.19934952 113.05430156 5.11139849 131.02712216 5 149 C6.14370056 148.98889694 7.28740112 148.97779388 8.46575928 148.96635437 C19.23664324 148.86505791 30.00743074 148.79007273 40.77868271 148.74093914 C46.31652405 148.71482984 51.8539813 148.67940689 57.39160156 148.62280273 C62.73435498 148.56853136 68.07673864 148.53858951 73.4197464 148.52561378 C75.45957512 148.5163652 77.49938329 148.49830494 79.53905487 148.47134972 C82.39334562 148.43512437 85.24610282 148.43005194 88.10058594 148.43237305 C89.3694162 148.40540848 89.3694162 148.40540848 90.66387939 148.37789917 C94.81181761 148.41446931 96.38721405 148.43016713 99.52496338 151.34797668 C101.34032392 154.61188106 101.61372096 156.31767425 101 160 C99.58984375 162.64805603 99.58984375 162.64805603 97 165 C93.6957141 165.75503565 90.43954236 165.67258763 87.0625 165.63110352 C86.05396973 165.63825882 85.04543945 165.64541412 84.00634766 165.65278625 C80.67043859 165.66970404 77.33586752 165.65025164 74 165.62890625 C71.68359262 165.62973466 69.36718529 165.63219297 67.05078125 165.63621521 C62.19513259 165.63907534 57.33994466 165.62435035 52.484375 165.59692383 C46.25633026 165.56284132 40.02910957 165.56885757 33.80102539 165.5875864 C29.01750811 165.59814848 24.234183 165.58922565 19.45068359 165.57420158 C17.15413992 165.56901353 14.85757622 165.56950909 12.56103516 165.57574654 C9.3527502 165.58118896 6.14565002 165.56085352 2.9375 165.53344727 C1.98568848 165.53997314 1.03387695 165.54649902 0.05322266 165.55322266 C-1.2589624 165.53413597 -1.2589624 165.53413597 -2.59765625 165.5146637 C-3.73473022 165.51045331 -3.73473022 165.51045331 -4.89477539 165.50615788 C-7.97142213 164.76644157 -9.12709321 163.52496867 -11 161 C-11.50615788 158.06705475 -11.50615788 158.06705475 -11.5146637 154.58557129 C-11.52160922 153.94385813 -11.52855475 153.30214498 -11.53571075 152.64098597 C-11.55399375 150.49272467 -11.54371408 148.34556613 -11.53344727 146.19726562 C-11.54050511 144.65637892 -11.54924956 143.11549915 -11.55955505 141.57463074 C-11.58207292 137.39073473 -11.57910404 133.20721657 -11.57023358 129.023283 C-11.56512702 125.53154695 -11.57241345 122.03988212 -11.57970566 118.5481534 C-11.5967119 110.31214974 -11.59313113 102.07633133 -11.57641602 93.84033203 C-11.55948776 85.34002925 -11.57533705 76.84023973 -11.6076389 68.339993 C-11.63431569 61.04390551 -11.64161618 53.74797797 -11.63312382 46.4518466 C-11.62818971 42.09325488 -11.63043623 37.73497213 -11.65091133 33.37641907 C-11.66923908 29.27878072 -11.6633462 25.18188218 -11.63871193 21.08428383 C-11.63369496 19.57983585 -11.63721686 18.07533179 -11.64986038 16.57092857 C-11.66575086 14.51790701 -11.65088475 12.46733389 -11.62818909 10.41442871 C-11.62760278 9.26553917 -11.62701647 8.11664963 -11.62641239 6.93294525 C-11 4 -11 4 -8.64823818 1.63034821 C-5.38686216 -0.37746914 -3.76827614 -0.62804602 0 0 Z " fill="#FF6961" transform="translate(259,99)"/>
<path d="M0 0 C4.97071039 4.31512457 9.46478361 10.74607233 10.30078125 17.390625 C10.04386178 20.47365861 9.32634487 22.59834477 7.375 25 C3.97047997 26.43348212 1.65951893 26.51361669 -2 26 C-7.34634309 22.21844026 -10.57434366 15.98271423 -13 10 C-13.42506587 6.48527625 -12.75142093 4.02466491 -10.625 1.125 C-6.94325838 -1.42389804 -4.16584603 -1.10522446 0 0 Z " fill="#FF6961" transform="translate(350,404)"/>
<path d="M0 0 C2.4375 2.0625 2.4375 2.0625 4 5 C4.39145494 12.56812892 0.51790123 18.14053858 -4 24 C-7.71013399 26.47342266 -9.61060262 26.38503486 -14 26 C-16.375 25 -16.375 25 -18 23 C-19.45940493 16.54282158 -18.82627932 13.18337617 -15.375 7.625 C-15.03082031 7.01011719 -14.68664062 6.39523437 -14.33203125 5.76171875 C-12.65598157 2.93531763 -11.31857785 1.17495274 -8.41796875 -0.41796875 C-5.18242375 -1.19679945 -3.1746166 -1.01317551 0 0 Z " fill="#FF6961" transform="translate(171,404)"/>
<path d="M0 0 C2.84610137 2.31245736 2.9706247 3.7980448 3.5 7.4375 C3.00634824 10.95476876 2.51134451 12.4347806 -0.18359375 14.73046875 C-11.52417972 22.65668475 -11.52417972 22.65668475 -17 22.0625 C-21.45856354 20.48342541 -21.45856354 20.48342541 -23 18 C-24.24181303 13.60589235 -24.20863403 10.99369441 -22 7 C-19.78227107 5.30614404 -17.78204628 3.97234037 -15.375 2.625 C-14.78332031 2.25761719 -14.19164062 1.89023438 -13.58203125 1.51171875 C-8.67870619 -1.29472 -5.49368845 -1.24164387 0 0 Z " fill="#FF6961" transform="translate(427,153)"/>
<path d="M0 0 C8.48060533 4.6775521 8.48060533 4.6775521 10.3046875 8.08984375 C11.15542741 11.35274255 10.97123843 13.33230709 9.9453125 16.546875 C7.8828125 18.984375 7.8828125 18.984375 4.9453125 20.546875 C-2.62281642 20.93832994 -8.19522608 17.06477623 -14.0546875 12.546875 C-16.52811016 8.83674101 -16.43972236 6.93627238 -16.0546875 2.546875 C-12.29008274 -4.26526695 -6.08045429 -2.89249232 0 0 Z " fill="#FF6961" transform="translate(98.0546875,154.453125)"/>
<path d="M0 0 C5.89724839 2.06799482 11.84895016 5.597644 15.328125 10.81640625 C15.74786913 14.66406076 15.92265325 16.91272331 13.765625 20.19140625 C10.50309693 22.36642496 8.24709586 22.63936855 4.328125 22.81640625 C1.60719085 21.72340613 -0.5278713 20.69538811 -2.984375 19.19140625 C-3.60376953 18.84722656 -4.22316406 18.50304687 -4.86132812 18.1484375 C-7.70700076 16.47378542 -9.48905032 15.14840381 -11.09375 12.234375 C-11.86720544 8.99944987 -11.6845531 6.98946429 -10.671875 3.81640625 C-7.51527264 0.08587619 -4.86595266 -0.88218607 0 0 Z " fill="#FF6961" transform="translate(414.671875,337.18359375)"/>
<path d="M0 0 C2.64764845 1.67684402 2.95477045 2.85138861 3.875 5.875 C4.03378129 9.84453234 3.57819146 10.96683358 1 14 C-9.61313807 22.08524507 -9.61313807 22.08524507 -15.5 21.875 C-19.37659512 20.90585122 -20.81160682 20.32635764 -23 17 C-23.67546586 12.87215309 -23.62305988 10.88087776 -21.1875 7.4375 C-15.17082642 2.31218547 -7.94105219 -2.81245598 0 0 Z " fill="#FF6961" transform="translate(105,338)"/>
<path d="M0 0 C2.375 1 2.375 1 4 3 C5.58267998 7.58144205 5.61575409 9.64499796 3.59765625 14.0859375 C-2.79231051 25.24473781 -2.79231051 25.24473781 -7.375 26.8125 C-11.42140034 27.1015286 -13.83753707 26.00746787 -16.875 23.375 C-18.61823536 19.69483645 -18.23782477 16.74441994 -17 13 C-9.67389189 -0.84858701 -9.67389189 -0.84858701 0 0 Z " fill="#FF6961" transform="translate(355,82)"/>
<path d="M0 0 C5.34634309 3.78155974 8.57434366 10.01728577 11 16 C11.41873816 19.46240212 10.69806647 21.89778979 8.8125 24.875 C6.15800608 26.52261692 4.11672513 26.87533099 1 27 C-5.16716329 24.84149285 -8.06228933 18.32544406 -11.18359375 12.96875 C-12.5878525 9.58240355 -11.99779838 6.45561056 -11 3 C-7.98260982 -0.71371099 -4.54917296 -0.63848041 0 0 Z " fill="#FF6961" transform="translate(164,82)"/>
<path d="M0 0 C2.16796875 1.45703125 2.16796875 1.45703125 4 4 C4.56934222 7.17730916 4.51275655 10.28096187 4.4375 13.5 C4.44458984 14.35464844 4.45167969 15.20929688 4.45898438 16.08984375 C4.42232112 19.70540521 4.36613259 22.294896 2.68359375 25.53515625 C-0.05069304 27.91417608 -2.45323648 27.9388489 -6 28 C-8.94755732 26.65437601 -10.54277272 25.91445456 -12 23 C-12.2893113 19.88182281 -12.27777304 16.75505705 -12.3125 13.625 C-12.34150391 12.76132812 -12.37050781 11.89765625 -12.40039062 11.0078125 C-12.46444136 4.62244718 -12.46444136 4.62244718 -10.10546875 1.4609375 C-6.29499957 -1.18306152 -4.5347131 -1.17902541 0 0 Z " fill="#FF6961" transform="translate(260,428)"/>
<path d="M0 0 C0.86367188 -0.020625 1.72734375 -0.04125 2.6171875 -0.0625 C8.9398348 -0.10152869 8.9398348 -0.10152869 12.16796875 1.5546875 C14.52942485 4.30233347 14.56382667 6.70194682 14.625 10.25 C13.27937601 13.19755732 12.53945456 14.79277272 9.625 16.25 C6.50682281 16.5393113 3.38005705 16.52777304 0.25 16.5625 C-0.61367188 16.59150391 -1.47734375 16.62050781 -2.3671875 16.65039062 C-8.73198508 16.71423505 -8.73198508 16.71423505 -11.91796875 14.4140625 C-13.82193919 11.58618147 -14.30541682 9.65957593 -14.375 6.25 C-11.08680915 -0.79612325 -7.00504897 0.04144999 0 0 Z " fill="#FF6961" transform="translate(441.375,247.75)"/>
<path d="M0 0 C1.29550781 -0.04350586 1.29550781 -0.04350586 2.6171875 -0.08789062 C8.98198508 -0.15173505 8.98198508 -0.15173505 12.16796875 2.1484375 C14.07193919 4.97631853 14.55541682 6.90292407 14.625 10.3125 C12.49456522 14.87771739 12.49456522 14.87771739 9.625 16.3125 C6.50622798 16.57592328 3.37867368 16.54398714 0.25 16.5625 C-1.04550781 16.5934375 -1.04550781 16.5934375 -2.3671875 16.625 C-8.6898348 16.66402869 -8.6898348 16.66402869 -11.91796875 15.0078125 C-14.27942485 12.26016653 -14.31382667 9.86055318 -14.375 6.3125 C-11.1585936 -0.73296164 -6.96150663 0.07723565 0 0 Z " fill="#FF6961" transform="translate(70.375,247.6875)"/>
<path d="M0 0 C2.1048966 1.81322501 2.89702044 3.29456473 3.29833984 6.04370117 C3.44104923 8.53647862 3.45821119 11.0033606 3.4375 13.5 C3.4674707 14.78197266 3.4674707 14.78197266 3.49804688 16.08984375 C3.4931857 22.32186966 3.4931857 22.32186966 1.15625 25.53515625 C-1.6661682 27.45255992 -3.58810028 27.93036939 -7 28 C-11.56521739 25.86956522 -11.56521739 25.86956522 -13 23 C-13.26342328 19.88122798 -13.23148714 16.75367368 -13.25 13.625 C-13.270625 12.76132813 -13.29125 11.89765625 -13.3125 11.0078125 C-13.35160876 4.67219322 -13.35160876 4.67219322 -11.671875 1.4609375 C-7.96817719 -1.77547134 -4.51485457 -1.04809124 0 0 Z " fill="#FF6961" transform="translate(261,57)"/>
</svg>
