<?xml version="1.0" encoding="UTF-8"?>
<svg version="1.1" xmlns="http://www.w3.org/2000/svg" width="512" height="512">
<path d="M0 0 C1.01790619 0.00215515 2.03581238 0.0043103 3.08456421 0.00653076 C17.69363523 0.05620146 32.02575853 0.30709809 46.375 3.3125 C47.34985352 3.51117676 48.32470703 3.70985352 49.32910156 3.91455078 C97.7109774 14.03517194 141.69928269 35.9516877 177.375 70.3125 C178.3640332 71.26068604 178.3640332 71.26068604 179.37304688 72.22802734 C188.86130305 81.37247479 197.6012044 90.66984009 205.375 101.3125 C206.23306152 102.46355017 207.09113451 103.61459177 207.94921875 104.765625 C213.98736829 112.95680614 219.34595521 121.47054105 224.375 130.3125 C224.73948242 130.94430176 225.10396484 131.57610352 225.47949219 132.22705078 C247.08534998 169.97532572 256.85198095 212.74189997 256.6875 255.9375 C256.68534485 256.95540619 256.6831897 257.97331238 256.68096924 259.02206421 C256.63129854 273.63113523 256.38040191 287.96325853 253.375 302.3125 C253.07698486 303.77478027 253.07698486 303.77478027 252.77294922 305.26660156 C242.65232806 353.6484774 220.7358123 397.63678269 186.375 433.3125 C185.74287598 433.97185547 185.11075195 434.63121094 184.45947266 435.31054688 C175.31502521 444.79880305 166.01765991 453.5387044 155.375 461.3125 C154.22394983 462.17056152 153.07290823 463.02863451 151.921875 463.88671875 C143.73224019 469.92427396 135.22961724 475.30707302 126.375 480.3125 C125.66778809 480.7146875 124.96057617 481.116875 124.23193359 481.53125 C101.09654164 494.5566741 75.92537591 503.30551461 49.9375 508.625 C49.21860596 508.77235596 48.49971191 508.91971191 47.7590332 509.0715332 C33.08339502 511.86090125 18.55831162 512.66142619 3.64770508 512.62817383 C0.70811513 512.6250221 -2.2304558 512.64854926 -5.16992188 512.67382812 C-18.54306192 512.71848737 -31.43916711 511.51301542 -44.625 509.3125 C-46.33055054 509.03031616 -46.33055054 509.03031616 -48.07055664 508.74243164 C-91.33802759 500.97044532 -132.38793216 480.98345309 -165.625 452.3125 C-166.37007813 451.67828125 -167.11515625 451.0440625 -167.8828125 450.390625 C-181.38779833 438.57948485 -194.05918743 425.82889772 -204.625 411.3125 C-205.48149066 410.16255169 -206.33826433 409.01281411 -207.1953125 407.86328125 C-213.23534209 399.67315742 -218.61867614 391.16870382 -223.625 382.3125 C-224.0271875 381.60528809 -224.429375 380.89807617 -224.84375 380.16943359 C-237.8691741 357.03404164 -246.61801461 331.86287591 -251.9375 305.875 C-252.08485596 305.15610596 -252.23221191 304.43721191 -252.3840332 303.6965332 C-255.35789088 288.05024391 -255.99800362 272.57681954 -255.9375 256.6875 C-255.93534485 255.66959381 -255.9331897 254.65168762 -255.93096924 253.60293579 C-255.88129854 238.99386477 -255.63040191 224.66174147 -252.625 210.3125 C-252.42632324 209.33764648 -252.22764648 208.36279297 -252.02294922 207.35839844 C-241.90232806 158.9765226 -219.9858123 114.98821731 -185.625 79.3125 C-184.99287598 78.65314453 -184.36075195 77.99378906 -183.70947266 77.31445312 C-174.56502521 67.82619695 -165.26765991 59.0862956 -154.625 51.3125 C-153.47394983 50.45443848 -152.32290823 49.59636549 -151.171875 48.73828125 C-142.98224019 42.70072604 -134.47961724 37.31792698 -125.625 32.3125 C-124.91778809 31.9103125 -124.21057617 31.508125 -123.48193359 31.09375 C-100.34654164 18.0683259 -75.17537591 9.31948539 -49.1875 4 C-48.46860596 3.85264404 -47.74971191 3.70528809 -47.0090332 3.5534668 C-31.36274391 0.57960912 -15.88931954 -0.06050362 0 0 Z M-157.2265625 78.1015625 C-158.84817923 79.59640789 -160.48958894 81.07001911 -162.1484375 82.5234375 C-206.48818104 121.40598184 -232.03075569 181.82646988 -236.3125 239.91015625 C-240.21538567 301.92390505 -219.59939601 364.46510722 -178.625 411.3125 C-174.69888491 415.71574713 -170.68739737 420.03496009 -166.625 424.3125 C-165.83996094 425.14007813 -165.05492187 425.96765625 -164.24609375 426.8203125 C-145.55840816 446.00945656 -121.87582207 461.16099469 -97.625 472.3125 C-96.90795898 472.6434668 -96.19091797 472.97443359 -95.45214844 473.31542969 C-37.83189642 499.55210218 27.08938477 500.74932252 86.375 479.3125 C93.20265745 476.64335737 99.80973717 473.56696068 106.375 470.3125 C107.02404297 469.99877441 107.67308594 469.68504883 108.34179688 469.36181641 C129.61049914 459.02317389 150.15136222 444.55720589 166.375 427.3125 C168.74741821 424.91333955 171.13108443 422.54095613 173.59375 420.234375 C205.43219457 389.92243119 225.87655005 345.64048411 234.625 303.125 C234.77630371 302.39047607 234.92760742 301.65595215 235.08349609 300.89916992 C237.90515224 286.17713912 238.75397202 271.58191492 238.6875 256.625 C238.68534485 255.74720886 238.6831897 254.86941772 238.68096924 253.96502686 C238.62816263 240.53108579 238.07340201 227.50876129 235.375 214.3125 C235.08496094 212.82000732 235.08496094 212.82000732 234.7890625 211.29736328 C227.27991394 173.32865148 211.53218302 138.55875319 187.375 108.3125 C186.94960938 107.77141602 186.52421875 107.23033203 186.0859375 106.67285156 C174.26357648 91.71830841 160.45025111 77.7160834 145.01367188 66.50683594 C143.37179738 65.31016579 141.75583212 64.08391293 140.140625 62.8515625 C110.10754036 40.28113647 74.18279933 26.67883058 37.375 20.3125 C36.34173584 20.1256665 36.34173584 20.1256665 35.28759766 19.93505859 C-32.83356273 7.87584452 -106.75483574 31.54996986 -157.2265625 78.1015625 Z " fill="#FF6961" transform="translate(255.625,-0.3125)"/>
<path d="M0 0 C1.04293258 -0.00583219 2.08586516 -0.01166439 3.16040176 -0.01767331 C4.30484239 -0.01389399 5.44928302 -0.01011467 6.62840366 -0.00622082 C7.84519214 -0.01004636 9.06198061 -0.01387191 10.31564146 -0.01781338 C13.69469439 -0.02635803 17.07353017 -0.02590544 20.45257699 -0.02163279 C24.09613819 -0.01916998 27.73967362 -0.02817417 31.38322544 -0.03567028 C38.52185635 -0.04843162 45.66044968 -0.0502092 52.79909008 -0.04787002 C58.60034872 -0.04608834 64.40159593 -0.04783326 70.2028532 -0.05209446 C71.02792528 -0.05268965 71.85299735 -0.05328484 72.70307161 -0.05389806 C74.37910282 -0.05510979 76.05513403 -0.05632392 77.73116524 -0.05754044 C93.45545728 -0.06842145 109.17972789 -0.0662508 124.90402115 -0.06015559 C139.29490394 -0.05498563 153.68571905 -0.06624298 168.07658844 -0.08525381 C182.84713773 -0.1046169 197.61765497 -0.11289092 212.38821703 -0.10913056 C220.68317552 -0.10721623 228.9780764 -0.10972864 237.27302456 -0.1238451 C244.33436115 -0.13574039 251.39560467 -0.13718465 258.45694249 -0.12505493 C262.06059942 -0.11915323 265.66408595 -0.11810222 269.26773167 -0.13005733 C273.17197632 -0.14285932 277.07596085 -0.13248236 280.9802103 -0.11974621 C282.12242021 -0.12712049 283.26463012 -0.13449478 284.44145244 -0.14209253 C286.00976294 -0.13128271 286.00976294 -0.13128271 287.60975647 -0.12025452 C288.51094284 -0.12030953 289.41212922 -0.12036455 290.34062427 -0.12042123 C293.44019365 0.33938821 295.33526861 1.43877287 297.86779881 3.25447559 C299.0088926 5.53666317 298.99592712 6.79560227 299.00201988 9.33127117 C299.00647773 10.18970178 299.01093557 11.0481324 299.0155285 11.93257606 C299.01525196 13.35550474 299.01525196 13.35550474 299.01496983 14.80717945 C299.01864651 15.81061992 299.0223232 16.81406039 299.0261113 17.84790814 C299.03718121 21.23197086 299.04099755 24.61600291 299.04480076 28.00008106 C299.05106281 30.4175015 299.05770937 32.83492096 299.06471348 35.25233936 C299.08396404 42.52188419 299.0945443 49.7914265 299.10344127 57.06098908 C299.10782255 60.48241021 299.11318972 63.90382978 299.11843014 67.32524967 C299.13544203 78.69507685 299.1499374 90.06490306 299.15717888 101.43474102 C299.15908884 104.38588303 299.16100916 107.33702502 299.16296482 110.288167 C299.16344856 111.02167799 299.1639323 111.75518898 299.1644307 112.51092757 C299.17273554 124.40008843 299.19808023 136.28914883 299.2305455 148.1782658 C299.26358799 160.37796434 299.28162503 172.57761177 299.28482312 184.77735531 C299.28699069 191.62979653 299.29577531 198.48209119 299.32128429 205.33448887 C299.34521426 211.77766956 299.34883468 218.22065771 299.33852291 224.66387653 C299.33802527 227.03266622 299.34441244 229.40146853 299.35807896 231.77021885 C299.37565554 234.99640226 299.3687617 238.22162204 299.355546 241.44780445 C299.36651524 242.39196213 299.37748449 243.3361198 299.38878614 244.30888832 C299.3258688 250.64136662 299.3258688 250.64136662 296.96231461 253.80489254 C293.70441785 256.05963415 291.91248071 256.38047 287.98169327 256.38590336 C286.94274278 256.3897445 285.9037923 256.39358565 284.83335847 256.39754319 C283.68309216 256.39667671 282.53282585 256.39581023 281.34770298 256.39491749 C279.52508354 256.39937417 279.52508354 256.39937417 277.66564351 256.40392089 C274.28213072 256.41111694 270.89866868 256.41378143 267.51515186 256.41451836 C263.87019807 256.41636589 260.22525537 256.42391172 256.58030796 256.43065357 C248.60513993 256.44424989 240.62997692 256.45026366 232.65479922 256.45466423 C227.67736469 256.45742452 222.69993211 256.46166148 217.72249889 256.4661684 C203.9481576 256.47836287 190.17381786 256.48866177 176.39947128 256.4920435 C175.51745118 256.49226306 174.63543108 256.49248263 173.7266831 256.49270885 C172.84252209 256.49292712 171.95836109 256.4931454 171.04740733 256.49337029 C169.25568561 256.49381376 167.46396389 256.49426033 165.67224216 256.49470997 C164.78348152 256.4949314 163.89472087 256.49515283 162.97902808 256.49538097 C148.57508875 256.49932971 134.17119998 256.51678525 119.76728018 256.54006949 C104.98775851 256.56376853 90.20826223 256.57624469 75.42872125 256.57741141 C67.12702069 256.578329 58.82538601 256.58410231 50.52370358 256.60223103 C43.45500533 256.61761252 36.38639331 256.62276406 29.31768151 256.61449292 C25.70998349 256.61057943 22.10245922 256.61154983 18.49478245 256.62555027 C14.58606127 256.64058048 10.67758617 256.63244332 6.76884556 256.62196827 C5.05348434 256.63405288 5.05348434 256.63405288 3.30346936 256.64638162 C2.25669563 256.63979177 1.20992191 256.63320193 0.13142776 256.62641239 C-1.22197802 256.62730802 -1.22197802 256.62730802 -2.60272533 256.62822175 C-5.71837575 256.16786457 -7.59730311 255.09826213 -10.13220119 253.25447559 C-12.65718557 248.22744806 -12.41589172 243.0435021 -12.39289761 237.54465199 C-12.39863593 236.08654241 -12.39863593 236.08654241 -12.40449017 234.59897608 C-12.41480106 231.34484589 -12.41083162 228.09089277 -12.4068594 224.83675098 C-12.4112069 222.50242417 -12.41639018 220.16809878 -12.42234707 217.83377552 C-12.43574361 211.49500393 -12.43631503 205.15629193 -12.43378377 198.81750894 C-12.43257932 192.85728088 -12.43879106 186.89706287 -12.44421723 180.93683784 C-12.45508879 168.4114729 -12.45293203 155.88613489 -12.44683238 143.36076843 C-12.44166291 131.90716 -12.45292012 120.45363662 -12.4719306 109.00004501 C-12.49131131 97.23299408 -12.49956464 85.46598337 -12.49580735 73.69891638 C-12.49399321 67.09518874 -12.49664392 60.49153901 -12.51052189 53.88782406 C-12.5230827 47.67849588 -12.52117253 41.46933814 -12.508111 35.26001263 C-12.50574194 32.98117866 -12.50849166 30.70233275 -12.51673412 28.42351246 C-12.52717501 25.31257078 -12.51912189 22.20220378 -12.506423 19.09128284 C-12.51379728 18.18971976 -12.52117157 17.28815667 -12.52876931 16.35927349 C-12.4821131 10.92561732 -11.85899412 7.00840695 -9.13220119 2.25447559 C-6.07360491 0.24827272 -3.61306913 0.00347574 0 0 Z M5.86779881 18.25447559 C3.2586011 41.15992744 3.2586011 41.15992744 10.20373631 48.65291309 C12.07673951 49.87673167 13.96543187 51.07681987 15.86779881 52.25447559 C17.67518296 53.95059536 19.43780979 55.6954509 21.15686131 57.48103809 C22.03600193 58.36791309 22.91514256 59.25478809 23.82092381 60.16853809 C25.14350193 61.51045216 25.14350193 61.51045216 26.49279881 62.87947559 C33.45014004 69.98810893 33.45014004 69.98810893 40.79748631 76.68416309 C46.83086605 81.85280408 52.30142044 87.63284394 57.87707615 93.28426075 C63.0402865 98.51123515 68.21320341 103.6366905 73.80334568 108.41267872 C78.86619605 112.92948846 83.54187725 117.88107318 88.30432224 122.71150684 C94.90403492 129.42495686 94.90403492 129.42495686 101.86779881 135.75447559 C107.67666488 140.72336307 112.94163095 146.27225776 118.30432224 151.71150684 C123.45986005 156.93390828 128.63919463 162.06005345 134.21936131 166.83308887 C136.19278844 168.53470214 138.04471178 170.33090759 139.86779881 172.19197559 C140.44529881 172.77849903 141.02279881 173.36502247 141.61779881 173.96931934 C142.23654881 174.60547169 142.23654881 174.60547169 142.86779881 175.25447559 C146.79994182 173.66508134 149.19800227 171.09105058 152.11779881 168.06697559 C155.1638282 164.91970534 158.21099586 161.92469702 161.53967381 159.07869434 C166.92601986 154.42145695 171.87227232 149.32131823 176.86779881 144.25447559 C187.37364749 133.59864538 187.37364749 133.59864538 191.83654881 129.78572559 C197.31861957 125.09637789 202.30504986 119.88601634 207.36779881 114.75447559 C213.03020111 109.0151335 218.66856672 103.33757593 224.80334568 98.09627247 C229.35972003 94.03131409 233.5820245 89.60143362 237.86779881 85.25447559 C244.89974334 78.122143 252.02662328 71.27614695 259.73498631 64.87263966 C262.4587202 62.59416426 265.10375319 60.24090957 267.72522068 57.84578419 C268.8125223 56.87516387 269.92219366 55.92898962 271.05334568 55.00984669 C275.57139159 51.31554019 277.39190282 48.46285432 280.86779881 43.25447559 C280.86779881 35.00447559 280.86779881 26.75447559 280.86779881 18.25447559 C190.11779881 18.25447559 99.36779881 18.25447559 5.86779881 18.25447559 Z M5.86779881 68.25447559 C5.86779881 124.35447559 5.86779881 180.45447559 5.86779881 238.25447559 C96.94779881 238.25447559 188.02779881 238.25447559 281.86779881 238.25447559 C281.86779881 182.15447559 281.86779881 126.05447559 281.86779881 68.25447559 C277.08561666 72.35348886 272.72199983 76.3306973 268.37170506 80.81306934 C266.38421395 82.75095068 264.3764789 84.5504553 262.27014256 86.35213184 C256.86449248 91.04181847 251.88858526 96.16201238 246.86779881 101.25447559 C241.37962969 106.82099382 235.89404 112.31044035 229.94983006 117.39510059 C225.38917255 121.468033 221.15953752 125.90146801 216.86779881 130.25447559 C211.37962969 135.82099382 205.89404 141.31044035 199.94983006 146.39510059 C195.38917255 150.468033 191.15953752 154.90146801 186.86779881 159.25447559 C181.33598822 164.86525832 175.80789211 170.40465229 169.81555271 175.52937794 C166.05414272 178.86080473 162.57552089 182.48461367 159.05529881 186.06697559 C157.57197743 187.57580551 156.08639704 189.08241886 154.59826756 190.58650684 C153.95268894 191.24368702 153.30711033 191.9008672 152.64196873 192.57796192 C149.80903519 195.25496131 148.07764589 196.22246502 144.18029881 196.81697559 C138.45743694 196.59965173 135.69255752 193.17890229 131.86779881 189.25447559 C130.7571857 188.14113204 129.6450843 187.02927204 128.53186131 185.91853809 C126.7274473 184.11798483 124.92692089 182.31480254 123.14270115 180.49422169 C120.2399923 177.5451622 117.29572214 174.7241142 114.14904881 172.03572559 C108.0581937 166.77810885 102.50563091 160.94853188 96.85852146 155.22469044 C90.0516631 148.2908136 90.0516631 148.2908136 82.86779881 141.75447559 C76.85334884 136.61597629 71.41027635 130.85188165 65.85852146 125.22469044 C59.0516631 118.2908136 59.0516631 118.2908136 51.86779881 111.75447559 C45.85334884 106.61597629 40.41027635 100.85188165 34.85852146 95.22469044 C29.5836433 89.88466916 24.30047963 84.6310348 18.58801365 79.75203419 C16.06937726 77.55939785 13.7622775 75.20716281 11.43029881 72.81697559 C9.92792577 71.27790337 8.41253073 69.75102875 6.86779881 68.25447559 C6.53779881 68.25447559 6.20779881 68.25447559 5.86779881 68.25447559 Z " fill="#FF6961" transform="translate(112.13220119476318,127.7455244064331)"/>
</svg>
